<?xml version="1.0" encoding="UTF-8" standalone="no"?>
<!-- Created with Inkscape (http://www.inkscape.org/) -->

<svg
   width="77.067085mm"
   height="88.997818mm"
   viewBox="0 0 77.067086 88.997819"
   version="1.1"
   id="svg1"
   xml:space="preserve"
   inkscape:version="1.4 (e7c3feb100, 2024-10-09)"
   sodipodi:docname="yippee.svg"
   xmlns:inkscape="http://www.inkscape.org/namespaces/inkscape"
   xmlns:sodipodi="http://sodipodi.sourceforge.net/DTD/sodipodi-0.dtd"
   xmlns="http://www.w3.org/2000/svg"
   xmlns:svg="http://www.w3.org/2000/svg"><sodipodi:namedview
     id="namedview1"
     pagecolor="#505050"
     bordercolor="#eeeeee"
     borderopacity="1"
     inkscape:showpageshadow="0"
     inkscape:pageopacity="0"
     inkscape:pagecheckerboard="0"
     inkscape:deskcolor="#505050"
     inkscape:document-units="mm"
     inkscape:zoom="2.8422359"
     inkscape:cx="81.625877"
     inkscape:cy="182.25088"
     inkscape:window-width="2560"
     inkscape:window-height="1337"
     inkscape:window-x="0"
     inkscape:window-y="0"
     inkscape:window-maximized="1"
     inkscape:current-layer="layer1" /><defs
     id="defs1" /><g
     inkscape:label="Layer 1"
     inkscape:groupmode="layer"
     id="layer1"
     transform="translate(-64.281447,-150.10488)"><path
       style="fill:#000000"
       d="m 112.16955,239.04975 c -0.82661,-0.0948 -1.69421,-0.36889 -2.07578,-0.65575 -0.74753,-0.56198 -2.20938,-2.44819 -2.59501,-3.34832 -0.27387,-0.63927 -0.90524,-2.59187 -1.19352,-3.69118 -0.0531,-0.20261 -0.11338,-0.35161 -0.13388,-0.33111 -0.0205,0.0205 -0.1109,0.43392 -0.2009,0.91871 -0.37445,2.017 -0.80992,3.50729 -1.29036,4.41587 -0.9823,1.85767 -3.66194,3.07548 -5.657006,2.57092 -1.24214,-0.31414 -2.18483,-0.9496 -3.4785,-2.34483 -0.88906,-0.95885 -1.25588,-1.51235 -2.05518,-3.1011 -0.46932,-0.93286 -1.09201,-3.14911 -1.40883,-5.01423 -0.0984,-0.57905 -0.19479,-1.07862 -0.21428,-1.11015 -0.0195,-0.0315 -0.10057,-0.83411 -0.18018,-1.78351 -0.11359,-1.35447 -0.14235,-2.61046 -0.13356,-5.83252 0.006,-2.25848 0.034,-4.31588 0.0619,-4.572 0.0279,-0.25612 0.0833,-1.18957 0.12304,-2.07433 0.0428,-0.95122 0.13093,-1.86198 0.21575,-2.22847 0.0789,-0.34089 0.12686,-0.63637 0.10661,-0.65663 -0.0203,-0.0203 -0.35729,-0.0959 -0.74898,-0.16803 -1.23474,-0.22749 -2.9549,-0.83598 -3.97182,-1.40498 -0.30268,-0.16937 -0.72178,-0.35667 -0.93133,-0.41624 -0.20955,-0.0596 -0.42568,-0.14196 -0.4803,-0.18309 -0.0546,-0.0411 -0.32131,-0.051 -0.59266,-0.022 -0.65756,0.0703 -3.23852,-0.23594 -4.21871,-0.50062 -0.4191,-0.11317 -1.32946,-0.43748 -2.02302,-0.72068 -0.69356,-0.28321 -1.32835,-0.51492 -1.41064,-0.51492 -0.1511,0 -0.588,-0.44959 -0.588,-0.60509 0,-0.0462 0.16593,-0.35765 0.36874,-0.692 0.20281,-0.33435 0.45516,-0.77753 0.56077,-0.98484 0.17539,-0.34425 0.5098,-1.23029 0.50984,-1.35083 0,-0.0276 -0.79057,-0.0502 -1.75684,-0.0502 -1.85132,0 -2.28535,-0.0592 -3.121,-0.42558 -0.77277,-0.33883 -0.87973,-0.70995 -0.42318,-1.46835 0.42612,-0.70784 0.85493,-1.59206 1.23622,-2.5491 0.38257,-0.96027 0.40221,-1.0607 0.19128,-0.97798 -0.49163,0.19281 -2.15363,0.65647 -2.47537,0.69057 -0.21017,0.0223 -0.66788,0.01 -1.01713,-0.0275 -0.61347,-0.0657 -0.63592,-0.0761 -0.6622,-0.30507 -0.015,-0.13038 0.14455,-0.75903 0.35447,-1.397 0.20991,-0.63798 0.55752,-1.76956 0.77247,-2.51463 0.48664,-1.68686 0.67766,-2.23967 0.98787,-2.8589 l 0.24458,-0.48824 0.01,-1.9671 c 0.005,-1.0819 -0.0115,-2.04931 -0.0379,-2.14981 -0.0264,-0.10049 -0.26322,-0.47382 -0.52634,-0.82961 -0.26312,-0.35579 -0.59237,-0.89044 -0.73167,-1.18813 -0.2797,-0.5977 -0.25613,-0.76575 0.14421,-1.02806 l 0.2109,-0.13819 -0.45355,-0.47565 c -0.49853,-0.5228 -0.87531,-1.07595 -1.00968,-1.4823 -0.0479,-0.14484 -0.2662,-0.45384 -0.48511,-0.68667 -1.03247,-1.09809 -1.69675,-2.03972 -1.69675,-2.40514 0,-0.35948 0.30992,-0.55564 0.76333,-0.48314 0.18553,0.0297 0.33733,0.0332 0.33733,0.008 0,-0.0254 -0.091,-0.22586 -0.20231,-0.44551 -0.53141,-1.04897 -1.06147,-2.66746 -1.32529,-4.04667 -0.0973,-0.50857 -0.47627,-2.14388 -0.84218,-3.63401 -0.36591,-1.49013 -0.76761,-3.16653 -0.89265,-3.72533 -0.12505,-0.5588 -0.4155,-1.81484 -0.64544,-2.7912 -0.22995,-0.97635 -0.45693,-2.0622 -0.50441,-2.413 -0.0475,-0.35079 -0.14029,-0.9426 -0.20623,-1.31514 -0.38981,-2.20194 -0.60574,-5.27691 -0.42511,-6.05366 0.13217,-0.56835 0.32017,-0.6645 0.99957,-0.51121 0.19858,0.0448 0.74278,0.13761 1.20933,0.20624 1.01822,0.14976 3.04933,0.76506 4.27406,1.29477 1.17169,0.50677 2.1436,1.07187 4.72041,2.7446 1.17594,0.76336 3.04284,1.94015 4.14866,2.61509 3.14695,1.92074 4.97342,3.16835 5.63731,3.8507 0.3183,0.32714 0.62481,0.58541 0.68114,0.57392 0.0563,-0.0115 0.25164,0.0552 0.43402,0.14816 0.18237,0.093 0.41693,0.16906 0.52123,0.16906 0.2074,0 0.96256,-0.18628 1.29856,-0.32033 0.52641,-0.21001 1.9595,-0.60481 2.49767,-0.68808 0.32596,-0.0504 1.09586,-0.18633 1.71088,-0.30197 2.92807,-0.55057 5.57349,-0.7472 9.380446,-0.69723 3.21794,0.0422 3.89106,0.11175 6.30766,0.65138 0.81492,0.18197 1.84362,0.38767 2.286,0.45712 1.23721,0.1942 2.69185,0.52385 3.31489,0.75122 0.42899,0.15655 0.6751,0.19625 1.03268,0.1666 l 0.46946,-0.0389 1.07322,-1.09305 c 0.59028,-0.60117 1.14224,-1.14137 1.22658,-1.20045 0.0844,-0.0591 0.91215,-0.83132 1.83956,-1.71609 0.92741,-0.88477 1.97244,-1.83544 2.32228,-2.1126 0.92202,-0.73046 3.37484,-2.53403 3.62267,-2.66376 0.11641,-0.0609 0.85936,-0.53631 1.651,-1.05638 1.88156,-1.23612 1.98442,-1.29588 2.48746,-1.44526 0.23524,-0.0699 0.71846,-0.29891 1.07381,-0.509 0.90822,-0.53696 2.31481,-1.23014 3.21391,-1.58385 1.4463,-0.56899 3.28984,-0.78854 3.80327,-0.45294 l 0.24285,0.15874 -0.0528,2.5506 c -0.054,2.6116 -0.10553,3.37551 -0.39173,5.81026 -0.0903,0.76835 -0.20592,1.8161 -0.25689,2.32833 -0.46358,4.65871 -1.63201,9.98766 -3.16361,14.42859 -0.26364,0.76445 -0.46394,1.40533 -0.44511,1.42417 0.0188,0.0188 0.31058,-0.048 0.64831,-0.14863 0.74138,-0.22079 1.01083,-0.15486 1.01083,0.24734 0,0.2052 -0.1277,0.36568 -0.72005,0.9049 -0.65467,0.59595 -0.70848,0.66824 -0.59266,0.79621 0.0701,0.0774 0.12738,0.20528 0.12738,0.28415 0,0.18677 -0.60422,0.84065 -1.15065,1.24521 -0.23704,0.1755 -0.54963,0.50336 -0.69466,0.72858 -0.14502,0.22521 -0.54163,0.64225 -0.88135,0.92674 -0.33972,0.28449 -0.82723,0.754 -1.08334,1.04335 -0.25612,0.28936 -0.79945,0.87032 -1.2074,1.29103 l -0.74172,0.76492 0.0811,0.52005 c 0.12908,0.82801 0.17818,2.97076 0.0932,4.06521 l -0.0781,1.00515 0.40811,0.85752 c 0.87873,1.8464 2.18676,5.02829 2.26484,5.50943 l 0.0471,0.29034 -0.90823,0.004 c -0.59877,0.002 -1.17199,-0.0532 -1.68237,-0.16325 -0.93319,-0.20129 -2.95263,-0.51582 -3.00104,-0.46742 -0.019,0.0191 0.24146,0.3513 0.5789,0.73832 0.58823,0.67465 1.32549,1.72877 1.64708,2.35497 0.0836,0.16283 0.35986,0.61569 0.61385,1.00637 0.39934,0.61424 0.44971,0.73685 0.37244,0.90645 -0.0981,0.21524 -0.89247,0.7095 -1.14238,0.71077 -0.0863,4.3e-4 -0.6388,0.18959 -1.22767,0.42035 -1.32995,0.52115 -2.39008,0.8291 -3.10711,0.90257 -0.30286,0.031 -0.56821,0.0848 -0.58967,0.11955 -0.0215,0.0347 0.43853,0.51117 1.02221,1.05878 0.58367,0.5476 1.04997,1.04074 1.03623,1.09586 -0.0524,0.2103 -0.96744,0.92324 -1.53238,1.19398 l -0.58993,0.28272 2.14932,-0.009 c 2.30933,-0.01 3.24271,0.087 5.536,0.5744 1.69485,0.36023 2.42794,0.66772 3.46484,1.45333 0.47793,0.36211 0.50713,0.37251 0.62129,0.22136 0.35534,-0.47049 1.46138,-3.41141 1.70208,-4.52576 0.24619,-1.13974 0.33451,-2.881 0.38831,-7.65551 0.0514,-4.56375 0.1103,-5.27504 0.56491,-6.82415 0.3384,-1.15309 0.692,-1.81412 1.16032,-2.16911 0.31024,-0.23516 0.43722,-0.27774 0.82831,-0.27774 1.12992,0 2.04184,0.95281 2.31233,2.41603 0.11029,0.5966 0.11151,2.62739 0.002,3.8493 -0.0437,0.48895 -0.1158,2.3749 -0.16023,4.191 -0.0444,1.8161 -0.13754,3.89255 -0.20691,4.61434 -0.15917,1.6562 -0.5177,3.8238 -0.76974,4.65362 -0.29156,0.95993 -1.07438,2.77591 -1.75157,4.06323 -0.74863,1.42316 -0.9312,1.7139 -1.21781,1.93934 l -0.22709,0.17863 0.11566,0.57275 c 0.0837,0.41461 0.11268,1.25072 0.10486,3.02809 -0.0179,4.08198 -0.2608,6.08017 -1.21165,9.96932 -0.2322,0.94974 -0.47957,2.16223 -0.54971,2.69441 -0.14293,1.08453 -0.39063,2.12957 -0.60446,2.55017 -0.25475,0.50112 -0.96453,1.40202 -1.46711,1.86218 -0.49036,0.44898 -1.87389,1.25531 -2.67561,1.55937 -0.29487,0.11183 -0.64172,0.16055 -1.143,0.16055 -0.64548,0 -0.7633,-0.0258 -1.143,-0.25042 -0.66029,-0.39059 -1.40719,-1.192 -1.712,-1.83695 -0.417,-0.8823 -0.69243,-1.89477 -0.79107,-2.90796 -0.0499,-0.51223 -0.14419,-1.25518 -0.2096,-1.651 -0.16096,-0.97411 -0.26676,-2.15775 -0.38217,-4.27567 -0.0533,-0.9779 -0.12581,-1.80877 -0.16115,-1.84639 -0.0884,-0.0941 -1.47302,-0.31226 -1.53677,-0.24216 -0.0283,0.0311 -0.0208,0.3042 0.0166,0.60689 0.0374,0.30268 0.0936,1.38853 0.12474,2.413 0.0452,1.48561 0.029,2.07124 -0.0801,2.89306 -0.0752,0.56672 -0.1371,1.23347 -0.13745,1.48167 -0.002,1.28833 -0.37887,2.23163 -1.19345,2.98578 -0.88431,0.81872 -1.8387,1.23315 -2.83977,1.23315 -0.55874,0 -1.3706,-0.24451 -1.55679,-0.46886 -0.0565,-0.0681 -0.14571,-0.12325 -0.19822,-0.12257 -0.0525,6.8e-4 -0.32131,0.63886 -0.59735,1.41817 -0.27604,0.77931 -0.60403,1.59947 -0.72888,1.82257 -0.25412,0.45411 -0.67053,0.78718 -1.32941,1.06333 -0.51392,0.21539 -1.85958,0.30201 -2.8777,0.18523 z m 1.87298,-0.85294 c 0.73954,-0.1069 1.32729,-0.42015 1.55651,-0.82959 0.3477,-0.62107 1.18499,-2.97378 1.58687,-4.459 0.56642,-2.09327 0.56161,-2.05119 0.60793,-5.32556 0.0319,-2.25811 0.0157,-3.16829 -0.0633,-3.54026 -0.13343,-0.62875 -0.0959,-0.67239 0.80984,-0.94285 0.781,-0.2332 1.66818,-0.36464 3.20944,-0.47548 1.38922,-0.0999 3.07207,0.0689 3.74758,0.376 0.54881,0.24948 0.58285,0.3619 0.65434,2.16115 0.0726,1.82695 0.20464,3.46932 0.34714,4.318 0.0665,0.39581 0.16082,1.15781 0.20968,1.69333 0.14819,1.6242 0.61307,2.95996 1.28312,3.68688 0.51462,0.5583 0.98253,0.80045 1.54672,0.80045 0.57769,0 1.03093,-0.16727 2.1401,-0.7898 0.64915,-0.36434 0.99002,-0.62419 1.40073,-1.06779 0.93503,-1.00992 1.19097,-1.68829 1.5033,-3.98441 0.0538,-0.39581 0.30426,-1.55786 0.55649,-2.58233 0.85115,-3.45706 1.13732,-5.88369 1.15136,-9.76317 l 0.008,-2.17483 -0.26882,-1.00528 c -0.46347,-1.73318 -0.787,-2.25497 -2.20907,-3.56283 -1.14133,-1.04965 -1.83483,-1.41176 -3.40359,-1.77716 -2.45138,-0.57099 -4.23901,-0.75111 -6.71337,-0.67643 -1.35465,0.0409 -2.04008,0.0225 -2.87867,-0.0773 -0.94826,-0.11286 -1.22648,-0.11545 -2.00923,-0.0187 l -0.90855,0.11228 -1.47333,0.81483 c -1.74532,0.96526 -2.16093,1.15401 -3.05956,1.38946 -1.43852,0.37691 -5.01791,0.77876 -6.94266,0.77944 -0.65194,2.3e-4 -1.73779,0.0591 -2.413,0.1308 -1.7973,0.19088 -3.8273,0.17918 -5.461006,-0.0315 -0.74506,-0.0961 -1.79281,-0.19967 -2.32833,-0.2302 -0.53552,-0.0305 -1.08797,-0.10432 -1.22767,-0.16395 -0.1397,-0.0596 -0.4826,-0.15358 -0.762,-0.20875 -0.2794,-0.0552 -0.69239,-0.15912 -0.91777,-0.23099 -0.27764,-0.0885 -0.43752,-0.10291 -0.49584,-0.0446 -0.21033,0.21033 -0.49139,5.3195 -0.49139,8.9326 0,2.13418 0.19691,5.7702 0.38607,7.12899 0.072,0.51689 0.6134,3.29893 0.79258,4.0724 0.19197,0.82869 0.74589,2.34464 1.10958,3.03666 0.35254,0.6708 1.09406,1.76704 1.65654,2.44895 0.81872,0.99257 2.10783,1.8174 3.14111,2.00981 1.583206,0.29483 3.634056,-0.66591 4.472296,-2.09509 0.39792,-0.67843 0.81964,-2.12092 1.22987,-4.20678 0.24959,-1.269 0.27541,-1.8865 0.18656,-4.46162 -0.0938,-2.71965 -0.0429,-4.19908 0.14873,-4.31996 0.19637,-0.12387 0.55991,-0.0972 0.68213,0.0501 0.0667,0.0804 0.13729,0.53465 0.17882,1.15049 0.0848,1.25726 0.50688,4.6126 0.78386,6.23088 0.26153,1.52807 0.7901,3.31518 1.27087,4.29685 0.6337,1.29392 1.80636,2.73236 2.53429,3.10869 0.73906,0.38208 1.88438,0.49799 3.1348,0.31724 z m 6.21546,-4.04928 c 0.99418,-0.30943 1.99932,-1.22168 2.20508,-2.00131 0.0492,-0.18627 0.11238,-0.64347 0.1405,-1.016 0.0281,-0.37254 0.11162,-1.15359 0.18555,-1.73567 0.10711,-0.84332 0.12406,-1.51826 0.0834,-3.3221 -0.0327,-1.45329 -0.086,-2.32912 -0.14872,-2.44633 -0.0948,-0.17718 -0.12956,-0.18088 -1.17783,-0.12554 -1.05544,0.0557 -2.64554,0.25558 -2.80182,0.35217 -0.0458,0.0283 -0.0786,1.34089 -0.0787,3.15496 -3.7e-4,3.35336 -0.0502,3.92511 -0.48227,5.53648 -0.24618,0.91807 -0.21921,1.12213 0.18319,1.38579 0.59509,0.38992 1.13743,0.45229 1.89165,0.21755 z m 16.75872,-21.45348 c 0.14743,-0.24448 0.57116,-1.07315 0.94162,-1.8415 1.53519,-3.18409 2.20716,-6.57005 2.21674,-11.16986 0.002,-1.05113 0.0378,-2.40644 0.0792,-3.01181 0.3397,-4.9731 0.32567,-5.77415 -0.11703,-6.67899 -0.3711,-0.7585 -1.13968,-1.11653 -1.55874,-0.72611 -0.36925,0.34401 -0.82592,1.56236 -1.07779,2.87544 -0.16858,0.8789 -0.28245,3.64942 -0.28881,7.02733 -0.006,2.98642 -0.11311,4.8517 -0.3447,5.98161 -0.25513,1.24483 -0.99649,3.25109 -1.70787,4.62185 l -0.33998,0.65512 0.56827,0.61379 c 0.40335,0.43565 0.67007,0.82886 0.91906,1.35489 0.19293,0.40761 0.37131,0.74147 0.3964,0.74192 0.0251,4.5e-4 0.16624,-0.19921 0.31367,-0.44368 z m -33.37928,-2.01666 c 0.2794,-0.0427 0.99077,-0.0779 1.58084,-0.0782 2.3604,-0.001 6.33019,-0.42523 8.01954,-0.85617 0.62311,-0.15896 2.0596,-0.80279 2.71684,-1.21769 0.18994,-0.1199 0.77286,-0.43334 1.29539,-0.69653 0.79748,-0.40169 1.01475,-0.47605 1.3529,-0.46302 0.42384,0.0163 1.67408,-0.15862 2.60282,-0.36419 0.78303,-0.17332 1.46667,-0.42181 2.00002,-0.72696 l 0.46151,-0.26406 -1.13622,-1.12185 c -0.62492,-0.61702 -1.16315,-1.20671 -1.19606,-1.31041 -0.0967,-0.30472 0.16103,-0.51509 0.63106,-0.51509 1.00996,0 2.6492,-0.41214 4.35045,-1.09379 0.36616,-0.14671 0.83625,-0.29012 1.04463,-0.31868 0.20838,-0.0286 0.39813,-0.1021 0.42166,-0.16342 0.0578,-0.15063 -0.33401,-0.81812 -1.14625,-1.95276 -0.37141,-0.51883 -0.72155,-1.03251 -0.77808,-1.14151 -0.0565,-0.109 -0.32643,-0.45211 -0.59976,-0.76247 -0.27333,-0.31036 -0.49817,-0.61516 -0.49965,-0.67734 -10e-4,-0.0622 -0.0546,-0.18148 -0.11805,-0.26514 -0.17638,-0.23257 -0.0691,-0.44794 0.30788,-0.61792 0.32676,-0.14735 0.39591,-0.14797 1.58012,-0.0142 0.68112,0.077 1.56226,0.21452 1.95807,0.30569 0.39582,0.0912 0.92177,0.18697 1.16878,0.21287 0.5371,0.0563 0.55516,0.20471 -0.19443,-1.59702 -0.84577,-2.0329 -1.48929,-3.45818 -1.64378,-3.64067 -0.1293,-0.15272 -0.13675,-0.33131 -0.076,-1.82033 0.0743,-1.82107 0.0337,-2.94299 -0.14951,-4.12659 -0.15442,-0.99778 -0.16052,-0.94011 0.11177,-1.05693 0.44778,-0.19211 0.7176,-0.43205 1.34779,-1.1985 0.34924,-0.42477 0.9842,-1.09313 1.41102,-1.48525 0.42681,-0.39211 0.89989,-0.88741 1.05129,-1.10066 0.1514,-0.21326 0.39637,-0.49148 0.54437,-0.61827 0.25469,-0.21818 0.26149,-0.23894 0.1269,-0.38766 -0.25948,-0.28673 -0.17089,-0.4734 0.49279,-1.03841 0.34925,-0.29732 0.635,-0.55548 0.635,-0.5737 0,-0.0182 -0.0697,-0.0149 -0.15485,0.007 -0.18899,0.0494 -0.35733,-0.0737 -0.5127,-0.37511 -0.10228,-0.1984 -0.0985,-0.2739 0.03,-0.59267 0.15981,-0.39665 0.82391,-2.32652 1.17455,-3.4133 0.34204,-1.06007 0.62968,-2.08281 0.81415,-2.89481 0.21398,-0.94186 0.4506,-1.75651 0.62777,-2.1613 0.0758,-0.17313 0.13777,-0.41388 0.13777,-0.53499 0,-0.12112 0.097,-0.60275 0.21549,-1.0703 0.71251,-2.81085 1.16835,-6.59255 1.30958,-10.8646 0.0385,-1.16416 0.1138,-2.68451 0.16736,-3.37854 0.12167,-1.5767 0.10563,-1.65808 -0.31645,-1.60558 -0.17471,0.0217 -0.52746,0.0535 -0.7839,0.0706 -0.81107,0.0541 -3.10453,0.70838 -3.93641,1.12302 -0.23284,0.11606 -0.72814,0.39239 -1.10067,0.61408 -1.57671,0.93828 -2.14713,1.26447 -2.667,1.52513 -0.68644,0.34418 -1.61647,0.93937 -2.11667,1.3546 -0.20955,0.17395 -0.5447,0.39928 -0.74479,0.50073 -0.20008,0.10145 -0.80968,0.57524 -1.35467,1.05287 -0.54498,0.47763 -1.77192,1.5188 -2.72654,2.31371 -2.57024,2.14023 -3.98216,3.65206 -5.04375,5.40063 -0.46923,0.77289 -0.22236,0.76694 -2.36458,0.057 -1.88224,-0.62379 -3.43364,-0.99264 -6.223,-1.47952 -3.17379,-0.55398 -3.78468,-0.60604 -7.112,-0.60604 -3.192536,0 -4.094446,0.069 -6.082756,0.46531 -0.6825,0.13603 -1.52666,0.26663 -1.87591,0.29021 -0.34925,0.0236 -0.75249,0.0778 -0.89609,0.12056 -0.1436,0.0427 -0.50555,0.10483 -0.80434,0.13799 -0.29878,0.0332 -0.62411,0.11154 -0.72296,0.17417 -0.0988,0.0626 -0.42269,0.17591 -0.71966,0.25173 -0.29697,0.0758 -0.88285,0.243 -1.30195,0.3715 -0.58586,0.17964 -0.90561,0.22922 -1.38326,0.21448 -0.61553,-0.019 -0.62918,-0.0245 -1.48166,-0.59707 -0.81959,-0.55049 -1.54471,-1.08211 -2.76541,-2.02748 -0.92787,-0.71858 -3.30827,-2.35203 -3.97934,-2.73065 -0.34925,-0.19705 -1.2065,-0.77942 -1.905,-1.29414 -1.22047,-0.89938 -1.9196,-1.37121 -2.921,-1.97132 -0.25611,-0.15349 -0.72547,-0.43946 -1.04301,-0.6355 -0.65843,-0.40648 -2.35976,-1.27879 -2.49411,-1.27879 -0.0492,0 -0.10213,-0.0326 -0.11765,-0.0725 -0.0155,-0.0399 -0.79023,-0.27421 -1.72156,-0.52071 -2.62077,-0.69367 -2.65786,-0.70109 -2.93429,-0.58659 -0.21478,0.089 -0.241,0.14192 -0.2434,0.4916 -0.002,0.21554 -0.0572,0.46386 -0.12377,0.55183 -0.079,0.10429 -0.10677,0.28101 -0.08,0.508 0.0226,0.19143 0.13573,1.21234 0.25137,2.26867 0.21004,1.91861 0.64358,4.71911 0.80235,5.18286 0.0462,0.13501 0.0846,0.40171 0.0853,0.59267 0.001,0.30666 0.54588,2.93308 1.00281,4.83453 0.0895,0.37254 0.29931,1.26789 0.46618,1.98967 0.16688,0.72178 0.36589,1.50113 0.44226,1.73189 0.0764,0.23076 0.22611,0.76416 0.33278,1.18533 0.47062,1.85812 1.24355,4.01742 1.73809,4.8556 0.25214,0.42735 0.17043,0.66379 -0.25418,0.73553 -0.18445,0.0312 -0.41317,0.032 -0.50827,0.002 -0.0956,-0.0303 -0.1729,-0.0169 -0.1729,0.03 0,0.12922 0.93567,1.26501 1.47161,1.78636 0.33044,0.32145 0.47582,0.5283 0.47604,0.67733 4.3e-4,0.29416 0.22938,0.64515 0.955,1.46407 0.64289,0.72556 0.90735,1.07016 0.90735,1.18233 0,0.15891 -0.35984,0.4045 -0.59267,0.4045 -0.1397,0 -0.254,0.0313 -0.254,0.0696 0,0.10661 0.81794,1.27268 1.24175,1.77026 0.41951,0.49253 0.40883,0.43398 0.28229,1.54681 -0.0503,0.44239 -0.084,1.35679 -0.0748,2.032 l 0.0166,1.22767 -0.27277,0.54195 c -0.38975,0.77439 -0.63768,1.46636 -1.06286,2.96647 -0.2054,0.72467 -0.48997,1.67286 -0.63238,2.1071 -0.42679,1.30129 -0.25434,1.36258 1.94815,0.69241 0.76472,-0.23268 1.47146,-0.42318 1.57054,-0.42333 0.2282,-3.4e-4 0.33426,0.13392 0.40111,0.50773 0.0527,0.29496 0.0366,0.34841 -0.62026,2.05903 -0.10407,0.27098 -0.41338,0.93468 -0.68737,1.47487 -0.56392,1.11182 -0.56234,1.12904 0.12269,1.34182 0.5839,0.18136 3.07121,0.26556 3.77203,0.12768 0.46095,-0.0907 0.53885,-0.0838 0.84974,0.0748 0.25569,0.13045 0.34226,0.22578 0.34226,0.37692 0,0.38964 -0.51892,1.79066 -0.93488,2.52408 -0.4553,0.80278 -0.46457,0.82617 -0.32727,0.82617 0.0509,0 0.65096,0.22417 1.3335,0.49817 1.56323,0.62754 2.33721,0.82109 3.99728,0.99962 1.03051,0.11082 1.51704,0.12472 2.1936,0.0627 0.75593,-0.0693 0.90955,-0.0607 1.17708,0.066 0.16923,0.0802 0.33507,0.14706 0.36855,0.14864 0.0335,0.002 0.32207,0.17186 0.64134,0.37839 0.64892,0.41978 1.2991,0.72842 2.1696,1.02991 0.32219,0.11159 0.64604,0.25415 0.71966,0.3168 0.0736,0.0626 0.47677,0.17935 0.89587,0.25933 0.4191,0.08 1.2192,0.27104 1.778,0.42458 1.38318,0.38006 2.77178,0.63541 3.937,0.72399 0.53552,0.0407 1.29752,0.11489 1.69333,0.16485 0.39582,0.05 0.89112,0.1052 1.100666,0.12275 0.57553,0.0482 2.93687,-0.0335 3.51367,-0.12155 z m -4.635506,-7.10605 c -0.16976,-0.10679 -0.19811,-0.50898 -0.0466,-0.66052 0.0559,-0.0559 0.31306,-0.10121 0.5715,-0.10072 0.25845,4.8e-4 1.437286,-0.0633 2.619656,-0.14165 1.74485,-0.11568 2.41903,-0.12593 3.57928,-0.0544 1.17111,0.0722 1.45975,0.11546 1.59674,0.23943 0.20393,0.18455 0.21459,0.40371 0.0272,0.55922 -0.11222,0.0931 -0.69631,0.11704 -2.94217,0.1204 -1.54118,0.002 -3.3546,0.0328 -4.02982,0.0678 -0.850596,0.0441 -1.273166,0.035 -1.375826,-0.0296 z m 13.312526,-1.1879 c -0.0752,-0.1405 -0.0197,-0.33706 0.30477,-1.0795 0.21819,-0.49925 0.47987,-1.105 0.58152,-1.34612 0.24668,-0.58514 0.36898,-0.71827 0.63177,-0.68772 0.41461,0.0482 0.31406,0.43122 -0.67907,2.58662 -0.2783,0.604 -0.3506,0.6985 -0.53445,0.6985 -0.12696,0 -0.24964,-0.0692 -0.30454,-0.17178 z m 2.72758,-0.0145 c -0.24936,-0.24935 -0.0218,-0.84674 1.05533,-2.76991 0.21243,-0.3793 0.40521,-0.50112 0.5999,-0.37908 0.2662,0.16688 0.207,0.42002 -0.32689,1.39784 -0.28942,0.53006 -0.61477,1.16377 -0.72301,1.40825 -0.20026,0.45232 -0.389,0.55923 -0.60533,0.3429 z m 2.6283,-0.081 c -0.16379,-0.16379 -0.1348,-0.26935 0.32815,-1.19474 0.92998,-1.8589 1.24677,-2.26616 1.56034,-2.00593 0.19021,0.15786 0.14941,0.3661 -0.19366,0.98855 -0.17413,0.31593 -0.50792,0.95542 -0.74175,1.42108 -0.35197,0.70092 -0.46154,0.85094 -0.6365,0.87147 -0.11624,0.0137 -0.2587,-0.0225 -0.31658,-0.0804 z m -30.612286,-0.13915 c -0.16354,-0.1807 -0.11889,-0.3896 0.32613,-1.52606 0.68888,-1.75924 0.7677,-1.91878 0.9622,-1.94749 0.37937,-0.056 0.56151,0.34459 0.32159,0.70732 -0.12416,0.18773 -0.42743,0.91717 -0.82624,1.98734 -0.23929,0.64213 -0.42262,0.93134 -0.59036,0.93134 -0.0304,0 -0.11744,-0.0686 -0.19332,-0.15245 z m -2.79517,0.0113 c -0.12848,-0.12848 -0.0319,-0.47815 0.41881,-1.51607 0.26139,-0.60196 0.55721,-1.28498 0.65737,-1.51781 0.25238,-0.58668 0.29092,-0.635 0.50644,-0.635 0.21495,0 0.39293,0.14573 0.39293,0.32173 0,0.0652 -0.1542,0.44311 -0.34267,0.83981 -0.18847,0.3967 -0.49427,1.08551 -0.67954,1.53068 -0.18528,0.44518 -0.37864,0.85975 -0.4297,0.92126 -0.0973,0.11726 -0.42691,0.15214 -0.52364,0.0554 z m 5.35816,-0.20514 c -0.10877,-0.20323 0.0737,-0.6015 0.96806,-2.11283 0.47032,-0.79479 0.54855,-0.88525 0.76553,-0.88525 0.49173,0 0.45807,0.18457 -0.2715,1.48895 -0.37542,0.67121 -0.76471,1.32516 -0.86508,1.45322 -0.21723,0.27715 -0.46613,0.30046 -0.59701,0.0559 z m 11.675966,-3.3326 c -0.29885,-0.20308 -1.04886,-1.08352 -1.25039,-1.46784 -0.359876,-0.68632 0.71161,-1.31237 2.23727,-1.3072 1.05831,0.004 1.70525,0.14624 2,0.441 0.33843,0.33842 0.37862,0.6039 0.15985,1.05582 -0.55703,1.15067 -2.29531,1.85677 -3.14673,1.27822 z m 1.47321,-0.83022 c 0.37337,-0.15664 0.90955,-0.64291 0.90955,-0.82489 0,-0.29581 -1.54412,-0.44332 -2.30998,-0.22068 -0.26621,0.0774 -0.48402,0.17125 -0.48402,0.20858 0,0.0373 0.21153,0.30162 0.47006,0.58731 0.5267,0.58202 0.59392,0.59389 1.41439,0.24968 z m -14.161116,-1.97824 c -1.19239,-0.23352 -2.46144,-0.59027 -2.71982,-0.76458 -0.55687,-0.37569 -1.58825,-1.51128 -1.80745,-1.99007 -0.63719,-1.39181 -1.01003,-4.6672 -0.69737,-6.12643 0.34426,-1.60673 0.9706,-2.72957 2.21897,-3.97794 0.77622,-0.77622 1.05825,-0.99725 1.69334,-1.32713 1.01847,-0.52901 1.76312,-0.79975 2.75649,-1.00218 1.04226,-0.2124 1.65905,-0.21265 2.42287,-9.9e-4 0.97419,0.26996 1.35809,0.52602 2.24185,1.49524 1.08456,1.18944 2.13329,2.98493 2.39706,4.10392 0.25111,1.06528 0.11424,3.55584 -0.2613,4.75482 -0.35887,1.14577 -0.65954,1.61992 -1.68297,2.65407 -1.23571,1.24865 -1.88053,1.61117 -3.59834,2.02299 -0.5452,0.13071 -2.55576,0.2381 -2.96333,0.15828 z m 3.175,-1.12614 c 1.08759,-0.29121 1.68436,-0.63538 2.55595,-1.47408 0.92981,-0.89471 1.30723,-1.42185 1.58624,-2.21546 0.28313,-0.80534 0.37645,-1.38608 0.44142,-2.747 0.0441,-0.92435 0.0269,-1.28295 -0.0859,-1.78704 -0.24553,-1.09741 -1.23162,-2.83202 -2.19606,-3.863 -0.56508,-0.60408 -0.84954,-0.79858 -1.59533,-1.09086 -1.61271,-0.63201 -4.50773,0.22004 -6.20271,1.82556 -0.87639,0.83014 -1.55356,1.8711 -1.91687,2.94666 -0.46965,1.39035 -0.45171,3.12823 0.0543,5.26279 0.22836,0.9633 0.48535,1.45097 1.13251,2.14907 0.50221,0.54173 0.80791,0.68555 2.09652,0.98635 0.98777,0.23057 1.18503,0.24975 2.26723,0.22045 0.86164,-0.0233 1.37031,-0.0816 1.86267,-0.21344 z m -3.76113,-0.22605 c -0.34565,-0.0594 -0.72665,-0.18073 -0.84667,-0.26968 -0.3316,-0.24579 -0.59622,-0.77128 -0.59781,-1.18719 -0.003,-0.69826 0.38265,-1.1314 1.39561,-1.56883 0.37253,-0.16087 0.95458,-0.43098 1.29343,-0.60025 0.33885,-0.16927 1.1961,-0.53984 1.905,-0.82348 0.7089,-0.28364 1.4794,-0.60142 1.71224,-0.70617 0.81632,-0.36728 1.66427,-0.63623 2.00588,-0.63623 0.4292,0 0.83713,0.24338 1.04031,0.62066 0.15062,0.27967 0.14979,0.30168 -0.0376,0.99683 -0.25784,0.9565 -0.55903,1.52018 -1.21676,2.27718 -1.08965,1.25412 -1.83296,1.6111 -3.78149,1.81609 -1.76243,0.18542 -2.19369,0.19759 -2.87213,0.0811 z m -2.17107,-5.18402 c -0.46076,-0.21712 -0.92321,-0.63362 -1.05393,-0.94921 -0.16569,-0.4 -0.0575,-1.60262 0.21552,-2.39478 0.29759,-0.86361 0.69192,-1.42876 1.51679,-2.17381 0.76295,-0.68913 1.30533,-0.98984 2.48426,-1.37733 0.76426,-0.2512 0.9058,-0.2704 2.00756,-0.2723 1.1507,-0.002 1.20149,0.006 1.73824,0.25938 0.72254,0.34163 1.12347,0.70268 1.61457,1.45397 0.73215,1.12003 0.83733,1.85743 0.35151,2.46443 -0.37479,0.46828 -1.75955,1.49977 -2.51899,1.87637 -1.04524,0.51832 -3.76174,1.18498 -5.03766,1.2363 -0.83623,0.0336 -1.02226,0.0163 -1.31787,-0.12302 z m 25.657166,6.33131 c -1.46584,-0.19169 -2.33354,-0.59692 -3.26993,-1.52711 -0.80376,-0.79844 -1.30589,-1.76336 -1.64874,-3.16834 -0.49626,-2.03363 -0.1879,-4.74125 0.78442,-6.88787 0.3353,-0.74024 1.12975,-1.86496 1.80828,-2.56002 l 0.635,-0.65046 1.016,-0.32682 c 0.95301,-0.30657 1.07899,-0.32658 2.032,-0.32275 2.11204,0.008 3.67041,0.7487 5.37915,2.55503 1.3879,1.46718 1.85768,2.6968 1.85921,4.8664 8.9e-4,1.25501 -0.14397,2.48164 -0.42284,3.58049 -0.23701,0.93392 -0.3536,1.2277 -0.88755,2.23644 -0.54865,1.03649 -1.43517,1.51615 -3.77893,2.04462 -1.15843,0.2612 -2.32657,0.31464 -3.50607,0.16039 z m 3.41925,-1.06335 c 1.93307,-0.43355 2.56855,-0.7538 3.19944,-1.61233 0.8231,-1.12009 1.40807,-4.43584 1.13332,-6.42395 -0.20492,-1.4828 -0.79375,-2.54754 -2.06502,-3.73405 -1.0909,-1.01817 -2.04738,-1.52809 -3.32476,-1.77249 -1.34868,-0.25805 -2.29252,-0.0828 -3.45752,0.64192 -0.91446,0.56887 -1.35598,1.0878 -1.90709,2.24147 -0.81887,1.71417 -1.13786,2.9164 -1.27008,4.78674 -0.0853,1.20702 -0.051,1.5691 0.24309,2.56098 0.24608,0.83005 0.60739,1.40395 1.28828,2.04626 0.84731,0.79932 1.57034,1.1212 2.95512,1.31557 1.51731,0.21297 2.07077,0.20432 3.20522,-0.0501 z m -2.40088,-0.26381 c -0.62452,-0.0869 -1.65,-0.39822 -2.09975,-0.63749 -1.07416,-0.57145 -1.17554,-1.35809 -0.29854,-2.31656 0.27971,-0.3057 0.5864,-0.50422 1.29762,-0.83995 1.64717,-0.77756 2.95291,-1.14031 4.8547,-1.34872 1.39009,-0.15233 1.7183,-0.10621 2.12284,0.29833 0.48332,0.48331 0.49145,1.0547 0.0295,2.06877 -0.61006,1.33907 -1.50472,2.04639 -3.3072,2.61471 -0.57701,0.18193 -0.84992,0.21935 -1.524,0.20893 -0.45163,-0.007 -0.93543,-0.0286 -1.07513,-0.048 z m -2.80229,-5.8599 c -1.21989,-0.19527 -1.63551,-0.54464 -1.7577,-1.47749 -0.0835,-0.6375 0.0856,-1.43558 0.52139,-2.46078 0.53037,-1.24769 0.96075,-1.69314 2.23855,-2.31688 1.31269,-0.64079 1.86435,-0.74746 3.22964,-0.62447 1.21794,0.10972 1.65741,0.26227 2.43674,0.84585 0.54473,0.40791 1.41232,1.29006 1.71391,1.74269 0.46291,0.69474 0.19611,1.52422 -0.72683,2.25977 -0.53761,0.42844 -2.03189,1.14787 -3.03308,1.46028 -1.61347,0.50348 -3.55013,0.74271 -4.62262,0.57103 z m -36.997096,-8.19256 c -0.12688,-0.22394 -0.27906,-0.48674 -0.33816,-0.58401 -0.0591,-0.0973 -0.39886,-0.82116 -0.75502,-1.60867 -0.35615,-0.7875 -0.74349,-1.59644 -0.86074,-1.79765 -0.42032,-0.72124 -2.12844,-6.11196 -2.82173,-8.90517 -0.22539,-0.90805 -0.48652,-1.8796 -0.5803,-2.159 -0.49543,-1.47602 -1.53008,-8.26377 -1.43479,-9.41285 0.0425,-0.51216 0.30301,-0.87415 0.62915,-0.87415 0.22558,0 1.62388,0.6058 2.61534,1.13307 2.84368,1.5123 6.88041,4.9316 10.23213,8.6671 0.55362,0.61701 1.05711,1.12183 1.11887,1.12183 0.0618,0 0.26671,0.20903 0.45544,0.4645 0.38781,0.52496 1.28964,1.44811 1.89251,1.93724 0.42602,0.34564 0.4902,0.58468 0.20499,0.76347 -0.11389,0.0714 -0.22841,0.0494 -0.508,-0.0977 -1.2089,-0.63589 -4.84067,-0.37586 -6.7707,0.48477 -0.41131,0.18341 -0.91394,0.55824 -0.91394,0.68156 0,0.12546 3.8713,1.35029 4.699,1.4867 0.96293,0.1587 0.95957,0.71273 -0.006,1.01167 -0.61142,0.18927 -2.26822,0.46447 -2.79627,0.46447 h -0.45725 v 0.28182 c 0,0.37652 -0.39554,0.95914 -1.04225,1.53521 -0.71861,0.64013 -0.4999,0.70823 0.58696,0.18278 0.90785,-0.43891 1.14867,-0.4754 1.33949,-0.20297 0.21824,0.31159 0.15889,0.74641 -0.20073,1.47056 -0.4691,0.94462 -1.17729,1.5781 -1.5445,1.38158 -0.28238,-0.15112 -0.18735,-0.4778 0.25844,-0.88844 0.40235,-0.37062 0.85891,-1.07711 0.75999,-1.17603 -0.0271,-0.0271 -0.32963,0.0852 -0.6724,0.24949 -0.6825,0.32707 -0.90126,0.35873 -1.24624,0.18033 -0.35086,-0.18143 -0.55298,-0.44999 -0.55298,-0.73474 0,-0.21178 0.13578,-0.39477 0.75494,-1.01746 0.82077,-0.82543 0.82777,-0.86668 0.16401,-0.96617 -0.69219,-0.10376 -0.80944,-0.14406 -0.89745,-0.30852 -0.0683,-0.1277 -0.0575,-0.21766 0.045,-0.37412 0.0742,-0.11329 0.14361,-0.20768 0.15418,-0.20975 0.0106,-0.002 0.69041,-0.0382 1.51075,-0.0802 0.82035,-0.0421 1.7538,-0.12242 2.07434,-0.17859 l 0.58275,-0.10216 -1.86267,-0.60817 c -1.02447,-0.33449 -1.98536,-0.67193 -2.13532,-0.74985 -0.54401,-0.28269 -0.56272,-0.67965 -0.0584,-1.23791 0.39193,-0.43382 0.8995,-0.72432 1.79356,-1.02653 1.14029,-0.38545 2.37775,-0.59903 3.81397,-0.6583 l 1.29717,-0.0535 -0.74684,-0.76254 c -0.41076,-0.4194 -1.42736,-1.51578 -2.25911,-2.43639 -2.0774,-2.29935 -4.01731,-4.09646 -6.23425,-5.77537 -2.32177,-1.7583 -5.16689,-3.26267 -5.16471,-2.73086 2.4e-4,0.0582 0.0764,0.88688 0.1693,1.8415 0.41324,4.24729 1.11165,7.81342 2.41262,12.319 0.63167,2.18761 1.47683,4.67781 1.82321,5.37196 0.17697,0.35465 0.55171,1.16456 0.83275,1.7998 0.28105,0.63524 0.70547,1.54253 0.94317,2.0162 0.47623,0.94898 0.50844,1.21121 0.15385,1.2522 -0.19275,0.0223 -0.26058,-0.0343 -0.45705,-0.381 z m 15.35182,-1.73666 c -0.42269,-0.11227 -0.78744,-0.46712 -0.90116,-0.87671 -0.12875,-0.46376 -0.12275,-2.26044 0.008,-2.39118 0.0559,-0.0559 0.17725,-0.1016 0.26971,-0.1016 0.0925,0 0.24886,-0.0759 0.34755,-0.16858 0.23124,-0.21723 1.31565,-0.49351 2.28681,-0.58262 1.13128,-0.10379 3.49875,0.11009 4.07419,0.36808 0.37859,0.16974 0.46442,0.25728 0.67733,0.69091 0.23128,0.47102 0.24381,0.55403 0.24381,1.6152 0,1.32107 -0.0309,1.37932 -0.78155,1.47306 -0.7392,0.0923 -5.85938,0.0705 -6.22468,-0.0266 z m 6.05373,-0.78916 c 0.12395,-0.0489 0.1471,-0.16422 0.14166,-0.70556 -0.008,-0.7977 -0.14029,-1.25992 -0.41701,-1.45726 -0.28161,-0.20082 -2.64686,-0.46083 -3.54848,-0.39007 -0.76017,0.0597 -1.85208,0.277 -2.27105,0.45206 l -0.29863,0.12477 0.0579,0.71391 c 0.0464,0.57208 0.16485,1.16118 0.24787,1.23295 0.15064,0.13024 5.76335,0.15716 6.08771,0.0292 z m 35.389676,0.70798 c -0.0577,-0.0577 -0.10484,-0.15341 -0.10484,-0.21277 0,-0.0594 0.30569,-0.59466 0.67931,-1.18957 1.03989,-1.65578 1.7932,-3.20388 2.15369,-4.42597 0.1717,-0.58209 0.3875,-1.27018 0.47957,-1.5291 0.28105,-0.79043 0.75238,-2.51529 1.01659,-3.72024 0.46613,-2.12588 1.11435,-6.62953 1.25894,-8.74676 0.0894,-1.30869 0.11187,-4.56251 0.0336,-4.85434 -0.0425,-0.15833 -0.0936,-0.17591 -0.40101,-0.13802 -1.34603,0.16588 -3.81381,1.72458 -6.59565,4.16595 -1.06504,0.93469 -1.83651,1.71271 -3.53208,3.5621 -0.53354,0.58194 -1.43367,1.55337 -2.0003,2.15874 -1.29967,1.38853 -1.59325,1.72994 -1.53642,1.78677 0.025,0.025 0.29227,-0.0308 0.59398,-0.12401 0.30171,-0.0932 1.24837,-0.27214 2.10368,-0.39768 1.4176,-0.20806 1.70113,-0.22391 3.20613,-0.17922 1.61497,0.0479 3.15326,0.22558 3.48338,0.40225 0.13954,0.0747 0.16148,0.16374 0.14019,0.56916 l -0.0252,0.48063 -0.65507,0.46789 c -0.36028,0.25734 -1.19848,0.76928 -1.86266,1.13764 -1.36299,0.75592 -2.12078,1.23695 -2.05393,1.3038 0.0249,0.0249 0.66362,0.0737 1.41944,0.10854 1.39384,0.0642 2.1298,0.20724 2.38628,0.46372 0.18163,0.18163 0.1636,0.50952 -0.0392,0.71228 l -0.17011,0.17011 0.27595,0.16922 c 0.15176,0.0931 0.48549,0.2453 0.7416,0.33829 0.66233,0.24046 0.71663,0.28205 0.74561,0.57112 0.0304,0.30293 -0.17822,0.5292 -0.93863,1.01816 -0.39135,0.25165 -0.47978,0.34857 -0.44155,0.484 0.0263,0.0931 0.10214,0.43603 0.16856,0.762 0.0664,0.32596 0.21476,0.87648 0.32966,1.22337 0.14968,0.45189 0.18578,0.67393 0.12732,0.78317 -0.11524,0.21532 -0.46882,0.19251 -0.62122,-0.0401 -0.15402,-0.23507 -0.56811,-1.59218 -0.62018,-2.03252 -0.0293,-0.24766 -0.0932,-0.3487 -0.2827,-0.44668 -0.30094,-0.15562 -0.3237,-0.44433 -0.0544,-0.68951 0.10478,-0.0954 0.40958,-0.31696 0.67734,-0.49241 0.26775,-0.17545 0.48609,-0.34218 0.48519,-0.37051 -8.9e-4,-0.0283 -0.29617,-0.20701 -0.65616,-0.39706 -0.7261,-0.38333 -1.0236,-0.75734 -0.8542,-1.07387 0.0602,-0.11241 0.0607,-0.1927 0.002,-0.25161 -0.0507,-0.0507 -0.81546,-0.10232 -1.84934,-0.12476 -0.96956,-0.021 -1.88695,-0.0763 -2.03865,-0.12284 -0.33099,-0.10152 -0.48629,-0.34154 -0.36619,-0.56594 0.13177,-0.24623 1.49545,-1.17093 2.95352,-2.00276 1.4821,-0.84555 2.38562,-1.41103 2.38675,-1.49378 10e-4,-0.10034 -0.23125,-0.14521 -1.28248,-0.24739 -1.96455,-0.19094 -4.57594,0.0273 -7.29724,0.60974 -1.39558,0.29872 -1.49884,0.27978 -1.28355,-0.23549 0.31158,-0.74571 0.6387,-1.13196 4.15773,-4.90926 2.80859,-3.01471 3.81057,-3.94599 6.08728,-5.65773 1.71256,-1.28758 2.98811,-1.97511 4.09098,-2.20506 0.35769,-0.0746 0.81476,-0.21066 1.01571,-0.3024 0.20094,-0.0917 0.39877,-0.14615 0.4396,-0.12091 0.10737,0.0664 0.15517,0.57535 0.20667,2.20094 0.0813,2.56642 -0.1442,5.42613 -0.71107,9.017 -0.136,0.86149 -0.28966,1.90924 -0.34148,2.32834 -0.14447,1.16847 -0.79898,3.55052 -1.77967,6.477 -0.78044,2.32887 -1.136,3.06649 -2.38754,4.953 -0.61757,0.93088 -0.8316,1.10706 -1.06336,0.87531 z m -19.47323,-0.0699 c -0.92631,-0.19842 -1.11624,-0.50328 -1.22225,-1.96185 l -0.0794,-1.0933 0.23854,-0.28944 c 0.2814,-0.34143 0.73359,-0.49911 1.84721,-0.64414 1.27289,-0.16577 4.42845,0.0385 4.85121,0.31401 0.39722,0.25888 0.52447,0.60699 0.52481,1.43572 3.8e-4,0.93406 -0.16411,1.53753 -0.51174,1.8774 -0.2502,0.24462 -0.28656,0.25297 -1.33308,0.30594 -2.13072,0.10785 -3.96137,0.13146 -4.31525,0.0557 z m 3.87439,-0.87591 1.22766,-0.0989 0.10106,-0.29633 c 0.0556,-0.16298 0.1032,-0.59255 0.10583,-0.9546 0.006,-0.78952 0.0621,-0.75169 -1.34989,-0.90654 -1.78135,-0.19537 -3.81478,-0.10016 -4.26984,0.19991 -0.13701,0.0903 -0.16063,0.19597 -0.1457,0.65169 0.0348,1.06318 0.0913,1.26867 0.38362,1.3959 0.33162,0.14433 2.21295,0.14855 3.94726,0.009 z"
       id="path1" /></g></svg>
