<?xml version="1.0" encoding="UTF-8" standalone="no"?>
<!-- Created with Inkscape (http://www.inkscape.org/) -->

<svg
   width="20.000025mm"
   height="23.607714mm"
   viewBox="0 0 20.000025 23.607714"
   version="1.1"
   id="svg1"
   xml:space="preserve"
   inkscape:version="1.4 (e7c3feb100, 2024-10-09)"
   sodipodi:docname="yippee.svg"
   xmlns:inkscape="http://www.inkscape.org/namespaces/inkscape"
   xmlns:sodipodi="http://sodipodi.sourceforge.net/DTD/sodipodi-0.dtd"
   xmlns="http://www.w3.org/2000/svg"
   xmlns:svg="http://www.w3.org/2000/svg"><sodipodi:namedview
     id="namedview1"
     pagecolor="#505050"
     bordercolor="#eeeeee"
     borderopacity="1"
     inkscape:showpageshadow="0"
     inkscape:pageopacity="0"
     inkscape:pagecheckerboard="0"
     inkscape:deskcolor="#505050"
     inkscape:document-units="mm"
     inkscape:zoom="8.0390572"
     inkscape:cx="41.54716"
     inkscape:cy="69.784302"
     inkscape:window-width="2560"
     inkscape:window-height="1337"
     inkscape:window-x="0"
     inkscape:window-y="0"
     inkscape:window-maximized="1"
     inkscape:current-layer="layer1" /><defs
     id="defs1" /><g
     inkscape:label="Layer 1"
     inkscape:groupmode="layer"
     id="layer1"
     transform="translate(-20.000016,-42.778972)"><path
       style="fill:#000000;stroke-width:0.13577"
       d="m 27.837791,66.045676 c -0.731185,-0.795666 -0.859097,-1.915214 -1.18244,-2.883557 -0.315178,-0.946585 -0.409793,-1.951304 -0.399615,-2.961394 -0.161354,-0.865337 0.589177,-2.16032 -0.725047,-2.084937 -0.852057,-0.169679 -1.444931,-0.989358 -2.213582,-1.418935 -0.842667,-0.592807 -1.598708,-1.209335 -2.192301,-2.018657 -0.549673,-0.513552 -1.581262,-1.589033 -0.870445,-2.261796 0.259311,-0.969169 0.04454,-2.065718 0.131773,-3.084026 0.232969,-1.013113 0.733749,-1.951647 1.113463,-2.919509 0.524761,-0.858738 1.308788,-1.511984 2.16223,-2.001498 0.656013,-0.415988 1.349257,-0.770337 2.096102,-0.912363 0.737322,-0.336477 1.521343,-0.49526 2.346533,-0.526413 1.135735,-0.30823 2.379952,-0.167992 3.563626,-0.170366 0.923553,0.06122 1.717025,0.437656 2.557308,0.736459 0.697752,0.375779 1.413697,0.723111 2.036616,1.218259 0.910097,0.654573 1.576538,1.600871 2.124224,2.559858 0.530075,0.843064 0.761983,1.837755 0.881695,2.816015 -0.03225,1.036588 0.198668,2.167672 -0.301418,3.119496 -0.333826,0.91318 -0.945031,1.724927 -1.734897,2.319954 -0.421466,0.306129 -2.265875,1.218842 -0.774867,1.153399 0.988469,-0.02254 2.232044,-0.140923 2.845198,0.727791 0.915946,1.039688 0.658715,2.500937 0.691459,3.77956 0.0081,1.116296 -0.589136,2.100963 -0.723209,3.18733 -0.187141,0.927832 -1.964324,1.325762 -2.275206,0.332727 -0.391283,-0.997539 -0.313611,-2.087877 -0.670917,-3.086508 -0.772065,-0.347834 -0.300517,1.331313 -0.432123,1.859823 0.452536,1.240644 -1.222945,1.883615 -1.907183,1.072693 -0.141795,0.907668 -0.609779,2.108532 -1.772806,1.459496 -0.904445,-0.323646 -1.196336,-1.403529 -1.402457,-2.231168 -0.09786,-0.316489 -0.147867,-1.583257 -0.26275,-0.612797 -0.01402,1.034121 0.07911,2.377674 -0.960984,2.956498 -0.536954,0.282211 -1.28878,0.332699 -1.74798,-0.125434 z m 1.761288,-0.421229 c 0.775088,-0.729562 0.537679,-1.913467 0.58405,-2.886052 0.04947,-0.445318 0.166937,-2.153104 0.711221,-1.274169 0.08953,1.119491 0.176859,2.258804 0.705559,3.268386 -0.108395,1.138122 1.890702,1.432635 1.907553,0.187399 0.06625,-0.92281 0.301788,-1.814804 0.278521,-2.757414 -0.01783,-1.082202 1.545185,-1.090748 2.355285,-0.95871 1.114467,0.278097 0.638919,1.627327 1.004704,2.415881 -0.193819,1.155825 1.117262,1.790655 1.738679,0.697939 0.280762,-0.97717 0.490826,-1.965066 0.770112,-2.935231 -0.02087,-1.100686 0.166149,-2.278068 -0.438518,-3.248736 -0.407623,-0.966323 -1.54348,-1.154063 -2.483736,-1.091592 -0.99597,0.0317 -2.067041,-0.105977 -2.968272,0.361036 -0.813741,0.158424 -1.647422,0.269729 -2.485805,0.366396 -0.739922,0.167141 -1.492724,0.392657 -2.301772,0.353982 -0.77381,0.275563 -2.264473,-0.262496 -2.348212,0.861464 -0.101638,1.199548 -0.07852,2.43257 0.296484,3.562131 0.327661,0.988567 0.449619,2.055183 0.954886,2.978818 0.406898,0.519015 1.256612,0.572665 1.719261,0.09847 z m 5.58175,-1.123437 c 0.675109,-0.737913 0.41172,-2.086895 0.251238,-2.961954 -0.784213,0.01498 -1.666169,0.191704 -1.334207,1.237146 -0.06508,0.617208 0.12928,2.212774 1.082969,1.724808 z m -7.143054,-6.613228 c 0.97206,-0.155066 2.014679,-0.11807 2.957575,-0.434377 0.892498,-0.103003 1.77766,-0.215212 2.649497,-0.412621 0.83412,-0.36342 1.669662,-0.658334 2.429739,-1.206075 0.734807,-0.558937 1.570447,-1.091318 2.044882,-1.926658 0.9519,-1.097436 0.919084,-2.624127 0.784341,-3.990134 -0.273197,-1.014556 -0.559425,-2.036578 -1.21684,-2.894891 -0.576736,-0.769775 -1.165151,-1.580119 -1.973149,-2.134267 -0.555999,-0.442588 -1.244078,-0.65102 -1.84766,-1.026767 -0.943279,-0.369407 -1.871652,-0.804223 -2.932012,-0.756802 -0.9529,-0.06492 -1.890096,0.08126 -2.812848,0.192557 -1.003552,0.07334 -1.8703,0.419544 -2.825097,0.746834 -0.746972,0.39191 -1.517244,0.69094 -2.163116,1.241528 -0.911897,0.694667 -1.502295,1.682021 -1.88731,2.742975 -0.497008,0.94059 -0.612797,1.97191 -0.538396,3.029071 0.119569,0.73726 -0.135807,1.421544 -0.265854,1.906882 0.425432,0.976336 1.093392,1.569635 1.808696,2.332993 0.777951,0.664503 1.622437,1.235945 2.423336,1.869387 0.810391,0.659282 1.78064,0.857554 2.830051,0.811794 0.17381,-0.01794 0.397962,0.05183 0.534165,-0.09143 z m 0.786084,-2.670936 c 0.257168,-0.613213 1.709216,-0.211752 2.400519,-0.188033 -0.251283,0.511065 -1.778955,0.125213 -2.400519,0.188033 z m -3.649923,-2.381704 c -0.980427,-0.258133 -1.259957,-1.322058 -1.40785,-2.189937 0.413385,-0.970945 0.838377,-2.141144 2.137027,-1.994366 0.991731,-0.186335 2.004656,0.253597 2.437556,1.168823 0.416922,0.973986 0.334213,2.238926 -0.664868,2.836448 -0.71756,0.461025 -1.702665,0.290605 -2.501865,0.179032 z m 0.545881,-2.279246 c 0.859818,-0.67469 0.0023,-1.859189 -0.671551,-0.741209 -0.372085,0.729442 -0.153129,1.079217 0.671551,0.741209 z m 6.153091,2.009872 c -0.724687,-0.788587 -0.941382,-2.16297 -0.176295,-3.000089 0.427022,-1.036254 1.536004,-1.17762 2.512884,-1.057755 0.980807,0.03695 1.716167,1.133854 1.691697,2.075825 0.223022,1.17268 -0.810758,2.057464 -1.873544,2.161456 -0.709659,0.04953 -1.485834,0.09468 -2.154742,-0.179437 z m 1.586746,-2.08301 c 0.637114,-0.698077 -0.427454,-1.701494 -0.770971,-0.665059 -0.774512,0.610069 0.285214,1.113698 0.770971,0.665059 z"
       id="path1" /></g></svg>
