M48
; DRILL file {KiCad 8.0.6} date 2024-10-30T23:15:19-0400
; FORMAT={-:-/ absolute / inch / decimal}
; #@! TF.CreationDate,2024-10-30T23:15:19-04:00
; #@! TF.GenerationSoftware,Kicad,Pcbnew,8.0.6
; #@! TF.FileFunction,Plated,1,4,PTH
FMAT,2
INCH
; #@! TA.AperFunction,Plated,PTH,ViaDrill
T1C0.0118
; #@! TA.AperFunction,Plated,PTH,ComponentDrill
T2C0.0118
; #@! TA.AperFunction,Plated,PTH,ViaDrill
T3C0.0197
; #@! TA.AperFunction,Plated,PTH,ViaDrill
T4C0.0236
; #@! TA.AperFunction,Plated,PTH,ComponentDrill
T5C0.0236
; #@! TA.AperFunction,Plated,PTH,ComponentDrill
T6C0.0394
; #@! TA.AperFunction,Plated,PTH,ViaDrill
T7C0.0472
; #@! TA.AperFunction,Plated,PTH,ComponentDrill
T8C0.0591
%
G90
G05
T1
X2.1654Y-1.5748
X2.2441Y-1.5945
X2.3622Y-1.4764
X2.815Y-1.6073
X2.815Y-2.2333
X2.9921Y-2.0079
X3.0709Y-1.6748
X3.1102Y-1.3583
X3.1102Y-2.126
X3.1299Y-1.6339
X3.1693Y-1.8898
X3.2067Y-1.8524
X3.2126Y-1.4173
X3.2283Y-1.7248
X3.2677Y-2.3622
X3.2965Y-2.1872
X3.3102Y-1.7748
X3.4646Y-2.6378
X3.5039Y-2.5197
X3.6024Y-1.3189
X3.7992Y-1.378
X3.8386Y-1.7717
X3.9764Y-2.4016
X4.252Y-3.1078
X4.2913Y-1.7126
X4.3307Y-2.7165
X4.4488Y-2.7559
X4.4685Y-1.7126
X4.5472Y-2.2244
X4.6063Y-3.189
X5.5512Y-2.6378
X5.6693Y-2.4016
X5.748Y-2.2835
X5.8661Y-2.126
X5.9843Y-2.0079
X6.1024Y-1.8898
X6.3791Y-3.2665
X6.8898Y-2.2441
X6.8898Y-2.3228
X6.8898Y-2.4016
X6.8898Y-2.4803
X6.8898Y-2.5591
X6.8898Y-2.6378
X6.9488Y-2.4016
X6.9685Y-2.4409
X7.0866Y-2.478
X7.1949Y-3.1693
X7.2441Y-2.3622
X7.2835Y-2.6181
X7.2835Y-2.7165
X7.3622Y-1.7323
X7.5591Y-1.8307
T2
X3.2362Y-1.5512
X3.2362Y-1.6063
X3.2638Y-1.5236
X3.2638Y-1.5787
X3.2638Y-1.6339
X3.2913Y-1.5512
X3.2913Y-1.6063
X3.3189Y-1.5236
X3.3189Y-1.5787
X3.3189Y-1.6339
X3.3465Y-1.5512
X3.3465Y-1.6063
T3
X2.4409Y-3.5827
X2.6181Y-1.7549
X2.6841Y-1.627
X2.874Y-1.3248
X4.1142Y-1.5945
X4.1142Y-1.7126
X4.1142Y-1.8307
X6.3386Y-3.3661
X6.5354Y-3.5039
X6.5748Y-3.4449
X6.6535Y-3.9783
X6.8504Y-3.4646
T4
X2.9528Y-3.937
X6.2402Y-3.6024
X7.0669Y-3.0709
T6
X2.5098Y-3.1102
X2.5098Y-3.189
X2.5098Y-3.2677
X2.6083Y-3.1102
X2.6083Y-3.189
X2.6083Y-3.2677
X2.9528Y-3.3465
X2.9528Y-3.7402
X4.1276Y-2.874
X4.1594Y-1.3583
X4.2276Y-2.874
X4.2594Y-1.3583
X4.3276Y-2.874
X4.3594Y-1.3583
X4.4276Y-2.874
X4.4594Y-1.3583
X4.5276Y-2.874
X4.5594Y-1.3583
X4.6276Y-2.874
X4.6594Y-1.3583
X4.7276Y-2.874
X4.8276Y-2.874
X4.9276Y-2.874
X5.2362Y-2.0079
X5.2362Y-2.2835
X5.2362Y-2.5197
X5.4331Y-1.8898
X5.4331Y-2.126
X5.4331Y-2.4016
X5.4331Y-2.6378
X6.9291Y-3.3661
X6.9291Y-3.6614
X7.0866Y-3.9764
X7.3425Y-2.0472
X7.4606Y-1.8701
X7.5591Y-3.1496
X7.5591Y-3.9764
T7
X1.6535Y-4.6063
X1.9528Y-1.6083
X2.2835Y-3.7402
X2.4409Y-3.4252
X2.4508Y-3.0512
X6.2205Y-3.878
T8
X5.2559Y-1.2948
X5.4528Y-1.2948
X5.8858Y-1.2948
X6.0827Y-1.2948
X6.5157Y-1.2948
X6.7126Y-1.2948
T5
G00X1.826Y-1.3356
M15
G01X1.826Y-1.2884
M16
G05
G00X1.826Y-1.4852
M15
G01X1.826Y-1.4537
M16
G05
G00X2.2685Y-1.3356
M15
G01X2.2685Y-1.2884
M16
G05
G00X2.2685Y-1.4852
M15
G01X2.2685Y-1.4537
M16
G05
M30
