%TF.GenerationSoftware,KiCad,Pcbnew,8.0.6*%
%TF.CreationDate,2024-10-30T23:15:20-04:00*%
%TF.ProjectId,live-caption-badge,6c697665-2d63-4617-9074-696f6e2d6261,rev?*%
%TF.SameCoordinates,Original*%
%TF.FileFunction,Soldermask,Bot*%
%TF.FilePolarity,Negative*%
%FSLAX46Y46*%
G04 Gerber Fmt 4.6, Leading zero omitted, Abs format (unit mm)*
G04 Created by KiCad (PCBNEW 8.0.6) date 2024-10-30 23:15:20*
%MOMM*%
%LPD*%
G01*
G04 APERTURE LIST*
G04 Aperture macros list*
%AMRoundRect*
0 Rectangle with rounded corners*
0 $1 Rounding radius*
0 $2 $3 $4 $5 $6 $7 $8 $9 X,Y pos of 4 corners*
0 Add a 4 corners polygon primitive as box body*
4,1,4,$2,$3,$4,$5,$6,$7,$8,$9,$2,$3,0*
0 Add four circle primitives for the rounded corners*
1,1,$1+$1,$2,$3*
1,1,$1+$1,$4,$5*
1,1,$1+$1,$6,$7*
1,1,$1+$1,$8,$9*
0 Add four rect primitives between the rounded corners*
20,1,$1+$1,$2,$3,$4,$5,0*
20,1,$1+$1,$4,$5,$6,$7,0*
20,1,$1+$1,$6,$7,$8,$9,0*
20,1,$1+$1,$8,$9,$2,$3,0*%
G04 Aperture macros list end*
%ADD10C,2.400000*%
%ADD11C,3.000000*%
%ADD12O,1.000000X1.800000*%
%ADD13O,1.000000X2.200000*%
%ADD14R,1.700000X1.700000*%
%ADD15O,1.700000X1.700000*%
%ADD16C,3.200000*%
%ADD17C,1.500000*%
%ADD18C,1.600000*%
%ADD19RoundRect,0.285714X0.514286X-0.514286X0.514286X0.514286X-0.514286X0.514286X-0.514286X-0.514286X0*%
%ADD20O,2.600000X1.600000*%
G04 APERTURE END LIST*
D10*
%TO.C,BT1*%
X34000000Y-120840000D03*
%TD*%
D11*
%TO.C,REF\u002A\u002A*%
X164000000Y-116500000D03*
%TD*%
%TO.C,REF\u002A\u002A*%
X195000000Y-70000000D03*
%TD*%
%TO.C,REF\u002A\u002A*%
X123500000Y-34000000D03*
%TD*%
%TO.C,REF\u002A\u002A*%
X86000000Y-116500000D03*
%TD*%
%TO.C,REF\u002A\u002A*%
X144000000Y-116500000D03*
%TD*%
%TO.C,REF\u002A\u002A*%
X135000000Y-88000000D03*
%TD*%
%TO.C,REF\u002A\u002A*%
X95000000Y-88000000D03*
%TD*%
%TO.C,REF\u002A\u002A*%
X195000000Y-116500000D03*
%TD*%
%TO.C,REF\u002A\u002A*%
X164000000Y-70000000D03*
%TD*%
%TO.C,REF\u002A\u002A*%
X195000000Y-43000000D03*
%TD*%
%TO.C,REF\u002A\u002A*%
X42000000Y-35000000D03*
%TD*%
%TO.C,REF\u002A\u002A*%
X35000000Y-110000000D03*
%TD*%
D12*
%TO.C,J5*%
X57620000Y-37325000D03*
D13*
X57620000Y-33325000D03*
D12*
X46380000Y-37325000D03*
D13*
X46380000Y-33325000D03*
%TD*%
D14*
%TO.C,J2*%
X105650000Y-34500000D03*
D15*
X108190000Y-34500000D03*
X110730000Y-34500000D03*
X113270000Y-34500000D03*
X115810000Y-34500000D03*
X118350000Y-34500000D03*
%TD*%
D16*
%TO.C,REF\u002A\u002A*%
X143964466Y-102482233D03*
%TD*%
D14*
%TO.C,TP12*%
X176000000Y-93000000D03*
%TD*%
D16*
%TO.C,REF\u002A\u002A*%
X85964466Y-125446700D03*
%TD*%
D14*
%TO.C,TP2*%
X75000000Y-85000000D03*
%TD*%
D16*
%TO.C,REF\u002A\u002A*%
X195000000Y-124964500D03*
%TD*%
D14*
%TO.C,TP15*%
X189500000Y-47500000D03*
%TD*%
%TO.C,TP6*%
X138000000Y-61000000D03*
%TD*%
D11*
%TO.C,SW4*%
X154500000Y-32887500D03*
X149500000Y-32887500D03*
%TD*%
D14*
%TO.C,TP8*%
X138000000Y-67000000D03*
%TD*%
D11*
%TO.C,SW5*%
X138500000Y-32887500D03*
X133500000Y-32887500D03*
%TD*%
D14*
%TO.C,TP14*%
X186500000Y-52000000D03*
%TD*%
%TO.C,TP9*%
X138000000Y-48000000D03*
%TD*%
D17*
%TO.C,J4*%
X184000000Y-34100000D03*
X184000000Y-41100000D03*
%TD*%
D14*
%TO.C,TP4*%
X138000000Y-54000000D03*
%TD*%
D16*
%TO.C,REF\u002A\u002A*%
X195000000Y-34964500D03*
%TD*%
D14*
%TO.C,TP5*%
X133000000Y-58000000D03*
%TD*%
D16*
%TO.C,REF\u002A\u002A*%
X35035530Y-35035530D03*
%TD*%
D14*
%TO.C,TP10*%
X133000000Y-51000000D03*
%TD*%
%TO.C,TP7*%
X133000000Y-64000000D03*
%TD*%
D11*
%TO.C,SW3*%
X170500000Y-32887500D03*
X165500000Y-32887500D03*
%TD*%
D16*
%TO.C,REF\u002A\u002A*%
X57500000Y-125446700D03*
%TD*%
%TO.C,REF\u002A\u002A*%
X85964466Y-102482233D03*
%TD*%
D14*
%TO.C,TP1*%
X75000000Y-95000000D03*
%TD*%
D18*
%TO.C,SW1*%
X66250000Y-83000000D03*
X66250000Y-81000000D03*
X66250000Y-79000000D03*
X63750000Y-79000000D03*
X63750000Y-81000000D03*
D19*
X63750000Y-83000000D03*
D20*
X65000000Y-76900000D03*
X65000000Y-85100000D03*
%TD*%
D14*
%TO.C,TP13*%
X176000000Y-85500000D03*
%TD*%
%TO.C,J3*%
X104840000Y-73000000D03*
D15*
X107380000Y-73000000D03*
X109920000Y-73000000D03*
X112460000Y-73000000D03*
X115000000Y-73000000D03*
X117540000Y-73000000D03*
X120080000Y-73000000D03*
X122620000Y-73000000D03*
X125160000Y-73000000D03*
%TD*%
D16*
%TO.C,REF\u002A\u002A*%
X143964466Y-125446700D03*
%TD*%
D14*
%TO.C,TP3*%
X180000000Y-101000000D03*
%TD*%
%TO.C,TP16*%
X192000000Y-80000000D03*
%TD*%
%TO.C,TP11*%
X192000000Y-101000000D03*
%TD*%
M02*
