%TF.GenerationSoftware,KiCad,Pcbnew,8.0.6*%
%TF.CreationDate,2024-11-25T17:46:05-05:00*%
%TF.ProjectId,live-caption-badge,6c697665-2d63-4617-9074-696f6e2d6261,2*%
%TF.SameCoordinates,Original*%
%TF.FileFunction,Profile,NP*%
%FSLAX46Y46*%
G04 Gerber Fmt 4.6, Leading zero omitted, Abs format (unit mm)*
G04 Created by KiCad (PCBNEW 8.0.6) date 2024-11-25 17:46:05*
%MOMM*%
%LPD*%
G01*
G04 APERTURE LIST*
%TA.AperFunction,Profile*%
%ADD10C,0.200000*%
%TD*%
%TA.AperFunction,Profile*%
%ADD11C,0.050000*%
%TD*%
G04 APERTURE END LIST*
D10*
X48380000Y-36500000D02*
G75*
G02*
X47380000Y-36500000I-500000J0D01*
G01*
X55620000Y-36500000D02*
X48380000Y-36500000D01*
X56620000Y-30000000D02*
X56620000Y-36500000D01*
X56620000Y-36500000D02*
G75*
G02*
X55620000Y-36500000I-500000J0D01*
G01*
X35000000Y-135035534D02*
X195000000Y-135000000D01*
X35000000Y-30000000D02*
X47380000Y-30000000D01*
X47380000Y-30000000D02*
X47380000Y-36500000D01*
X30000000Y-35000000D02*
G75*
G02*
X35000000Y-30000000I5035530J-35530D01*
G01*
X30000000Y-35000000D02*
X30000000Y-130035534D01*
X200000000Y-34964466D02*
X200000000Y-130000000D01*
X35000000Y-135035534D02*
G75*
G02*
X29999966Y-130035534I0J5000034D01*
G01*
X200000000Y-130000000D02*
G75*
G02*
X195000000Y-135000000I-4999900J-100D01*
G01*
X195000000Y-29964466D02*
G75*
G02*
X200000034Y-34964466I0J-5000034D01*
G01*
X56620000Y-30000000D02*
X195000000Y-29964466D01*
%TO.C,SW4*%
D11*
X147500000Y-34487500D02*
X146200000Y-34487500D01*
X146200000Y-36787500D01*
X147500000Y-36787500D01*
X147500000Y-34487500D01*
X157800000Y-34487500D02*
X156500000Y-34487500D01*
X156500000Y-36787500D01*
X157800000Y-36787500D01*
X157800000Y-34487500D01*
%TO.C,SW5*%
X131500000Y-34487500D02*
X130200000Y-34487500D01*
X130200000Y-36787500D01*
X131500000Y-36787500D01*
X131500000Y-34487500D01*
X141800000Y-34487500D02*
X140500000Y-34487500D01*
X140500000Y-36787500D01*
X141800000Y-36787500D01*
X141800000Y-34487500D01*
%TO.C,SW3*%
X163500000Y-34487500D02*
X162200000Y-34487500D01*
X162200000Y-36787500D01*
X163500000Y-36787500D01*
X163500000Y-34487500D01*
X173800000Y-34487500D02*
X172500000Y-34487500D01*
X172500000Y-36787500D01*
X173800000Y-36787500D01*
X173800000Y-34487500D01*
%TD*%
M02*
