%TF.GenerationSoftware,KiCad,Pcbnew,8.0.6*%
%TF.CreationDate,2024-11-25T17:46:05-05:00*%
%TF.ProjectId,live-caption-badge,6c697665-2d63-4617-9074-696f6e2d6261,2*%
%TF.SameCoordinates,Original*%
%TF.FileFunction,Soldermask,Top*%
%TF.FilePolarity,Negative*%
%FSLAX46Y46*%
G04 Gerber Fmt 4.6, Leading zero omitted, Abs format (unit mm)*
G04 Created by KiCad (PCBNEW 8.0.6) date 2024-11-25 17:46:05*
%MOMM*%
%LPD*%
G01*
G04 APERTURE LIST*
G04 Aperture macros list*
%AMRoundRect*
0 Rectangle with rounded corners*
0 $1 Rounding radius*
0 $2 $3 $4 $5 $6 $7 $8 $9 X,Y pos of 4 corners*
0 Add a 4 corners polygon primitive as box body*
4,1,4,$2,$3,$4,$5,$6,$7,$8,$9,$2,$3,0*
0 Add four circle primitives for the rounded corners*
1,1,$1+$1,$2,$3*
1,1,$1+$1,$4,$5*
1,1,$1+$1,$6,$7*
1,1,$1+$1,$8,$9*
0 Add four rect primitives between the rounded corners*
20,1,$1+$1,$2,$3,$4,$5,0*
20,1,$1+$1,$4,$5,$6,$7,0*
20,1,$1+$1,$6,$7,$8,$9,0*
20,1,$1+$1,$8,$9,$2,$3,0*%
G04 Aperture macros list end*
%ADD10RoundRect,0.225000X-0.225000X-0.250000X0.225000X-0.250000X0.225000X0.250000X-0.225000X0.250000X0*%
%ADD11RoundRect,0.200000X0.200000X0.275000X-0.200000X0.275000X-0.200000X-0.275000X0.200000X-0.275000X0*%
%ADD12R,1.700000X1.700000*%
%ADD13O,1.700000X1.700000*%
%ADD14C,2.400000*%
%ADD15R,7.000000X8.000000*%
%ADD16RoundRect,0.225000X-0.250000X0.225000X-0.250000X-0.225000X0.250000X-0.225000X0.250000X0.225000X0*%
%ADD17RoundRect,0.225000X0.375000X-0.225000X0.375000X0.225000X-0.375000X0.225000X-0.375000X-0.225000X0*%
%ADD18C,3.200000*%
%ADD19RoundRect,0.225000X0.225000X0.250000X-0.225000X0.250000X-0.225000X-0.250000X0.225000X-0.250000X0*%
%ADD20C,3.000000*%
%ADD21RoundRect,0.200000X-0.200000X-0.275000X0.200000X-0.275000X0.200000X0.275000X-0.200000X0.275000X0*%
%ADD22RoundRect,0.225000X0.250000X-0.225000X0.250000X0.225000X-0.250000X0.225000X-0.250000X-0.225000X0*%
%ADD23RoundRect,0.150000X0.587500X0.150000X-0.587500X0.150000X-0.587500X-0.150000X0.587500X-0.150000X0*%
%ADD24RoundRect,0.050000X-0.300000X-0.050000X0.300000X-0.050000X0.300000X0.050000X-0.300000X0.050000X0*%
%ADD25RoundRect,0.050000X-0.050000X-0.300000X0.050000X-0.300000X0.050000X0.300000X-0.050000X0.300000X0*%
%ADD26R,2.900000X2.900000*%
%ADD27RoundRect,0.100000X-0.712500X-0.100000X0.712500X-0.100000X0.712500X0.100000X-0.712500X0.100000X0*%
%ADD28C,1.500000*%
%ADD29R,2.500000X1.200000*%
%ADD30R,2.150000X5.500000*%
%ADD31RoundRect,0.050000X-0.375000X-0.050000X0.375000X-0.050000X0.375000X0.050000X-0.375000X0.050000X0*%
%ADD32RoundRect,0.050000X-0.050000X-0.375000X0.050000X-0.375000X0.050000X0.375000X-0.050000X0.375000X0*%
%ADD33R,1.650000X1.650000*%
%ADD34R,1.500000X0.900000*%
%ADD35R,0.900000X1.500000*%
%ADD36C,0.600000*%
%ADD37R,3.900000X3.900000*%
%ADD38RoundRect,0.225000X-0.375000X0.225000X-0.375000X-0.225000X0.375000X-0.225000X0.375000X0.225000X0*%
%ADD39R,1.600000X1.600000*%
%ADD40C,1.600000*%
%ADD41R,0.300000X1.100000*%
%ADD42O,1.000000X1.800000*%
%ADD43O,1.000000X2.200000*%
%ADD44RoundRect,0.375000X0.875000X0.375000X-0.875000X0.375000X-0.875000X-0.375000X0.875000X-0.375000X0*%
%ADD45RoundRect,0.362500X0.887500X0.362500X-0.887500X0.362500X-0.887500X-0.362500X0.887500X-0.362500X0*%
%ADD46RoundRect,0.218750X0.218750X0.256250X-0.218750X0.256250X-0.218750X-0.256250X0.218750X-0.256250X0*%
%ADD47O,2.600000X1.600000*%
%ADD48RoundRect,0.285714X0.514286X-0.514286X0.514286X0.514286X-0.514286X0.514286X-0.514286X-0.514286X0*%
%ADD49RoundRect,0.150000X-0.512500X-0.150000X0.512500X-0.150000X0.512500X0.150000X-0.512500X0.150000X0*%
%ADD50RoundRect,0.112500X-0.112500X-0.237500X0.112500X-0.237500X0.112500X0.237500X-0.112500X0.237500X0*%
%ADD51RoundRect,0.200000X0.275000X-0.200000X0.275000X0.200000X-0.275000X0.200000X-0.275000X-0.200000X0*%
%ADD52R,0.300000X1.300000*%
%ADD53R,2.000000X2.000000*%
G04 APERTURE END LIST*
D10*
%TO.C,C46*%
X124225000Y-114000000D03*
X125775000Y-114000000D03*
%TD*%
D11*
%TO.C,R6*%
X69825000Y-91000000D03*
X68175000Y-91000000D03*
%TD*%
D12*
%TO.C,J2*%
X80000000Y-75000000D03*
D13*
X82540000Y-75000000D03*
X85080000Y-75000000D03*
X87620000Y-75000000D03*
X90160000Y-75000000D03*
X92700000Y-75000000D03*
%TD*%
D14*
%TO.C,BT1*%
X34000000Y-120840000D03*
D15*
X42000000Y-124000000D03*
X42000000Y-46000000D03*
%TD*%
D12*
%TO.C,TP12*%
X176000000Y-93000000D03*
%TD*%
D16*
%TO.C,C10*%
X172000000Y-101225000D03*
X172000000Y-102775000D03*
%TD*%
D17*
%TO.C,D4*%
X100000000Y-114650000D03*
X100000000Y-111350000D03*
%TD*%
D12*
%TO.C,TP2*%
X75000000Y-85000000D03*
%TD*%
D10*
%TO.C,C12*%
X100725000Y-43000000D03*
X102275000Y-43000000D03*
%TD*%
D18*
%TO.C,REF\u002A\u002A*%
X195000000Y-130017800D03*
%TD*%
D12*
%TO.C,TP15*%
X189500000Y-47500000D03*
%TD*%
D10*
%TO.C,C28*%
X186225000Y-62000000D03*
X187775000Y-62000000D03*
%TD*%
D19*
%TO.C,C4*%
X64775000Y-40000000D03*
X63225000Y-40000000D03*
%TD*%
%TO.C,C39*%
X105775000Y-119000000D03*
X104225000Y-119000000D03*
%TD*%
%TO.C,C2*%
X70000000Y-34000000D03*
X68450000Y-34000000D03*
%TD*%
%TO.C,C41*%
X95775000Y-119000000D03*
X94225000Y-119000000D03*
%TD*%
D20*
%TO.C,REF\u002A\u002A*%
X42000000Y-35000000D03*
%TD*%
D12*
%TO.C,TP6*%
X138000000Y-61000000D03*
%TD*%
D10*
%TO.C,C32*%
X181225000Y-78000000D03*
X182775000Y-78000000D03*
%TD*%
D20*
%TO.C,SW4*%
X154500000Y-32887500D03*
X149500000Y-32887500D03*
%TD*%
D16*
%TO.C,C18*%
X180000000Y-66225000D03*
X180000000Y-67775000D03*
%TD*%
%TO.C,C15*%
X164000000Y-91225000D03*
X164000000Y-92775000D03*
%TD*%
D21*
%TO.C,R1*%
X68175000Y-40000000D03*
X69825000Y-40000000D03*
%TD*%
D12*
%TO.C,TP8*%
X138000000Y-67000000D03*
%TD*%
D22*
%TO.C,C26*%
X167000000Y-79275000D03*
X167000000Y-77725000D03*
%TD*%
D10*
%TO.C,C38*%
X124225000Y-117000000D03*
X125775000Y-117000000D03*
%TD*%
D20*
%TO.C,SW5*%
X138500000Y-32887500D03*
X133500000Y-32887500D03*
%TD*%
%TO.C,REF\u002A\u002A*%
X195000000Y-116500000D03*
%TD*%
D21*
%TO.C,R3*%
X63175000Y-43000000D03*
X64825000Y-43000000D03*
%TD*%
D12*
%TO.C,TP14*%
X186500000Y-52000000D03*
%TD*%
D21*
%TO.C,R16*%
X73175000Y-72000000D03*
X74825000Y-72000000D03*
%TD*%
D23*
%TO.C,Q2*%
X110937500Y-47950000D03*
X110937500Y-46050000D03*
X109062500Y-47000000D03*
%TD*%
D12*
%TO.C,TP9*%
X138000000Y-48000000D03*
%TD*%
D21*
%TO.C,R14*%
X68175000Y-48500000D03*
X69825000Y-48500000D03*
%TD*%
D10*
%TO.C,C23*%
X170225000Y-84000000D03*
X171775000Y-84000000D03*
%TD*%
D24*
%TO.C,U4*%
X178000000Y-58600000D03*
X178000000Y-59000000D03*
X178000000Y-59400000D03*
X178000000Y-59800000D03*
X178000000Y-60200000D03*
X178000000Y-60600000D03*
X178000000Y-61000000D03*
X178000000Y-61400000D03*
D25*
X178600000Y-62000000D03*
X179000000Y-62000000D03*
X179400000Y-62000000D03*
X179800000Y-62000000D03*
X180200000Y-62000000D03*
X180600000Y-62000000D03*
X181000000Y-62000000D03*
X181400000Y-62000000D03*
D24*
X182000000Y-61400000D03*
X182000000Y-61000000D03*
X182000000Y-60600000D03*
X182000000Y-60200000D03*
X182000000Y-59800000D03*
X182000000Y-59400000D03*
X182000000Y-59000000D03*
X182000000Y-58600000D03*
D25*
X181400000Y-58000000D03*
X181000000Y-58000000D03*
X180600000Y-58000000D03*
X180200000Y-58000000D03*
X179800000Y-58000000D03*
X179400000Y-58000000D03*
X179000000Y-58000000D03*
X178600000Y-58000000D03*
D26*
X180000000Y-60000000D03*
%TD*%
D19*
%TO.C,C44*%
X100775000Y-125000000D03*
X99225000Y-125000000D03*
%TD*%
D22*
%TO.C,C30*%
X177000000Y-53775000D03*
X177000000Y-52225000D03*
%TD*%
D27*
%TO.C,U6*%
X181887500Y-83025000D03*
X181887500Y-83675000D03*
X181887500Y-84325000D03*
X181887500Y-84975000D03*
X186112500Y-84975000D03*
X186112500Y-84325000D03*
X186112500Y-83675000D03*
X186112500Y-83025000D03*
%TD*%
D16*
%TO.C,C17*%
X183000000Y-66225000D03*
X183000000Y-67775000D03*
%TD*%
D28*
%TO.C,J4*%
X184000000Y-34100000D03*
X184000000Y-41100000D03*
D29*
X187250000Y-38600000D03*
X187250000Y-35600000D03*
X180750000Y-44000000D03*
X187250000Y-42600000D03*
%TD*%
D10*
%TO.C,C27*%
X186225000Y-65000000D03*
X187775000Y-65000000D03*
%TD*%
D21*
%TO.C,R4*%
X63175000Y-37000000D03*
X64825000Y-37000000D03*
%TD*%
D20*
%TO.C,REF\u002A\u002A*%
X135000000Y-88000000D03*
%TD*%
D10*
%TO.C,C35*%
X180725000Y-90000000D03*
X182275000Y-90000000D03*
%TD*%
D22*
%TO.C,C29*%
X180000000Y-53775000D03*
X180000000Y-52225000D03*
%TD*%
D12*
%TO.C,TP17*%
X133000000Y-73000000D03*
%TD*%
D10*
%TO.C,C21*%
X186225000Y-56000000D03*
X187775000Y-56000000D03*
%TD*%
%TO.C,C19*%
X170225000Y-90000000D03*
X171775000Y-90000000D03*
%TD*%
D30*
%TO.C,L1*%
X94075000Y-105000000D03*
X97925000Y-105000000D03*
%TD*%
D19*
%TO.C,C43*%
X95775000Y-122000000D03*
X94225000Y-122000000D03*
%TD*%
D21*
%TO.C,R7*%
X124175000Y-126000000D03*
X125825000Y-126000000D03*
%TD*%
D12*
%TO.C,TP4*%
X138000000Y-54000000D03*
%TD*%
D31*
%TO.C,U5*%
X162550000Y-84200000D03*
X162550000Y-84600000D03*
X162550000Y-85000000D03*
X162550000Y-85400000D03*
X162550000Y-85800000D03*
D32*
X163200000Y-86450000D03*
X163600000Y-86450000D03*
X164000000Y-86450000D03*
X164400000Y-86450000D03*
X164800000Y-86450000D03*
D31*
X165450000Y-85800000D03*
X165450000Y-85400000D03*
X165450000Y-85000000D03*
X165450000Y-84600000D03*
X165450000Y-84200000D03*
D32*
X164800000Y-83550000D03*
X164400000Y-83550000D03*
X164000000Y-83550000D03*
X163600000Y-83550000D03*
X163200000Y-83550000D03*
D33*
X164000000Y-85000000D03*
%TD*%
D11*
%TO.C,R15*%
X74825000Y-75000000D03*
X73175000Y-75000000D03*
%TD*%
D22*
%TO.C,C24*%
X161000000Y-79275000D03*
X161000000Y-77725000D03*
%TD*%
D18*
%TO.C,REF\u002A\u002A*%
X195000000Y-34964500D03*
%TD*%
D12*
%TO.C,TP5*%
X133000000Y-58000000D03*
%TD*%
D10*
%TO.C,C6*%
X190725000Y-85500000D03*
X192275000Y-85500000D03*
%TD*%
D20*
%TO.C,REF\u002A\u002A*%
X195000000Y-70000000D03*
%TD*%
D10*
%TO.C,C13*%
X100725000Y-40000000D03*
X102275000Y-40000000D03*
%TD*%
D21*
%TO.C,R18*%
X114175000Y-48000000D03*
X115825000Y-48000000D03*
%TD*%
D34*
%TO.C,U1*%
X76350000Y-32380000D03*
X76350000Y-33650000D03*
X76350000Y-34920000D03*
X76350000Y-36190000D03*
X76350000Y-37460000D03*
X76350000Y-38730000D03*
X76350000Y-40000000D03*
X76350000Y-41270000D03*
X76350000Y-42540000D03*
X76350000Y-43810000D03*
X76350000Y-45080000D03*
X76350000Y-46350000D03*
X76350000Y-47620000D03*
X76350000Y-48890000D03*
D35*
X78115000Y-50140000D03*
X79385000Y-50140000D03*
X80655000Y-50140000D03*
X81925000Y-50140000D03*
X83195000Y-50140000D03*
X84465000Y-50140000D03*
X85735000Y-50140000D03*
X87005000Y-50140000D03*
X88275000Y-50140000D03*
X89545000Y-50140000D03*
X90815000Y-50140000D03*
X92085000Y-50140000D03*
D34*
X93850000Y-48890000D03*
X93850000Y-47620000D03*
X93850000Y-46350000D03*
X93850000Y-45080000D03*
X93850000Y-43810000D03*
X93850000Y-42540000D03*
X93850000Y-41270000D03*
X93850000Y-40000000D03*
X93850000Y-38730000D03*
X93850000Y-37460000D03*
X93850000Y-36190000D03*
X93850000Y-34920000D03*
X93850000Y-33650000D03*
X93850000Y-32380000D03*
D36*
X82200000Y-39400000D03*
X82200000Y-40800000D03*
X82900000Y-38700000D03*
X82900000Y-40100000D03*
X82900000Y-41500000D03*
X83600000Y-39400000D03*
D37*
X83600000Y-40100000D03*
D36*
X83600000Y-40800000D03*
X84300000Y-38700000D03*
X84300000Y-40100000D03*
X84300000Y-41500000D03*
X85000000Y-39400000D03*
X85000000Y-40800000D03*
%TD*%
D20*
%TO.C,REF\u002A\u002A*%
X195000000Y-43000000D03*
%TD*%
D22*
%TO.C,C31*%
X183000000Y-53775000D03*
X183000000Y-52225000D03*
%TD*%
D18*
%TO.C,REF\u002A\u002A*%
X35035530Y-35035530D03*
%TD*%
D20*
%TO.C,REF\u002A\u002A*%
X164000000Y-70000000D03*
%TD*%
D10*
%TO.C,C34*%
X180725000Y-93000000D03*
X182275000Y-93000000D03*
%TD*%
D38*
%TO.C,D3*%
X96000000Y-111350000D03*
X96000000Y-114650000D03*
%TD*%
D21*
%TO.C,R10*%
X186175000Y-59000000D03*
X187825000Y-59000000D03*
%TD*%
D12*
%TO.C,TP10*%
X133000000Y-51000000D03*
%TD*%
D21*
%TO.C,R12*%
X185675000Y-90000000D03*
X187325000Y-90000000D03*
%TD*%
D12*
%TO.C,TP7*%
X133000000Y-64000000D03*
%TD*%
D16*
%TO.C,C7*%
X58000000Y-100225000D03*
X58000000Y-101775000D03*
%TD*%
%TO.C,C14*%
X167000000Y-91225000D03*
X167000000Y-92775000D03*
%TD*%
D19*
%TO.C,C3*%
X70000000Y-37000000D03*
X68450000Y-37000000D03*
%TD*%
%TO.C,C40*%
X100775000Y-119000000D03*
X99225000Y-119000000D03*
%TD*%
D39*
%TO.C,C1*%
X64347349Y-60000000D03*
D40*
X67847349Y-60000000D03*
%TD*%
D21*
%TO.C,R8*%
X139175000Y-100000000D03*
X140825000Y-100000000D03*
%TD*%
D16*
%TO.C,C16*%
X160980000Y-91225000D03*
X160980000Y-92775000D03*
%TD*%
D23*
%TO.C,Q3*%
X110937500Y-53950000D03*
X110937500Y-52050000D03*
X109062500Y-53000000D03*
%TD*%
D16*
%TO.C,C8*%
X72000000Y-100225000D03*
X72000000Y-101775000D03*
%TD*%
D20*
%TO.C,REF\u002A\u002A*%
X164000000Y-116500000D03*
%TD*%
D10*
%TO.C,C22*%
X170225000Y-87000000D03*
X171775000Y-87000000D03*
%TD*%
%TO.C,C11*%
X100725000Y-46000000D03*
X102275000Y-46000000D03*
%TD*%
D22*
%TO.C,C25*%
X164000000Y-79275000D03*
X164000000Y-77725000D03*
%TD*%
D41*
%TO.C,J5*%
X55350000Y-37250000D03*
X54550000Y-37250000D03*
X53250000Y-37250000D03*
X52250000Y-37250000D03*
X51750000Y-37250000D03*
X50750000Y-37250000D03*
X49450000Y-37250000D03*
X48650000Y-37250000D03*
X48950000Y-37250000D03*
X49750000Y-37250000D03*
X50250000Y-37250000D03*
X51250000Y-37250000D03*
X52750000Y-37250000D03*
X53750000Y-37250000D03*
X54250000Y-37250000D03*
X55050000Y-37250000D03*
D42*
X57620000Y-36100000D03*
D43*
X57620000Y-32100000D03*
D42*
X46380000Y-36100000D03*
D43*
X46380000Y-32100000D03*
%TD*%
D20*
%TO.C,SW3*%
X170500000Y-32887500D03*
X165500000Y-32887500D03*
%TD*%
D10*
%TO.C,C5*%
X104225000Y-50000000D03*
X105775000Y-50000000D03*
%TD*%
D21*
%TO.C,R2*%
X68175000Y-43000000D03*
X69825000Y-43000000D03*
%TD*%
%TO.C,R13*%
X68175000Y-46500000D03*
X69825000Y-46500000D03*
%TD*%
%TO.C,R11*%
X185675000Y-93000000D03*
X187325000Y-93000000D03*
%TD*%
D17*
%TO.C,D2*%
X92000000Y-114650000D03*
X92000000Y-111350000D03*
%TD*%
D19*
%TO.C,C47*%
X106000000Y-112000000D03*
X104450000Y-112000000D03*
%TD*%
D10*
%TO.C,C33*%
X185225000Y-78000000D03*
X186775000Y-78000000D03*
%TD*%
D18*
%TO.C,REF\u002A\u002A*%
X57500000Y-130500000D03*
%TD*%
D44*
%TO.C,SW2*%
X116250000Y-61000000D03*
D45*
X109750000Y-61025000D03*
%TD*%
D46*
%TO.C,D1*%
X65187500Y-91000000D03*
X63612500Y-91000000D03*
%TD*%
D12*
%TO.C,TP1*%
X75000000Y-95000000D03*
%TD*%
D47*
%TO.C,SW1*%
X65000000Y-85100000D03*
X65000000Y-76900000D03*
D48*
X63750000Y-83000000D03*
D40*
X63750000Y-81000000D03*
X63750000Y-79000000D03*
X66250000Y-79000000D03*
X66250000Y-81000000D03*
X66250000Y-83000000D03*
%TD*%
D19*
%TO.C,C42*%
X100775000Y-122000000D03*
X99225000Y-122000000D03*
%TD*%
D44*
%TO.C,SW6*%
X116250000Y-69000000D03*
D45*
X109750000Y-69025000D03*
%TD*%
D12*
%TO.C,TP13*%
X176000000Y-85500000D03*
%TD*%
D49*
%TO.C,U3*%
X163862500Y-101050000D03*
X163862500Y-102000000D03*
X163862500Y-102950000D03*
X166137500Y-102950000D03*
X166137500Y-101050000D03*
%TD*%
D10*
%TO.C,C48*%
X186225000Y-68000000D03*
X187775000Y-68000000D03*
%TD*%
D21*
%TO.C,R19*%
X114175000Y-54000000D03*
X115825000Y-54000000D03*
%TD*%
D10*
%TO.C,C20*%
X170225000Y-81000000D03*
X171775000Y-81000000D03*
%TD*%
%TO.C,C36*%
X124225000Y-123000000D03*
X125775000Y-123000000D03*
%TD*%
D50*
%TO.C,Q1*%
X104575000Y-105000000D03*
X105875000Y-105000000D03*
X105225000Y-103000000D03*
%TD*%
D21*
%TO.C,R5*%
X63175000Y-34000000D03*
X64825000Y-34000000D03*
%TD*%
D10*
%TO.C,C37*%
X124225000Y-120000000D03*
X125775000Y-120000000D03*
%TD*%
D51*
%TO.C,R9*%
X177000000Y-67825000D03*
X177000000Y-66175000D03*
%TD*%
D12*
%TO.C,TP3*%
X180000000Y-101000000D03*
%TD*%
D16*
%TO.C,C9*%
X158000000Y-101225000D03*
X158000000Y-102775000D03*
%TD*%
D19*
%TO.C,C45*%
X96275000Y-125000000D03*
X94725000Y-125000000D03*
%TD*%
D52*
%TO.C,J1*%
X109250000Y-128400000D03*
X109750000Y-128400000D03*
X110250000Y-128400000D03*
X110750000Y-128400000D03*
X111250000Y-128400000D03*
X111750000Y-128400000D03*
X112250000Y-128400000D03*
X112750000Y-128400000D03*
X113250000Y-128400000D03*
X113750000Y-128400000D03*
X114250000Y-128400000D03*
X114750000Y-128400000D03*
X115250000Y-128400000D03*
X115750000Y-128400000D03*
X116250000Y-128400000D03*
X116750000Y-128400000D03*
X117250000Y-128400000D03*
X117750000Y-128400000D03*
X118250000Y-128400000D03*
X118750000Y-128400000D03*
X119250000Y-128400000D03*
X119750000Y-128400000D03*
X120250000Y-128400000D03*
X120750000Y-128400000D03*
D53*
X107250000Y-130200000D03*
X122750000Y-130200000D03*
%TD*%
D12*
%TO.C,TP16*%
X192000000Y-80000000D03*
%TD*%
D20*
%TO.C,REF\u002A\u002A*%
X95000000Y-88000000D03*
%TD*%
D11*
%TO.C,R17*%
X106050000Y-109000000D03*
X104400000Y-109000000D03*
%TD*%
D49*
%TO.C,U2*%
X63862500Y-100050000D03*
X63862500Y-101000000D03*
X63862500Y-101950000D03*
X66137500Y-101950000D03*
X66137500Y-100050000D03*
%TD*%
D20*
%TO.C,REF\u002A\u002A*%
X123500000Y-34000000D03*
%TD*%
D12*
%TO.C,TP11*%
X192000000Y-101000000D03*
%TD*%
M02*
