%TF.GenerationSoftware,KiCad,Pcbnew,8.0.6*%
%TF.CreationDate,2024-10-30T23:15:20-04:00*%
%TF.ProjectId,live-caption-badge,6c697665-2d63-4617-9074-696f6e2d6261,rev?*%
%TF.SameCoordinates,Original*%
%TF.FileFunction,Paste,Top*%
%TF.FilePolarity,Positive*%
%FSLAX46Y46*%
G04 Gerber Fmt 4.6, Leading zero omitted, Abs format (unit mm)*
G04 Created by KiCad (PCBNEW 8.0.6) date 2024-10-30 23:15:20*
%MOMM*%
%LPD*%
G01*
G04 APERTURE LIST*
G04 Aperture macros list*
%AMRoundRect*
0 Rectangle with rounded corners*
0 $1 Rounding radius*
0 $2 $3 $4 $5 $6 $7 $8 $9 X,Y pos of 4 corners*
0 Add a 4 corners polygon primitive as box body*
4,1,4,$2,$3,$4,$5,$6,$7,$8,$9,$2,$3,0*
0 Add four circle primitives for the rounded corners*
1,1,$1+$1,$2,$3*
1,1,$1+$1,$4,$5*
1,1,$1+$1,$6,$7*
1,1,$1+$1,$8,$9*
0 Add four rect primitives between the rounded corners*
20,1,$1+$1,$2,$3,$4,$5,0*
20,1,$1+$1,$4,$5,$6,$7,0*
20,1,$1+$1,$6,$7,$8,$9,0*
20,1,$1+$1,$8,$9,$2,$3,0*%
G04 Aperture macros list end*
%ADD10R,7.000000X8.000000*%
%ADD11RoundRect,0.200000X-0.200000X-0.275000X0.200000X-0.275000X0.200000X0.275000X-0.200000X0.275000X0*%
%ADD12RoundRect,0.200000X0.200000X0.275000X-0.200000X0.275000X-0.200000X-0.275000X0.200000X-0.275000X0*%
%ADD13C,3.000000*%
%ADD14RoundRect,0.250000X-0.250000X-1.100000X0.250000X-1.100000X0.250000X1.100000X-0.250000X1.100000X0*%
%ADD15RoundRect,0.150000X-0.150000X-0.700000X0.150000X-0.700000X0.150000X0.700000X-0.150000X0.700000X0*%
%ADD16R,0.300000X1.100000*%
%ADD17RoundRect,0.225000X-0.250000X0.225000X-0.250000X-0.225000X0.250000X-0.225000X0.250000X0.225000X0*%
%ADD18RoundRect,0.225000X-0.225000X-0.250000X0.225000X-0.250000X0.225000X0.250000X-0.225000X0.250000X0*%
%ADD19RoundRect,0.225000X0.225000X0.250000X-0.225000X0.250000X-0.225000X-0.250000X0.225000X-0.250000X0*%
%ADD20RoundRect,0.225000X0.250000X-0.225000X0.250000X0.225000X-0.250000X0.225000X-0.250000X-0.225000X0*%
%ADD21RoundRect,0.250000X-0.335000X-0.335000X0.335000X-0.335000X0.335000X0.335000X-0.335000X0.335000X0*%
%ADD22RoundRect,0.050000X-0.300000X-0.050000X0.300000X-0.050000X0.300000X0.050000X-0.300000X0.050000X0*%
%ADD23RoundRect,0.050000X-0.050000X-0.300000X0.050000X-0.300000X0.050000X0.300000X-0.050000X0.300000X0*%
%ADD24RoundRect,0.100000X-0.712500X-0.100000X0.712500X-0.100000X0.712500X0.100000X-0.712500X0.100000X0*%
%ADD25R,2.500000X1.200000*%
%ADD26RoundRect,0.167500X-0.167500X-0.167500X0.167500X-0.167500X0.167500X0.167500X-0.167500X0.167500X0*%
%ADD27RoundRect,0.050000X-0.375000X-0.050000X0.375000X-0.050000X0.375000X0.050000X-0.375000X0.050000X0*%
%ADD28RoundRect,0.050000X-0.050000X-0.375000X0.050000X-0.375000X0.050000X0.375000X-0.050000X0.375000X0*%
%ADD29R,0.900000X0.900000*%
%ADD30R,1.500000X0.900000*%
%ADD31R,0.900000X1.500000*%
%ADD32RoundRect,0.375000X-0.875000X-0.375000X0.875000X-0.375000X0.875000X0.375000X-0.875000X0.375000X0*%
%ADD33RoundRect,0.362500X-0.887500X-0.362500X0.887500X-0.362500X0.887500X0.362500X-0.887500X0.362500X0*%
%ADD34RoundRect,0.218750X0.218750X0.256250X-0.218750X0.256250X-0.218750X-0.256250X0.218750X-0.256250X0*%
%ADD35RoundRect,0.150000X-0.512500X-0.150000X0.512500X-0.150000X0.512500X0.150000X-0.512500X0.150000X0*%
%ADD36RoundRect,0.200000X0.275000X-0.200000X0.275000X0.200000X-0.275000X0.200000X-0.275000X-0.200000X0*%
G04 APERTURE END LIST*
D10*
%TO.C,BT1*%
X42000000Y-46000000D03*
X42000000Y-124000000D03*
%TD*%
D11*
%TO.C,R16*%
X73175000Y-72000000D03*
X74825000Y-72000000D03*
%TD*%
D12*
%TO.C,R15*%
X74825000Y-75000000D03*
X73175000Y-75000000D03*
%TD*%
D13*
%TO.C,REF\u002A\u002A*%
X164000000Y-116500000D03*
%TD*%
%TO.C,REF\u002A\u002A*%
X195000000Y-70000000D03*
%TD*%
%TO.C,REF\u002A\u002A*%
X123500000Y-34000000D03*
%TD*%
%TO.C,REF\u002A\u002A*%
X86000000Y-116500000D03*
%TD*%
%TO.C,REF\u002A\u002A*%
X144000000Y-116500000D03*
%TD*%
%TO.C,REF\u002A\u002A*%
X135000000Y-88000000D03*
%TD*%
%TO.C,REF\u002A\u002A*%
X95000000Y-88000000D03*
%TD*%
%TO.C,REF\u002A\u002A*%
X195000000Y-116500000D03*
%TD*%
%TO.C,REF\u002A\u002A*%
X164000000Y-70000000D03*
%TD*%
%TO.C,REF\u002A\u002A*%
X195000000Y-43000000D03*
%TD*%
%TO.C,REF\u002A\u002A*%
X42000000Y-35000000D03*
%TD*%
%TO.C,REF\u002A\u002A*%
X35000000Y-110000000D03*
%TD*%
D14*
%TO.C,J1*%
X108150000Y-81350000D03*
X121850000Y-81350000D03*
D15*
X110000000Y-78150000D03*
X111250000Y-78150000D03*
X112500000Y-78150000D03*
X113750000Y-78150000D03*
X115000000Y-78150000D03*
X116250000Y-78150000D03*
X117500000Y-78150000D03*
X118750000Y-78150000D03*
X120000000Y-78150000D03*
%TD*%
D16*
%TO.C,J5*%
X48950000Y-38475000D03*
X49750000Y-38475000D03*
X54250000Y-38475000D03*
X55050000Y-38475000D03*
X55350000Y-38475000D03*
X54550000Y-38475000D03*
X53250000Y-38475000D03*
X52250000Y-38475000D03*
X51750000Y-38475000D03*
X50750000Y-38475000D03*
X49450000Y-38475000D03*
X48650000Y-38475000D03*
X50250000Y-38475000D03*
X51250000Y-38475000D03*
X52750000Y-38475000D03*
X53750000Y-38475000D03*
%TD*%
D12*
%TO.C,R6*%
X68175000Y-91000000D03*
X69825000Y-91000000D03*
%TD*%
D17*
%TO.C,C10*%
X172000000Y-101225000D03*
X172000000Y-102775000D03*
%TD*%
D18*
%TO.C,C12*%
X100725000Y-43000000D03*
X102275000Y-43000000D03*
%TD*%
%TO.C,C28*%
X186225000Y-62000000D03*
X187775000Y-62000000D03*
%TD*%
D19*
%TO.C,C4*%
X64775000Y-42500000D03*
X63225000Y-42500000D03*
%TD*%
%TO.C,C2*%
X70000000Y-36500000D03*
X68450000Y-36500000D03*
%TD*%
D18*
%TO.C,C32*%
X181225000Y-78000000D03*
X182775000Y-78000000D03*
%TD*%
D17*
%TO.C,C18*%
X180000000Y-66225000D03*
X180000000Y-67775000D03*
%TD*%
%TO.C,C15*%
X164000000Y-91225000D03*
X164000000Y-92775000D03*
%TD*%
D11*
%TO.C,R1*%
X68175000Y-42500000D03*
X69825000Y-42500000D03*
%TD*%
D20*
%TO.C,C26*%
X167000000Y-79275000D03*
X167000000Y-77725000D03*
%TD*%
D11*
%TO.C,R3*%
X63175000Y-45500000D03*
X64825000Y-45500000D03*
%TD*%
%TO.C,R14*%
X68175000Y-51500000D03*
X69825000Y-51500000D03*
%TD*%
D18*
%TO.C,C23*%
X170225000Y-84000000D03*
X171775000Y-84000000D03*
%TD*%
D21*
%TO.C,U4*%
X179275000Y-59275000D03*
X179275000Y-60725000D03*
X180725000Y-59275000D03*
X180725000Y-60725000D03*
D22*
X178000000Y-58600000D03*
X178000000Y-59000000D03*
X178000000Y-59400000D03*
X178000000Y-59800000D03*
X178000000Y-60200000D03*
X178000000Y-60600000D03*
X178000000Y-61000000D03*
X178000000Y-61400000D03*
D23*
X178600000Y-62000000D03*
X179000000Y-62000000D03*
X179400000Y-62000000D03*
X179800000Y-62000000D03*
X180200000Y-62000000D03*
X180600000Y-62000000D03*
X181000000Y-62000000D03*
X181400000Y-62000000D03*
D22*
X182000000Y-61400000D03*
X182000000Y-61000000D03*
X182000000Y-60600000D03*
X182000000Y-60200000D03*
X182000000Y-59800000D03*
X182000000Y-59400000D03*
X182000000Y-59000000D03*
X182000000Y-58600000D03*
D23*
X181400000Y-58000000D03*
X181000000Y-58000000D03*
X180600000Y-58000000D03*
X180200000Y-58000000D03*
X179800000Y-58000000D03*
X179400000Y-58000000D03*
X179000000Y-58000000D03*
X178600000Y-58000000D03*
%TD*%
D20*
%TO.C,C30*%
X177000000Y-53775000D03*
X177000000Y-52225000D03*
%TD*%
D24*
%TO.C,U6*%
X181887500Y-83025000D03*
X181887500Y-83675000D03*
X181887500Y-84325000D03*
X181887500Y-84975000D03*
X186112500Y-84975000D03*
X186112500Y-84325000D03*
X186112500Y-83675000D03*
X186112500Y-83025000D03*
%TD*%
D17*
%TO.C,C17*%
X183000000Y-66225000D03*
X183000000Y-67775000D03*
%TD*%
D25*
%TO.C,J4*%
X187250000Y-42600000D03*
X187250000Y-38600000D03*
X187250000Y-35600000D03*
X180750000Y-44000000D03*
%TD*%
D18*
%TO.C,C27*%
X186225000Y-65000000D03*
X187775000Y-65000000D03*
%TD*%
D12*
%TO.C,R4*%
X64825000Y-39500000D03*
X63175000Y-39500000D03*
%TD*%
D18*
%TO.C,C35*%
X180725000Y-90000000D03*
X182275000Y-90000000D03*
%TD*%
D20*
%TO.C,C29*%
X180000000Y-53775000D03*
X180000000Y-52225000D03*
%TD*%
D18*
%TO.C,C21*%
X186225000Y-56000000D03*
X187775000Y-56000000D03*
%TD*%
%TO.C,C19*%
X170225000Y-90000000D03*
X171775000Y-90000000D03*
%TD*%
D26*
%TO.C,U5*%
X163590000Y-84590000D03*
X163590000Y-85410000D03*
X164410000Y-84590000D03*
X164410000Y-85410000D03*
D27*
X162550000Y-84200000D03*
X162550000Y-84600000D03*
X162550000Y-85000000D03*
X162550000Y-85400000D03*
X162550000Y-85800000D03*
D28*
X163200000Y-86450000D03*
X163600000Y-86450000D03*
X164000000Y-86450000D03*
X164400000Y-86450000D03*
X164800000Y-86450000D03*
D27*
X165450000Y-85800000D03*
X165450000Y-85400000D03*
X165450000Y-85000000D03*
X165450000Y-84600000D03*
X165450000Y-84200000D03*
D28*
X164800000Y-83550000D03*
X164400000Y-83550000D03*
X164000000Y-83550000D03*
X163600000Y-83550000D03*
X163200000Y-83550000D03*
%TD*%
D20*
%TO.C,C24*%
X161000000Y-79275000D03*
X161000000Y-77725000D03*
%TD*%
D18*
%TO.C,C13*%
X100725000Y-40000000D03*
X102275000Y-40000000D03*
%TD*%
D29*
%TO.C,U1*%
X82200000Y-38700000D03*
X82200000Y-40100000D03*
X82200000Y-41500000D03*
X83600000Y-38700000D03*
X83600000Y-40100000D03*
X83600000Y-41500000D03*
X85000000Y-38700000D03*
X85000000Y-40100000D03*
X85000000Y-41500000D03*
D30*
X76350000Y-32380000D03*
X76350000Y-33650000D03*
X76350000Y-34920000D03*
X76350000Y-36190000D03*
X76350000Y-37460000D03*
X76350000Y-38730000D03*
X76350000Y-40000000D03*
X76350000Y-41270000D03*
X76350000Y-42540000D03*
X76350000Y-43810000D03*
X76350000Y-45080000D03*
X76350000Y-46350000D03*
X76350000Y-47620000D03*
X76350000Y-48890000D03*
D31*
X78115000Y-50140000D03*
X79385000Y-50140000D03*
X80655000Y-50140000D03*
X81925000Y-50140000D03*
X83195000Y-50140000D03*
X84465000Y-50140000D03*
X85735000Y-50140000D03*
X87005000Y-50140000D03*
X88275000Y-50140000D03*
X89545000Y-50140000D03*
X90815000Y-50140000D03*
X92085000Y-50140000D03*
D30*
X93850000Y-48890000D03*
X93850000Y-47620000D03*
X93850000Y-46350000D03*
X93850000Y-45080000D03*
X93850000Y-43810000D03*
X93850000Y-42540000D03*
X93850000Y-41270000D03*
X93850000Y-40000000D03*
X93850000Y-38730000D03*
X93850000Y-37460000D03*
X93850000Y-36190000D03*
X93850000Y-34920000D03*
X93850000Y-33650000D03*
X93850000Y-32380000D03*
%TD*%
D20*
%TO.C,C31*%
X183000000Y-53775000D03*
X183000000Y-52225000D03*
%TD*%
D18*
%TO.C,C34*%
X180725000Y-93000000D03*
X182275000Y-93000000D03*
%TD*%
D11*
%TO.C,R10*%
X186175000Y-59000000D03*
X187825000Y-59000000D03*
%TD*%
%TO.C,R12*%
X185675000Y-90000000D03*
X187325000Y-90000000D03*
%TD*%
D17*
%TO.C,C7*%
X58000000Y-101775000D03*
X58000000Y-100225000D03*
%TD*%
%TO.C,C14*%
X167000000Y-91225000D03*
X167000000Y-92775000D03*
%TD*%
D19*
%TO.C,C3*%
X70000000Y-39500000D03*
X68450000Y-39500000D03*
%TD*%
%TO.C,C1*%
X70000000Y-33500000D03*
X68450000Y-33500000D03*
%TD*%
D11*
%TO.C,R8*%
X139175000Y-95000000D03*
X140825000Y-95000000D03*
%TD*%
D17*
%TO.C,C16*%
X160980000Y-91225000D03*
X160980000Y-92775000D03*
%TD*%
%TO.C,C8*%
X72000000Y-101775000D03*
X72000000Y-100225000D03*
%TD*%
D18*
%TO.C,C22*%
X170225000Y-87000000D03*
X171775000Y-87000000D03*
%TD*%
%TO.C,C11*%
X100725000Y-46000000D03*
X102275000Y-46000000D03*
%TD*%
D20*
%TO.C,C25*%
X164000000Y-79275000D03*
X164000000Y-77725000D03*
%TD*%
D18*
%TO.C,C5*%
X74775000Y-69000000D03*
X73225000Y-69000000D03*
%TD*%
D11*
%TO.C,R2*%
X68175000Y-45500000D03*
X69825000Y-45500000D03*
%TD*%
%TO.C,R13*%
X68175000Y-48990000D03*
X69825000Y-48990000D03*
%TD*%
%TO.C,R11*%
X185675000Y-93000000D03*
X187325000Y-93000000D03*
%TD*%
D18*
%TO.C,C33*%
X185225000Y-78000000D03*
X186775000Y-78000000D03*
%TD*%
D32*
%TO.C,SW2*%
X61750000Y-60000000D03*
D33*
X68250000Y-59975000D03*
%TD*%
D34*
%TO.C,D1*%
X63612500Y-91000000D03*
X65187500Y-91000000D03*
%TD*%
D32*
%TO.C,SW6*%
X61750000Y-69000000D03*
D33*
X68250000Y-68975000D03*
%TD*%
D35*
%TO.C,U3*%
X163862500Y-101050000D03*
X163862500Y-102000000D03*
X163862500Y-102950000D03*
X166137500Y-102950000D03*
X166137500Y-101050000D03*
%TD*%
D18*
%TO.C,C20*%
X170225000Y-81000000D03*
X171775000Y-81000000D03*
%TD*%
D12*
%TO.C,R5*%
X64825000Y-36500000D03*
X63175000Y-36500000D03*
%TD*%
D36*
%TO.C,R9*%
X177000000Y-67825000D03*
X177000000Y-66175000D03*
%TD*%
D17*
%TO.C,C9*%
X158000000Y-101225000D03*
X158000000Y-102775000D03*
%TD*%
D35*
%TO.C,U2*%
X66137500Y-100050000D03*
X66137500Y-101950000D03*
X63862500Y-101950000D03*
X63862500Y-101000000D03*
X63862500Y-100050000D03*
%TD*%
M02*
