M48
; DRILL file {KiCad 8.0.6} date 2024-11-25T17:45:52-0500
; FORMAT={-:-/ absolute / inch / decimal}
; #@! TF.CreationDate,2024-11-25T17:45:52-05:00
; #@! TF.GenerationSoftware,Kicad,Pcbnew,8.0.6
; #@! TF.FileFunction,Plated,1,4,PTH
FMAT,2
INCH
; #@! TA.AperFunction,Plated,PTH,ViaDrill
T1C0.0118
; #@! TA.AperFunction,Plated,PTH,ComponentDrill
T2C0.0118
; #@! TA.AperFunction,Plated,PTH,ViaDrill
T3C0.0197
; #@! TA.AperFunction,Plated,PTH,ViaDrill
T4C0.0236
; #@! TA.AperFunction,Plated,PTH,ComponentDrill
T5C0.0236
; #@! TA.AperFunction,Plated,PTH,ComponentDrill
T6C0.0315
; #@! TA.AperFunction,Plated,PTH,ComponentDrill
T7C0.0394
; #@! TA.AperFunction,Plated,PTH,ViaDrill
T8C0.0472
; #@! TA.AperFunction,Plated,PTH,ComponentDrill
T9C0.0591
%
G90
G05
T1
X1.9882Y-1.5157
X2.0394Y-1.5374
X2.0814Y-1.5807
X2.185Y-1.5394
X2.2441Y-1.6142
X2.2659Y-1.4785
X2.3622Y-1.4764
X3.0709Y-1.6748
X3.0906Y-1.378
X3.1102Y-2.126
X3.1693Y-1.8898
X3.2283Y-1.7248
X3.2677Y-2.3622
X3.3102Y-1.7748
X3.4646Y-2.6378
X3.5039Y-2.5197
X3.6024Y-1.4173
X3.6024Y-1.4764
X3.7795Y-4.5669
X3.7992Y-1.8307
X3.8386Y-1.7717
X3.8583Y-4.9213
X3.937Y-4.5669
X3.9764Y-2.4016
X4.0157Y-4.8031
X4.0157Y-4.9213
X4.0551Y-4.1339
X4.0551Y-4.2913
X4.2323Y-4.3504
X4.4094Y-2.2047
X4.5866Y-1.9488
X4.685Y-2.7559
X4.7244Y-1.9488
X4.7244Y-4.9606
X4.7894Y-4.9606
X5.5512Y-2.6378
X5.6693Y-2.4016
X5.748Y-2.2835
X5.8661Y-2.126
X5.9843Y-2.0079
X6.1024Y-1.8898
X6.3791Y-3.2665
X6.6339Y-1.4764
X6.8898Y-2.2441
X6.8898Y-2.3228
X6.8898Y-2.4016
X6.8898Y-2.4803
X6.8898Y-2.5591
X6.8898Y-2.6378
X6.9488Y-2.4016
X6.9685Y-2.4409
X7.0866Y-2.478
X7.1949Y-3.1693
X7.2441Y-2.3622
X7.3622Y-1.7323
X7.3819Y-2.5
X7.5591Y-1.8307
T2
X3.2362Y-1.5512
X3.2362Y-1.6063
X3.2638Y-1.5236
X3.2638Y-1.5787
X3.2638Y-1.6339
X3.2913Y-1.5512
X3.2913Y-1.6063
X3.3189Y-1.5236
X3.3189Y-1.5787
X3.3189Y-1.6339
X3.3465Y-1.5512
X3.3465Y-1.6063
T3
X2.4409Y-3.5827
X2.6181Y-1.6565
X2.6841Y-1.5285
X2.874Y-1.3248
X3.5827Y-4.1339
X4.1142Y-1.5945
X4.1142Y-1.7126
X4.1142Y-1.811
X4.252Y-1.9685
X4.4685Y-5.1378
X4.8907Y-4.5472
X6.3386Y-3.3661
X6.5354Y-3.5039
X6.5748Y-3.4449
X6.6535Y-3.9783
X6.8504Y-3.4646
T4
X2.9528Y-3.937
X6.2402Y-3.6024
X7.0669Y-3.0709
T6
X2.5334Y-2.3622
X2.6712Y-2.3622
T7
X2.5098Y-3.1102
X2.5098Y-3.189
X2.5098Y-3.2677
X2.6083Y-3.1102
X2.6083Y-3.189
X2.6083Y-3.2677
X2.9528Y-3.3465
X2.9528Y-3.7402
X3.1496Y-2.9528
X3.2496Y-2.9528
X3.3496Y-2.9528
X3.4496Y-2.9528
X3.5496Y-2.9528
X3.6496Y-2.9528
X5.2362Y-2.0079
X5.2362Y-2.2835
X5.2362Y-2.5197
X5.2362Y-2.874
X5.4331Y-1.8898
X5.4331Y-2.126
X5.4331Y-2.4016
X5.4331Y-2.6378
X6.9291Y-3.3661
X6.9291Y-3.6614
X7.0866Y-3.9764
X7.3425Y-2.0472
X7.4606Y-1.8701
X7.5591Y-3.1496
X7.5591Y-3.9764
T8
X1.6535Y-4.6063
X1.9528Y-1.7323
X2.2835Y-3.7402
X2.4409Y-3.4252
X2.4508Y-3.0512
X6.2205Y-3.878
T9
X5.2559Y-1.2948
X5.4528Y-1.2948
X5.8858Y-1.2948
X6.0827Y-1.2948
X6.5157Y-1.2948
X6.7126Y-1.2948
T5
G00X1.826Y-1.2874
M15
G01X1.826Y-1.2402
M16
G05
G00X1.826Y-1.437
M15
G01X1.826Y-1.4055
M16
G05
G00X2.2685Y-1.2874
M15
G01X2.2685Y-1.2402
M16
G05
G00X2.2685Y-1.437
M15
G01X2.2685Y-1.4055
M16
G05
M30
