%TF.GenerationSoftware,KiCad,Pcbnew,8.0.6*%
%TF.CreationDate,2024-11-25T17:46:05-05:00*%
%TF.ProjectId,live-caption-badge,6c697665-2d63-4617-9074-696f6e2d6261,2*%
%TF.SameCoordinates,Original*%
%TF.FileFunction,Copper,L4,Bot*%
%TF.FilePolarity,Positive*%
%FSLAX46Y46*%
G04 Gerber Fmt 4.6, Leading zero omitted, Abs format (unit mm)*
G04 Created by KiCad (PCBNEW 8.0.6) date 2024-11-25 17:46:05*
%MOMM*%
%LPD*%
G01*
G04 APERTURE LIST*
G04 Aperture macros list*
%AMRoundRect*
0 Rectangle with rounded corners*
0 $1 Rounding radius*
0 $2 $3 $4 $5 $6 $7 $8 $9 X,Y pos of 4 corners*
0 Add a 4 corners polygon primitive as box body*
4,1,4,$2,$3,$4,$5,$6,$7,$8,$9,$2,$3,0*
0 Add four circle primitives for the rounded corners*
1,1,$1+$1,$2,$3*
1,1,$1+$1,$4,$5*
1,1,$1+$1,$6,$7*
1,1,$1+$1,$8,$9*
0 Add four rect primitives between the rounded corners*
20,1,$1+$1,$2,$3,$4,$5,0*
20,1,$1+$1,$4,$5,$6,$7,0*
20,1,$1+$1,$6,$7,$8,$9,0*
20,1,$1+$1,$8,$9,$2,$3,0*%
G04 Aperture macros list end*
%TA.AperFunction,ComponentPad*%
%ADD10R,1.700000X1.700000*%
%TD*%
%TA.AperFunction,ComponentPad*%
%ADD11O,1.700000X1.700000*%
%TD*%
%TA.AperFunction,ComponentPad*%
%ADD12C,3.000000*%
%TD*%
%TA.AperFunction,HeatsinkPad*%
%ADD13C,0.600000*%
%TD*%
%TA.AperFunction,ComponentPad*%
%ADD14R,1.600000X1.600000*%
%TD*%
%TA.AperFunction,ComponentPad*%
%ADD15C,1.600000*%
%TD*%
%TA.AperFunction,ComponentPad*%
%ADD16O,1.000000X1.800000*%
%TD*%
%TA.AperFunction,ComponentPad*%
%ADD17O,1.000000X2.200000*%
%TD*%
%TA.AperFunction,WasherPad*%
%ADD18O,2.600000X1.600000*%
%TD*%
%TA.AperFunction,ComponentPad*%
%ADD19RoundRect,0.285714X0.514286X-0.514286X0.514286X0.514286X-0.514286X0.514286X-0.514286X-0.514286X0*%
%TD*%
%TA.AperFunction,ViaPad*%
%ADD20C,0.800000*%
%TD*%
%TA.AperFunction,ViaPad*%
%ADD21C,0.600000*%
%TD*%
%TA.AperFunction,ViaPad*%
%ADD22C,1.000000*%
%TD*%
%TA.AperFunction,ViaPad*%
%ADD23C,0.500000*%
%TD*%
%TA.AperFunction,ViaPad*%
%ADD24C,2.000000*%
%TD*%
%TA.AperFunction,Conductor*%
%ADD25C,0.200000*%
%TD*%
%TA.AperFunction,Conductor*%
%ADD26C,2.000000*%
%TD*%
%TA.AperFunction,Conductor*%
%ADD27C,0.500000*%
%TD*%
G04 APERTURE END LIST*
D10*
%TO.P,J2,1,Pin_1*%
%TO.N,+3V3*%
X80000000Y-75000000D03*
D11*
%TO.P,J2,2,Pin_2*%
%TO.N,/UART_TX*%
X82540000Y-75000000D03*
%TO.P,J2,3,Pin_3*%
%TO.N,/UART_RX*%
X85080000Y-75000000D03*
%TO.P,J2,4,Pin_4*%
%TO.N,/UART_RTS*%
X87620000Y-75000000D03*
%TO.P,J2,5,Pin_5*%
%TO.N,/UART_DTR*%
X90160000Y-75000000D03*
%TO.P,J2,6,Pin_6*%
%TO.N,GND*%
X92700000Y-75000000D03*
%TD*%
D10*
%TO.P,TP12,1,1*%
%TO.N,/Audio/DAC_OUTP*%
X176000000Y-93000000D03*
%TD*%
%TO.P,TP2,1,1*%
%TO.N,+3V3*%
X75000000Y-85000000D03*
%TD*%
%TO.P,TP15,1,1*%
%TO.N,/Audio/MIC_IN*%
X189500000Y-47500000D03*
%TD*%
%TO.P,TP6,1,1*%
%TO.N,/I2S_LRCK*%
X138000000Y-61000000D03*
%TD*%
D12*
%TO.P,SW4,1,1*%
%TO.N,GND*%
X154500000Y-32887500D03*
%TO.P,SW4,2,2*%
%TO.N,/BTN2*%
X149500000Y-32887500D03*
%TD*%
D10*
%TO.P,TP8,1,1*%
%TO.N,/I2S_SDIN*%
X138000000Y-67000000D03*
%TD*%
D12*
%TO.P,SW5,1,1*%
%TO.N,GND*%
X138500000Y-32887500D03*
%TO.P,SW5,2,2*%
%TO.N,/BTN3*%
X133500000Y-32887500D03*
%TD*%
D10*
%TO.P,TP14,1,1*%
%TO.N,/Audio/MIC_BIAS*%
X186500000Y-52000000D03*
%TD*%
%TO.P,TP9,1,1*%
%TO.N,/I2C_SDA*%
X138000000Y-48000000D03*
%TD*%
%TO.P,TP17,1,1*%
%TO.N,GND*%
X133000000Y-73000000D03*
%TD*%
%TO.P,TP4,1,1*%
%TO.N,/I2S_MCLK*%
X138000000Y-54000000D03*
%TD*%
%TO.P,TP5,1,1*%
%TO.N,/I2S_SCLK*%
X133000000Y-58000000D03*
%TD*%
D13*
%TO.P,U1,41,GND*%
%TO.N,GND*%
X82200000Y-39400000D03*
X82200000Y-40800000D03*
X82900000Y-38700000D03*
X82900000Y-40100000D03*
X82900000Y-41500000D03*
X83600000Y-39400000D03*
X83600000Y-40800000D03*
X84300000Y-38700000D03*
X84300000Y-40100000D03*
X84300000Y-41500000D03*
X85000000Y-39400000D03*
X85000000Y-40800000D03*
%TD*%
D10*
%TO.P,TP10,1,1*%
%TO.N,/I2C_SCL*%
X133000000Y-51000000D03*
%TD*%
%TO.P,TP7,1,1*%
%TO.N,/I2S_SDOUT*%
X133000000Y-64000000D03*
%TD*%
D14*
%TO.P,C1,1*%
%TO.N,+3V3*%
X64347349Y-60000000D03*
D15*
%TO.P,C1,2*%
%TO.N,GND*%
X67847349Y-60000000D03*
%TD*%
D16*
%TO.P,J5,S1,SHIELD*%
%TO.N,GND*%
X57620000Y-36100000D03*
D17*
X57620000Y-32100000D03*
D16*
X46380000Y-36100000D03*
D17*
X46380000Y-32100000D03*
%TD*%
D12*
%TO.P,SW3,1,1*%
%TO.N,GND*%
X170500000Y-32887500D03*
%TO.P,SW3,2,2*%
%TO.N,/BTN1*%
X165500000Y-32887500D03*
%TD*%
D10*
%TO.P,TP1,1,1*%
%TO.N,V_UNREG*%
X75000000Y-95000000D03*
%TD*%
D18*
%TO.P,SW1,*%
%TO.N,*%
X65000000Y-85100000D03*
X65000000Y-76900000D03*
D19*
%TO.P,SW1,1,A*%
%TO.N,+BATT*%
X63750000Y-83000000D03*
D15*
%TO.P,SW1,2,B*%
%TO.N,V_UNREG*%
X63750000Y-81000000D03*
%TO.P,SW1,3,C*%
%TO.N,VBUS*%
X63750000Y-79000000D03*
%TO.P,SW1,4,A*%
%TO.N,unconnected-(SW1B-A-Pad4)*%
X66250000Y-79000000D03*
%TO.P,SW1,5,B*%
%TO.N,unconnected-(SW1B-B-Pad5)*%
X66250000Y-81000000D03*
%TO.P,SW1,6,C*%
%TO.N,unconnected-(SW1B-C-Pad6)*%
X66250000Y-83000000D03*
%TD*%
D10*
%TO.P,TP13,1,1*%
%TO.N,/Audio/DAC_OUTN*%
X176000000Y-85500000D03*
%TD*%
%TO.P,TP3,1,1*%
%TO.N,+3.3VA*%
X180000000Y-101000000D03*
%TD*%
%TO.P,TP16,1,1*%
%TO.N,/Audio/AUDIO_OUT*%
X192000000Y-80000000D03*
%TD*%
%TO.P,TP11,1,1*%
%TO.N,GNDA*%
X192000000Y-101000000D03*
%TD*%
D20*
%TO.N,GND*%
X108000000Y-50000000D03*
D21*
X98000000Y-125000000D03*
X57000000Y-41000000D03*
X60000000Y-37500000D03*
D20*
X104500000Y-40500000D03*
X104500000Y-43500000D03*
X104500000Y-46000000D03*
D21*
X103000000Y-109000000D03*
D20*
%TO.N,+3V3*%
X73000000Y-33650000D03*
X113500000Y-130500000D03*
X124225000Y-115500000D03*
X91000000Y-105000000D03*
X66500000Y-42075000D03*
X62000000Y-91000000D03*
D22*
X75000000Y-100000000D03*
D20*
X68175000Y-38825000D03*
D23*
%TO.N,/USB_D-*%
X52866796Y-40150000D03*
X51800000Y-39050000D03*
D24*
%TO.N,+BATT*%
X62000000Y-87000000D03*
X42000000Y-117000000D03*
D20*
%TO.N,+3.3VA*%
X161000000Y-85500000D03*
X169000000Y-101050000D03*
D21*
X176500000Y-61000000D03*
D20*
X167000000Y-87500000D03*
D21*
X184000000Y-60000000D03*
D22*
X158500000Y-91500000D03*
X179500000Y-78000000D03*
D21*
%TO.N,GNDA*%
X177000000Y-62000000D03*
D20*
X174000000Y-88000000D03*
D21*
X162030331Y-82969669D03*
D20*
X166000000Y-89000000D03*
D21*
X187500000Y-63500000D03*
%TO.N,/UART_RX*%
X91500000Y-37500000D03*
%TO.N,/UART_TX*%
X91500000Y-36000000D03*
%TO.N,/I2C_SDA*%
X82000000Y-43810000D03*
X155000000Y-48000000D03*
X175000000Y-57000000D03*
%TO.N,/I2C_SCL*%
X84080000Y-45080000D03*
X152000000Y-51000000D03*
X175000000Y-59000000D03*
%TO.N,Net-(J5-CC2)*%
X50500000Y-38500000D03*
X57554975Y-37554975D03*
%TO.N,/I2S_SDOUT*%
X175000000Y-67000000D03*
X89000000Y-64000000D03*
%TO.N,/I2S_SDIN*%
X88000000Y-67000000D03*
X141000000Y-67000000D03*
X80500000Y-48000000D03*
X79000000Y-54000000D03*
%TO.N,/I2S_MCLK*%
X149000000Y-54000000D03*
X78000000Y-42540000D03*
X175000000Y-61000000D03*
%TO.N,/I2S_LRCK*%
X101000000Y-61000000D03*
X144000000Y-61000000D03*
X175000000Y-65000000D03*
%TO.N,/I2S_SCLK*%
X146000000Y-58000000D03*
X175000000Y-63000000D03*
X83000000Y-60000000D03*
%TO.N,/AMP_CTRL*%
X168500000Y-37500000D03*
X182750000Y-80500000D03*
%TO.N,/ADC_INT*%
X180000000Y-62940984D03*
X97500000Y-45000000D03*
%TO.N,/Audio/AUDIO_OUT*%
X192000000Y-46500000D03*
X187000000Y-44000000D03*
D24*
%TO.N,V_UNREG*%
X58000000Y-95000000D03*
X158000000Y-98500000D03*
%TO.N,VBUS*%
X49600000Y-44000000D03*
D21*
X55500000Y-39100000D03*
D24*
X62250000Y-77500000D03*
D21*
%TO.N,/ESP_~{EN}*%
X96500000Y-46500000D03*
X78500000Y-35000000D03*
%TO.N,/E-Paper/PREVGH*%
X102000000Y-122000000D03*
X100000000Y-116000000D03*
%TO.N,/E-Paper/PREVGL*%
X96000000Y-116000000D03*
X102000000Y-125000000D03*
%TO.N,/E-Paper/GDR*%
X121650000Y-126000000D03*
X103000000Y-105000000D03*
%TO.N,/E-Paper/RESE*%
X120000000Y-126000000D03*
X107500000Y-110500000D03*
%TO.N,/UART_RTS*%
X112000000Y-56000000D03*
%TO.N,/UART_DTR*%
X119000000Y-70000000D03*
X116500000Y-49500000D03*
X120000000Y-49500000D03*
%TD*%
D25*
%TO.N,/USB_D-*%
X51800000Y-39083204D02*
X52866796Y-40150000D01*
X51800000Y-39050000D02*
X51800000Y-39083204D01*
D26*
%TO.N,+BATT*%
X42000000Y-104500000D02*
X42000000Y-117000000D01*
X59500000Y-87000000D02*
X42000000Y-104500000D01*
X62000000Y-87000000D02*
X59500000Y-87000000D01*
D27*
%TO.N,/UART_RX*%
X77500000Y-33000000D02*
X87000000Y-33000000D01*
X76500000Y-34000000D02*
X77500000Y-33000000D01*
X85080000Y-75000000D02*
X76500000Y-66420000D01*
X87000000Y-33000000D02*
X91500000Y-37500000D01*
X76500000Y-66420000D02*
X76500000Y-34000000D01*
%TO.N,/UART_TX*%
X77000000Y-32000000D02*
X87500000Y-32000000D01*
X75000000Y-34000000D02*
X77000000Y-32000000D01*
X75000000Y-67460000D02*
X75000000Y-34000000D01*
X82540000Y-75000000D02*
X75000000Y-67460000D01*
X87500000Y-32000000D02*
X91500000Y-36000000D01*
%TO.N,/I2C_SDA*%
X86810000Y-43810000D02*
X82000000Y-43810000D01*
X168000000Y-48000000D02*
X155000000Y-48000000D01*
X155000000Y-48000000D02*
X91000000Y-48000000D01*
X175000000Y-55000000D02*
X168000000Y-48000000D01*
X91000000Y-48000000D02*
X86810000Y-43810000D01*
X175000000Y-57000000D02*
X175000000Y-55000000D01*
%TO.N,/I2C_SCL*%
X152000000Y-51000000D02*
X167000000Y-51000000D01*
X85080000Y-45080000D02*
X84080000Y-45080000D01*
X152000000Y-51000000D02*
X91000000Y-51000000D01*
X91000000Y-51000000D02*
X85080000Y-45080000D01*
X167000000Y-51000000D02*
X175000000Y-59000000D01*
D25*
%TO.N,Net-(J5-CC2)*%
X57554975Y-37554975D02*
X56609950Y-38500000D01*
X56609950Y-38500000D02*
X50500000Y-38500000D01*
D27*
%TO.N,/I2S_SDOUT*%
X89000000Y-64000000D02*
X160000000Y-64000000D01*
X163000000Y-67000000D02*
X175000000Y-67000000D01*
X160000000Y-64000000D02*
X163000000Y-67000000D01*
%TO.N,/I2S_SDIN*%
X80500000Y-52500000D02*
X79000000Y-54000000D01*
X80500000Y-48000000D02*
X80500000Y-52500000D01*
X141000000Y-67000000D02*
X88000000Y-67000000D01*
%TO.N,/I2S_MCLK*%
X89460000Y-54000000D02*
X78000000Y-42540000D01*
X149000000Y-54000000D02*
X89460000Y-54000000D01*
X166000000Y-54000000D02*
X173000000Y-61000000D01*
X173000000Y-61000000D02*
X175000000Y-61000000D01*
X149000000Y-54000000D02*
X166000000Y-54000000D01*
%TO.N,/I2S_LRCK*%
X144000000Y-61000000D02*
X162000000Y-61000000D01*
X166000000Y-65000000D02*
X175000000Y-65000000D01*
X162000000Y-61000000D02*
X166000000Y-65000000D01*
X144000000Y-61000000D02*
X101000000Y-61000000D01*
%TO.N,/I2S_SCLK*%
X146000000Y-58000000D02*
X85000000Y-58000000D01*
X164000000Y-58000000D02*
X169000000Y-63000000D01*
X85000000Y-58000000D02*
X83000000Y-60000000D01*
X169000000Y-63000000D02*
X175000000Y-63000000D01*
X146000000Y-58000000D02*
X164000000Y-58000000D01*
%TO.N,/AMP_CTRL*%
X182750000Y-51750000D02*
X168537500Y-37537500D01*
X182750000Y-80500000D02*
X182750000Y-51750000D01*
%TO.N,/ADC_INT*%
X180000000Y-55000000D02*
X180000000Y-62940984D01*
X170000000Y-45000000D02*
X180000000Y-55000000D01*
X97500000Y-45000000D02*
X170000000Y-45000000D01*
%TO.N,/Audio/AUDIO_OUT*%
X192000000Y-46500000D02*
X189500000Y-44000000D01*
X189500000Y-44000000D02*
X187000000Y-44000000D01*
D26*
%TO.N,V_UNREG*%
X154500000Y-95000000D02*
X158000000Y-98500000D01*
X58000000Y-95000000D02*
X154500000Y-95000000D01*
%TO.N,VBUS*%
X62000000Y-77500000D02*
X62250000Y-77500000D01*
D27*
X52750000Y-40850000D02*
X49600000Y-44000000D01*
D26*
X49600000Y-44000000D02*
X49600000Y-65100000D01*
D27*
X53750000Y-40850000D02*
X52750000Y-40850000D01*
D26*
X49600000Y-65100000D02*
X62000000Y-77500000D01*
D27*
X55500000Y-39100000D02*
X53750000Y-40850000D01*
%TO.N,/ESP_~{EN}*%
X85000000Y-35000000D02*
X78500000Y-35000000D01*
X96500000Y-46500000D02*
X85000000Y-35000000D01*
%TO.N,/E-Paper/PREVGH*%
X100000000Y-120000000D02*
X100000000Y-116000000D01*
X102000000Y-122000000D02*
X100000000Y-120000000D01*
%TO.N,/E-Paper/PREVGL*%
X96000000Y-119000000D02*
X96000000Y-116000000D01*
X102000000Y-125000000D02*
X96000000Y-119000000D01*
%TO.N,/E-Paper/GDR*%
X121650000Y-121650000D02*
X121650000Y-126000000D01*
X105000000Y-105000000D02*
X121650000Y-121650000D01*
X103000000Y-105000000D02*
X105000000Y-105000000D01*
%TO.N,/E-Paper/RESE*%
X107500000Y-110500000D02*
X120000000Y-123000000D01*
X120000000Y-123000000D02*
X120000000Y-126000000D01*
%TO.N,/UART_RTS*%
X81000000Y-59000000D02*
X81000000Y-68380000D01*
X84000000Y-56000000D02*
X81000000Y-59000000D01*
X112000000Y-56000000D02*
X84000000Y-56000000D01*
X81000000Y-68380000D02*
X87620000Y-75000000D01*
%TO.N,/UART_DTR*%
X120000000Y-49500000D02*
X116500000Y-49500000D01*
X95160000Y-70000000D02*
X119000000Y-70000000D01*
X90160000Y-75000000D02*
X95160000Y-70000000D01*
%TD*%
%TA.AperFunction,Conductor*%
%TO.N,+3.3VA*%
G36*
X195000708Y-29964473D02*
G01*
X195213486Y-29966827D01*
X195222888Y-29967290D01*
X195647550Y-30004442D01*
X195658267Y-30005853D01*
X196077380Y-30079754D01*
X196087928Y-30082092D01*
X196499029Y-30192246D01*
X196509309Y-30195487D01*
X196909248Y-30341052D01*
X196919212Y-30345179D01*
X197304932Y-30525043D01*
X197314519Y-30530034D01*
X197683085Y-30742825D01*
X197692195Y-30748629D01*
X198040814Y-30992732D01*
X198049377Y-30999301D01*
X198375402Y-31272868D01*
X198383377Y-31280177D01*
X198684305Y-31581104D01*
X198691613Y-31589079D01*
X198965159Y-31915074D01*
X198971745Y-31923656D01*
X199215849Y-32272269D01*
X199221661Y-32281393D01*
X199434450Y-32649951D01*
X199439445Y-32659546D01*
X199619298Y-33045238D01*
X199623438Y-33055232D01*
X199768996Y-33455141D01*
X199772249Y-33465458D01*
X199882398Y-33876532D01*
X199884739Y-33887093D01*
X199958640Y-34306195D01*
X199960052Y-34316920D01*
X199997205Y-34741541D01*
X199997670Y-34750996D01*
X199999993Y-34963824D01*
X200000000Y-34965177D01*
X200000000Y-129999349D01*
X199999993Y-130000661D01*
X199997742Y-130213453D01*
X199997277Y-130222946D01*
X199960136Y-130647562D01*
X199958724Y-130658288D01*
X199884829Y-131077402D01*
X199882488Y-131087963D01*
X199772344Y-131499049D01*
X199769091Y-131509366D01*
X199623542Y-131909272D01*
X199619403Y-131919267D01*
X199439542Y-132304988D01*
X199434547Y-132314583D01*
X199221758Y-132683151D01*
X199215945Y-132692275D01*
X198971847Y-133040888D01*
X198965269Y-133049460D01*
X198709473Y-133354307D01*
X198691701Y-133375489D01*
X198684392Y-133383464D01*
X198383464Y-133684392D01*
X198375488Y-133691701D01*
X198049460Y-133965269D01*
X198040888Y-133971847D01*
X197692275Y-134215945D01*
X197683151Y-134221758D01*
X197314583Y-134434547D01*
X197304988Y-134439542D01*
X196919267Y-134619403D01*
X196909272Y-134623542D01*
X196509366Y-134769091D01*
X196499049Y-134772344D01*
X196087963Y-134882488D01*
X196077402Y-134884829D01*
X195658288Y-134958724D01*
X195647562Y-134960136D01*
X195222946Y-134997277D01*
X195213453Y-134997742D01*
X195000648Y-134999993D01*
X194999364Y-135000000D01*
X140524028Y-135012097D01*
X140456984Y-134992427D01*
X140411217Y-134939634D01*
X140400000Y-134888097D01*
X140400000Y-129896511D01*
X193149500Y-129896511D01*
X193149500Y-130139088D01*
X193181161Y-130379585D01*
X193243947Y-130613904D01*
X193257889Y-130647562D01*
X193336776Y-130838012D01*
X193458064Y-131048089D01*
X193458066Y-131048092D01*
X193458067Y-131048093D01*
X193605733Y-131240536D01*
X193605739Y-131240543D01*
X193777256Y-131412060D01*
X193777262Y-131412065D01*
X193969711Y-131559736D01*
X194179788Y-131681024D01*
X194403900Y-131773854D01*
X194638211Y-131836638D01*
X194818586Y-131860384D01*
X194878711Y-131868300D01*
X194878712Y-131868300D01*
X195121289Y-131868300D01*
X195169388Y-131861967D01*
X195361789Y-131836638D01*
X195596100Y-131773854D01*
X195820212Y-131681024D01*
X196030289Y-131559736D01*
X196222738Y-131412065D01*
X196394265Y-131240538D01*
X196541936Y-131048089D01*
X196663224Y-130838012D01*
X196756054Y-130613900D01*
X196818838Y-130379589D01*
X196850500Y-130139088D01*
X196850500Y-129896512D01*
X196818838Y-129656011D01*
X196756054Y-129421700D01*
X196663224Y-129197588D01*
X196541936Y-128987511D01*
X196394265Y-128795062D01*
X196394260Y-128795056D01*
X196222743Y-128623539D01*
X196222736Y-128623533D01*
X196030293Y-128475867D01*
X196030292Y-128475866D01*
X196030289Y-128475864D01*
X195820212Y-128354576D01*
X195820205Y-128354573D01*
X195596104Y-128261747D01*
X195361785Y-128198961D01*
X195121289Y-128167300D01*
X195121288Y-128167300D01*
X194878712Y-128167300D01*
X194878711Y-128167300D01*
X194638214Y-128198961D01*
X194403895Y-128261747D01*
X194179794Y-128354573D01*
X194179785Y-128354577D01*
X193969706Y-128475867D01*
X193777263Y-128623533D01*
X193777256Y-128623539D01*
X193605739Y-128795056D01*
X193605733Y-128795063D01*
X193458067Y-128987506D01*
X193336777Y-129197585D01*
X193336773Y-129197594D01*
X193243947Y-129421695D01*
X193181161Y-129656014D01*
X193149500Y-129896511D01*
X140400000Y-129896511D01*
X140400000Y-116385258D01*
X162249500Y-116385258D01*
X162249500Y-116614741D01*
X162274446Y-116804215D01*
X162279452Y-116842238D01*
X162279453Y-116842240D01*
X162338842Y-117063887D01*
X162426650Y-117275876D01*
X162426657Y-117275890D01*
X162541392Y-117474617D01*
X162681081Y-117656661D01*
X162681089Y-117656670D01*
X162843330Y-117818911D01*
X162843338Y-117818918D01*
X163025382Y-117958607D01*
X163025385Y-117958608D01*
X163025388Y-117958611D01*
X163224112Y-118073344D01*
X163224117Y-118073346D01*
X163224123Y-118073349D01*
X163315480Y-118111190D01*
X163436113Y-118161158D01*
X163657762Y-118220548D01*
X163885266Y-118250500D01*
X163885273Y-118250500D01*
X164114727Y-118250500D01*
X164114734Y-118250500D01*
X164342238Y-118220548D01*
X164563887Y-118161158D01*
X164775888Y-118073344D01*
X164974612Y-117958611D01*
X165156661Y-117818919D01*
X165156665Y-117818914D01*
X165156670Y-117818911D01*
X165318911Y-117656670D01*
X165318914Y-117656665D01*
X165318919Y-117656661D01*
X165458611Y-117474612D01*
X165573344Y-117275888D01*
X165661158Y-117063887D01*
X165720548Y-116842238D01*
X165750500Y-116614734D01*
X165750500Y-116385266D01*
X165750499Y-116385258D01*
X193249500Y-116385258D01*
X193249500Y-116614741D01*
X193274446Y-116804215D01*
X193279452Y-116842238D01*
X193279453Y-116842240D01*
X193338842Y-117063887D01*
X193426650Y-117275876D01*
X193426657Y-117275890D01*
X193541392Y-117474617D01*
X193681081Y-117656661D01*
X193681089Y-117656670D01*
X193843330Y-117818911D01*
X193843338Y-117818918D01*
X194025382Y-117958607D01*
X194025385Y-117958608D01*
X194025388Y-117958611D01*
X194224112Y-118073344D01*
X194224117Y-118073346D01*
X194224123Y-118073349D01*
X194315480Y-118111190D01*
X194436113Y-118161158D01*
X194657762Y-118220548D01*
X194885266Y-118250500D01*
X194885273Y-118250500D01*
X195114727Y-118250500D01*
X195114734Y-118250500D01*
X195342238Y-118220548D01*
X195563887Y-118161158D01*
X195775888Y-118073344D01*
X195974612Y-117958611D01*
X196156661Y-117818919D01*
X196156665Y-117818914D01*
X196156670Y-117818911D01*
X196318911Y-117656670D01*
X196318914Y-117656665D01*
X196318919Y-117656661D01*
X196458611Y-117474612D01*
X196573344Y-117275888D01*
X196661158Y-117063887D01*
X196720548Y-116842238D01*
X196750500Y-116614734D01*
X196750500Y-116385266D01*
X196720548Y-116157762D01*
X196661158Y-115936113D01*
X196573344Y-115724112D01*
X196458611Y-115525388D01*
X196458608Y-115525385D01*
X196458607Y-115525382D01*
X196318918Y-115343338D01*
X196318911Y-115343330D01*
X196156670Y-115181089D01*
X196156661Y-115181081D01*
X195974617Y-115041392D01*
X195775890Y-114926657D01*
X195775876Y-114926650D01*
X195563887Y-114838842D01*
X195342238Y-114779452D01*
X195304215Y-114774446D01*
X195114741Y-114749500D01*
X195114734Y-114749500D01*
X194885266Y-114749500D01*
X194885258Y-114749500D01*
X194668715Y-114778009D01*
X194657762Y-114779452D01*
X194564076Y-114804554D01*
X194436112Y-114838842D01*
X194224123Y-114926650D01*
X194224109Y-114926657D01*
X194025382Y-115041392D01*
X193843338Y-115181081D01*
X193681081Y-115343338D01*
X193541392Y-115525382D01*
X193426657Y-115724109D01*
X193426650Y-115724123D01*
X193338842Y-115936112D01*
X193279453Y-116157759D01*
X193279451Y-116157770D01*
X193249500Y-116385258D01*
X165750499Y-116385258D01*
X165720548Y-116157762D01*
X165661158Y-115936113D01*
X165573344Y-115724112D01*
X165458611Y-115525388D01*
X165458608Y-115525385D01*
X165458607Y-115525382D01*
X165318918Y-115343338D01*
X165318911Y-115343330D01*
X165156670Y-115181089D01*
X165156661Y-115181081D01*
X164974617Y-115041392D01*
X164775890Y-114926657D01*
X164775876Y-114926650D01*
X164563887Y-114838842D01*
X164342238Y-114779452D01*
X164304215Y-114774446D01*
X164114741Y-114749500D01*
X164114734Y-114749500D01*
X163885266Y-114749500D01*
X163885258Y-114749500D01*
X163668715Y-114778009D01*
X163657762Y-114779452D01*
X163564076Y-114804554D01*
X163436112Y-114838842D01*
X163224123Y-114926650D01*
X163224109Y-114926657D01*
X163025382Y-115041392D01*
X162843338Y-115181081D01*
X162681081Y-115343338D01*
X162541392Y-115525382D01*
X162426657Y-115724109D01*
X162426650Y-115724123D01*
X162338842Y-115936112D01*
X162279453Y-116157759D01*
X162279451Y-116157770D01*
X162249500Y-116385258D01*
X140400000Y-116385258D01*
X140400000Y-100102155D01*
X178650000Y-100102155D01*
X178650000Y-100750000D01*
X179566988Y-100750000D01*
X179534075Y-100807007D01*
X179500000Y-100934174D01*
X179500000Y-101065826D01*
X179534075Y-101192993D01*
X179566988Y-101250000D01*
X178650000Y-101250000D01*
X178650000Y-101897844D01*
X178656401Y-101957372D01*
X178656403Y-101957379D01*
X178706645Y-102092086D01*
X178706649Y-102092093D01*
X178792809Y-102207187D01*
X178792812Y-102207190D01*
X178907906Y-102293350D01*
X178907913Y-102293354D01*
X179042620Y-102343596D01*
X179042627Y-102343598D01*
X179102155Y-102349999D01*
X179102172Y-102350000D01*
X179750000Y-102350000D01*
X179750000Y-101433012D01*
X179807007Y-101465925D01*
X179934174Y-101500000D01*
X180065826Y-101500000D01*
X180192993Y-101465925D01*
X180250000Y-101433012D01*
X180250000Y-102350000D01*
X180897828Y-102350000D01*
X180897844Y-102349999D01*
X180957372Y-102343598D01*
X180957379Y-102343596D01*
X181092086Y-102293354D01*
X181092093Y-102293350D01*
X181207187Y-102207190D01*
X181207190Y-102207187D01*
X181293350Y-102092093D01*
X181293354Y-102092086D01*
X181343596Y-101957379D01*
X181343598Y-101957372D01*
X181349999Y-101897844D01*
X181350000Y-101897827D01*
X181350000Y-101250000D01*
X180433012Y-101250000D01*
X180465925Y-101192993D01*
X180500000Y-101065826D01*
X180500000Y-100934174D01*
X180465925Y-100807007D01*
X180433012Y-100750000D01*
X181350000Y-100750000D01*
X181350000Y-100102172D01*
X181349999Y-100102155D01*
X181349997Y-100102135D01*
X190649500Y-100102135D01*
X190649500Y-101897870D01*
X190649501Y-101897876D01*
X190655908Y-101957483D01*
X190706202Y-102092328D01*
X190706206Y-102092335D01*
X190792452Y-102207544D01*
X190792455Y-102207547D01*
X190907664Y-102293793D01*
X190907671Y-102293797D01*
X191042517Y-102344091D01*
X191042516Y-102344091D01*
X191049444Y-102344835D01*
X191102127Y-102350500D01*
X192897872Y-102350499D01*
X192957483Y-102344091D01*
X193092331Y-102293796D01*
X193207546Y-102207546D01*
X193293796Y-102092331D01*
X193344091Y-101957483D01*
X193350500Y-101897873D01*
X193350499Y-100102128D01*
X193344091Y-100042517D01*
X193314638Y-99963550D01*
X193293797Y-99907671D01*
X193293793Y-99907664D01*
X193207547Y-99792455D01*
X193207544Y-99792452D01*
X193092335Y-99706206D01*
X193092328Y-99706202D01*
X192957482Y-99655908D01*
X192957483Y-99655908D01*
X192897883Y-99649501D01*
X192897881Y-99649500D01*
X192897873Y-99649500D01*
X192897864Y-99649500D01*
X191102129Y-99649500D01*
X191102123Y-99649501D01*
X191042516Y-99655908D01*
X190907671Y-99706202D01*
X190907664Y-99706206D01*
X190792455Y-99792452D01*
X190792452Y-99792455D01*
X190706206Y-99907664D01*
X190706202Y-99907671D01*
X190655908Y-100042517D01*
X190649501Y-100102116D01*
X190649501Y-100102123D01*
X190649500Y-100102135D01*
X181349997Y-100102135D01*
X181343598Y-100042627D01*
X181343596Y-100042620D01*
X181293354Y-99907913D01*
X181293350Y-99907906D01*
X181207190Y-99792812D01*
X181207187Y-99792809D01*
X181092093Y-99706649D01*
X181092086Y-99706645D01*
X180957379Y-99656403D01*
X180957372Y-99656401D01*
X180897844Y-99650000D01*
X180250000Y-99650000D01*
X180250000Y-100566988D01*
X180192993Y-100534075D01*
X180065826Y-100500000D01*
X179934174Y-100500000D01*
X179807007Y-100534075D01*
X179750000Y-100566988D01*
X179750000Y-99650000D01*
X179102155Y-99650000D01*
X179042627Y-99656401D01*
X179042620Y-99656403D01*
X178907913Y-99706645D01*
X178907906Y-99706649D01*
X178792812Y-99792809D01*
X178792809Y-99792812D01*
X178706649Y-99907906D01*
X178706645Y-99907913D01*
X178656403Y-100042620D01*
X178656401Y-100042627D01*
X178650000Y-100102155D01*
X140400000Y-100102155D01*
X140400000Y-96624500D01*
X140419685Y-96557461D01*
X140472489Y-96511706D01*
X140524000Y-96500500D01*
X153827111Y-96500500D01*
X153894150Y-96520185D01*
X153914792Y-96536819D01*
X156915216Y-99537243D01*
X156918764Y-99540941D01*
X156980252Y-99607734D01*
X156980256Y-99607738D01*
X156998791Y-99622164D01*
X157010310Y-99632337D01*
X157022490Y-99644517D01*
X157029350Y-99649501D01*
X157096298Y-99698143D01*
X157099540Y-99700581D01*
X157176491Y-99760474D01*
X157191219Y-99768444D01*
X157205080Y-99777177D01*
X157213566Y-99783343D01*
X157283435Y-99818943D01*
X157300820Y-99827801D01*
X157303542Y-99829231D01*
X157350670Y-99854734D01*
X157395190Y-99878828D01*
X157404640Y-99882072D01*
X157420670Y-99888868D01*
X157424007Y-99890568D01*
X157523662Y-99922947D01*
X157525368Y-99923518D01*
X157630386Y-99959571D01*
X157630389Y-99959571D01*
X157630391Y-99959572D01*
X157633569Y-99960102D01*
X157643838Y-99962613D01*
X157643887Y-99962413D01*
X157648621Y-99963548D01*
X157648631Y-99963552D01*
X157758673Y-99980979D01*
X157759358Y-99981091D01*
X157875665Y-100000500D01*
X157875667Y-100000500D01*
X158124333Y-100000500D01*
X158124335Y-100000500D01*
X158240659Y-99981088D01*
X158241344Y-99980976D01*
X158351368Y-99963552D01*
X158351379Y-99963548D01*
X158356110Y-99962413D01*
X158356158Y-99962613D01*
X158366414Y-99960104D01*
X158369614Y-99959571D01*
X158474749Y-99923477D01*
X158476345Y-99922944D01*
X158575992Y-99890568D01*
X158579321Y-99888871D01*
X158595355Y-99882074D01*
X158597269Y-99881416D01*
X158604810Y-99878828D01*
X158696524Y-99829194D01*
X158699117Y-99827831D01*
X158786433Y-99783343D01*
X158794916Y-99777178D01*
X158808780Y-99768444D01*
X158823509Y-99760474D01*
X158900465Y-99700575D01*
X158903680Y-99698156D01*
X158977510Y-99644517D01*
X158989699Y-99632327D01*
X159001210Y-99622162D01*
X159019744Y-99607738D01*
X159081234Y-99540940D01*
X159084734Y-99537291D01*
X159144517Y-99477510D01*
X159158604Y-99458119D01*
X159167695Y-99447019D01*
X159188164Y-99424785D01*
X159234139Y-99354412D01*
X159237611Y-99349374D01*
X159283343Y-99286433D01*
X159297285Y-99259066D01*
X159303962Y-99247541D01*
X159324171Y-99216610D01*
X159324174Y-99216605D01*
X159327483Y-99209059D01*
X159355240Y-99145777D01*
X159358280Y-99139358D01*
X159390568Y-99075992D01*
X159402142Y-99040367D01*
X159406511Y-99028894D01*
X159424063Y-98988881D01*
X159441395Y-98920434D01*
X159443669Y-98912560D01*
X159446212Y-98904730D01*
X159463552Y-98851368D01*
X159470460Y-98807745D01*
X159472729Y-98796700D01*
X159485108Y-98747821D01*
X159490386Y-98684119D01*
X159491485Y-98674999D01*
X159500499Y-98618091D01*
X159500499Y-98567201D01*
X159500923Y-98556960D01*
X159505643Y-98500004D01*
X159505643Y-98499995D01*
X159500923Y-98443038D01*
X159500499Y-98432797D01*
X159500499Y-98381905D01*
X159497396Y-98362319D01*
X159491483Y-98324983D01*
X159490386Y-98315884D01*
X159485108Y-98252179D01*
X159485105Y-98252167D01*
X159472726Y-98203282D01*
X159470462Y-98192264D01*
X159463552Y-98148631D01*
X159443666Y-98087429D01*
X159441395Y-98079562D01*
X159424064Y-98011122D01*
X159406511Y-97971106D01*
X159402135Y-97959609D01*
X159390569Y-97924011D01*
X159390568Y-97924006D01*
X159358296Y-97860670D01*
X159355225Y-97854185D01*
X159324173Y-97783393D01*
X159303961Y-97752457D01*
X159297289Y-97740935D01*
X159283349Y-97713578D01*
X159283343Y-97713566D01*
X159277976Y-97706180D01*
X159237614Y-97650625D01*
X159234124Y-97645562D01*
X159188165Y-97575217D01*
X159188164Y-97575215D01*
X159167687Y-97552971D01*
X159158614Y-97541892D01*
X159144517Y-97522490D01*
X159084757Y-97462730D01*
X159081233Y-97459056D01*
X159019747Y-97392265D01*
X159019739Y-97392258D01*
X159001212Y-97377838D01*
X158989692Y-97367665D01*
X155477511Y-93855484D01*
X155286434Y-93716657D01*
X155075996Y-93609433D01*
X154851368Y-93536446D01*
X154618097Y-93499500D01*
X154618092Y-93499500D01*
X140524000Y-93499500D01*
X140456961Y-93479815D01*
X140411206Y-93427011D01*
X140400000Y-93375500D01*
X140400000Y-92102135D01*
X174649500Y-92102135D01*
X174649500Y-93897870D01*
X174649501Y-93897876D01*
X174655908Y-93957483D01*
X174706202Y-94092328D01*
X174706206Y-94092335D01*
X174792452Y-94207544D01*
X174792455Y-94207547D01*
X174907664Y-94293793D01*
X174907671Y-94293797D01*
X175042517Y-94344091D01*
X175042516Y-94344091D01*
X175049444Y-94344835D01*
X175102127Y-94350500D01*
X176897872Y-94350499D01*
X176957483Y-94344091D01*
X177092331Y-94293796D01*
X177207546Y-94207546D01*
X177293796Y-94092331D01*
X177344091Y-93957483D01*
X177350500Y-93897873D01*
X177350499Y-92102128D01*
X177344091Y-92042517D01*
X177293796Y-91907669D01*
X177293795Y-91907668D01*
X177293793Y-91907664D01*
X177207547Y-91792455D01*
X177207544Y-91792452D01*
X177092335Y-91706206D01*
X177092328Y-91706202D01*
X176957482Y-91655908D01*
X176957483Y-91655908D01*
X176897883Y-91649501D01*
X176897881Y-91649500D01*
X176897873Y-91649500D01*
X176897864Y-91649500D01*
X175102129Y-91649500D01*
X175102123Y-91649501D01*
X175042516Y-91655908D01*
X174907671Y-91706202D01*
X174907664Y-91706206D01*
X174792455Y-91792452D01*
X174792452Y-91792455D01*
X174706206Y-91907664D01*
X174706202Y-91907671D01*
X174655908Y-92042517D01*
X174649501Y-92102116D01*
X174649501Y-92102123D01*
X174649500Y-92102135D01*
X140400000Y-92102135D01*
X140400000Y-89000000D01*
X165094540Y-89000000D01*
X165114326Y-89188256D01*
X165114327Y-89188259D01*
X165172818Y-89368277D01*
X165172821Y-89368284D01*
X165267467Y-89532216D01*
X165394129Y-89672888D01*
X165547265Y-89784148D01*
X165547270Y-89784151D01*
X165720192Y-89861142D01*
X165720197Y-89861144D01*
X165905354Y-89900500D01*
X165905355Y-89900500D01*
X166094644Y-89900500D01*
X166094646Y-89900500D01*
X166279803Y-89861144D01*
X166452730Y-89784151D01*
X166605871Y-89672888D01*
X166732533Y-89532216D01*
X166827179Y-89368284D01*
X166885674Y-89188256D01*
X166905460Y-89000000D01*
X166885674Y-88811744D01*
X166827179Y-88631716D01*
X166732533Y-88467784D01*
X166605871Y-88327112D01*
X166605870Y-88327111D01*
X166452734Y-88215851D01*
X166452729Y-88215848D01*
X166279807Y-88138857D01*
X166279802Y-88138855D01*
X166134001Y-88107865D01*
X166094646Y-88099500D01*
X165905354Y-88099500D01*
X165872897Y-88106398D01*
X165720197Y-88138855D01*
X165720192Y-88138857D01*
X165547270Y-88215848D01*
X165547265Y-88215851D01*
X165394129Y-88327111D01*
X165267466Y-88467785D01*
X165172821Y-88631715D01*
X165172818Y-88631722D01*
X165114327Y-88811740D01*
X165114326Y-88811744D01*
X165094540Y-89000000D01*
X140400000Y-89000000D01*
X140400000Y-88000000D01*
X173094540Y-88000000D01*
X173114326Y-88188256D01*
X173114327Y-88188259D01*
X173172818Y-88368277D01*
X173172821Y-88368284D01*
X173267467Y-88532216D01*
X173357063Y-88631722D01*
X173394129Y-88672888D01*
X173547265Y-88784148D01*
X173547270Y-88784151D01*
X173720192Y-88861142D01*
X173720197Y-88861144D01*
X173905354Y-88900500D01*
X173905355Y-88900500D01*
X174094644Y-88900500D01*
X174094646Y-88900500D01*
X174279803Y-88861144D01*
X174452730Y-88784151D01*
X174605871Y-88672888D01*
X174732533Y-88532216D01*
X174827179Y-88368284D01*
X174885674Y-88188256D01*
X174905460Y-88000000D01*
X174885674Y-87811744D01*
X174827179Y-87631716D01*
X174732533Y-87467784D01*
X174605871Y-87327112D01*
X174605870Y-87327111D01*
X174452734Y-87215851D01*
X174452729Y-87215848D01*
X174279807Y-87138857D01*
X174279802Y-87138855D01*
X174134001Y-87107865D01*
X174094646Y-87099500D01*
X173905354Y-87099500D01*
X173872897Y-87106398D01*
X173720197Y-87138855D01*
X173720192Y-87138857D01*
X173547270Y-87215848D01*
X173547265Y-87215851D01*
X173394129Y-87327111D01*
X173267466Y-87467785D01*
X173172821Y-87631715D01*
X173172818Y-87631722D01*
X173114327Y-87811740D01*
X173114326Y-87811744D01*
X173094540Y-88000000D01*
X140400000Y-88000000D01*
X140400000Y-84602135D01*
X174649500Y-84602135D01*
X174649500Y-86397870D01*
X174649501Y-86397876D01*
X174655908Y-86457483D01*
X174706202Y-86592328D01*
X174706206Y-86592335D01*
X174792452Y-86707544D01*
X174792455Y-86707547D01*
X174907664Y-86793793D01*
X174907671Y-86793797D01*
X175042517Y-86844091D01*
X175042516Y-86844091D01*
X175049444Y-86844835D01*
X175102127Y-86850500D01*
X176897872Y-86850499D01*
X176957483Y-86844091D01*
X177092331Y-86793796D01*
X177207546Y-86707546D01*
X177293796Y-86592331D01*
X177344091Y-86457483D01*
X177350500Y-86397873D01*
X177350499Y-84602128D01*
X177344091Y-84542517D01*
X177293796Y-84407669D01*
X177293795Y-84407668D01*
X177293793Y-84407664D01*
X177207547Y-84292455D01*
X177207544Y-84292452D01*
X177092335Y-84206206D01*
X177092328Y-84206202D01*
X176957482Y-84155908D01*
X176957483Y-84155908D01*
X176897883Y-84149501D01*
X176897881Y-84149500D01*
X176897873Y-84149500D01*
X176897864Y-84149500D01*
X175102129Y-84149500D01*
X175102123Y-84149501D01*
X175042516Y-84155908D01*
X174907671Y-84206202D01*
X174907664Y-84206206D01*
X174792455Y-84292452D01*
X174792452Y-84292455D01*
X174706206Y-84407664D01*
X174706202Y-84407671D01*
X174655908Y-84542517D01*
X174649501Y-84602116D01*
X174649501Y-84602123D01*
X174649500Y-84602135D01*
X140400000Y-84602135D01*
X140400000Y-82969665D01*
X161224766Y-82969665D01*
X161224766Y-82969672D01*
X161244961Y-83148918D01*
X161244962Y-83148923D01*
X161304542Y-83319192D01*
X161400515Y-83471931D01*
X161528069Y-83599485D01*
X161680809Y-83695458D01*
X161851076Y-83755037D01*
X161851081Y-83755038D01*
X162030327Y-83775234D01*
X162030331Y-83775234D01*
X162030335Y-83775234D01*
X162209580Y-83755038D01*
X162209583Y-83755037D01*
X162209586Y-83755037D01*
X162379853Y-83695458D01*
X162532593Y-83599485D01*
X162660147Y-83471931D01*
X162756120Y-83319191D01*
X162815699Y-83148924D01*
X162835896Y-82969669D01*
X162815699Y-82790414D01*
X162756120Y-82620147D01*
X162660147Y-82467407D01*
X162532593Y-82339853D01*
X162379854Y-82243880D01*
X162209585Y-82184300D01*
X162209580Y-82184299D01*
X162030335Y-82164104D01*
X162030327Y-82164104D01*
X161851081Y-82184299D01*
X161851076Y-82184300D01*
X161680807Y-82243880D01*
X161528068Y-82339853D01*
X161400515Y-82467406D01*
X161304542Y-82620145D01*
X161244962Y-82790414D01*
X161244961Y-82790419D01*
X161224766Y-82969665D01*
X140400000Y-82969665D01*
X140400000Y-69885258D01*
X162249500Y-69885258D01*
X162249500Y-70114741D01*
X162274446Y-70304215D01*
X162279452Y-70342238D01*
X162279453Y-70342240D01*
X162338842Y-70563887D01*
X162426650Y-70775876D01*
X162426657Y-70775890D01*
X162541392Y-70974617D01*
X162681081Y-71156661D01*
X162681089Y-71156670D01*
X162843330Y-71318911D01*
X162843338Y-71318918D01*
X163025382Y-71458607D01*
X163025385Y-71458608D01*
X163025388Y-71458611D01*
X163224112Y-71573344D01*
X163224117Y-71573346D01*
X163224123Y-71573349D01*
X163315480Y-71611190D01*
X163436113Y-71661158D01*
X163657762Y-71720548D01*
X163885266Y-71750500D01*
X163885273Y-71750500D01*
X164114727Y-71750500D01*
X164114734Y-71750500D01*
X164342238Y-71720548D01*
X164563887Y-71661158D01*
X164775888Y-71573344D01*
X164974612Y-71458611D01*
X165156661Y-71318919D01*
X165156665Y-71318914D01*
X165156670Y-71318911D01*
X165318911Y-71156670D01*
X165318914Y-71156665D01*
X165318919Y-71156661D01*
X165458611Y-70974612D01*
X165573344Y-70775888D01*
X165661158Y-70563887D01*
X165720548Y-70342238D01*
X165750500Y-70114734D01*
X165750500Y-69885266D01*
X165720548Y-69657762D01*
X165661158Y-69436113D01*
X165573344Y-69224112D01*
X165458611Y-69025388D01*
X165458608Y-69025385D01*
X165458607Y-69025382D01*
X165318918Y-68843338D01*
X165318911Y-68843330D01*
X165156670Y-68681089D01*
X165156661Y-68681081D01*
X164974617Y-68541392D01*
X164775890Y-68426657D01*
X164775876Y-68426650D01*
X164563887Y-68338842D01*
X164342238Y-68279452D01*
X164304215Y-68274446D01*
X164114741Y-68249500D01*
X164114734Y-68249500D01*
X163885266Y-68249500D01*
X163885258Y-68249500D01*
X163668715Y-68278009D01*
X163657762Y-68279452D01*
X163564076Y-68304554D01*
X163436112Y-68338842D01*
X163224123Y-68426650D01*
X163224109Y-68426657D01*
X163025382Y-68541392D01*
X162843338Y-68681081D01*
X162681081Y-68843338D01*
X162541392Y-69025382D01*
X162426657Y-69224109D01*
X162426650Y-69224123D01*
X162338842Y-69436112D01*
X162279453Y-69657759D01*
X162279451Y-69657770D01*
X162249500Y-69885258D01*
X140400000Y-69885258D01*
X140400000Y-67874500D01*
X140419685Y-67807461D01*
X140472489Y-67761706D01*
X140524000Y-67750500D01*
X140700028Y-67750500D01*
X140740983Y-67757458D01*
X140820745Y-67785368D01*
X140820750Y-67785369D01*
X140999996Y-67805565D01*
X141000000Y-67805565D01*
X141000004Y-67805565D01*
X141179249Y-67785369D01*
X141179252Y-67785368D01*
X141179255Y-67785368D01*
X141349522Y-67725789D01*
X141502262Y-67629816D01*
X141629816Y-67502262D01*
X141725789Y-67349522D01*
X141785368Y-67179255D01*
X141805565Y-67000000D01*
X141785368Y-66820745D01*
X141725789Y-66650478D01*
X141629816Y-66497738D01*
X141502262Y-66370184D01*
X141349523Y-66274211D01*
X141179254Y-66214631D01*
X141179249Y-66214630D01*
X141000004Y-66194435D01*
X140999996Y-66194435D01*
X140820750Y-66214630D01*
X140820745Y-66214631D01*
X140740983Y-66242542D01*
X140700028Y-66249500D01*
X140524000Y-66249500D01*
X140456961Y-66229815D01*
X140411206Y-66177011D01*
X140400000Y-66125500D01*
X140400000Y-64874500D01*
X140419685Y-64807461D01*
X140472489Y-64761706D01*
X140524000Y-64750500D01*
X159637770Y-64750500D01*
X159704809Y-64770185D01*
X159725451Y-64786819D01*
X161115644Y-66177011D01*
X162417049Y-67478416D01*
X162521584Y-67582951D01*
X162521587Y-67582953D01*
X162521588Y-67582954D01*
X162644503Y-67665083D01*
X162644506Y-67665085D01*
X162701079Y-67688518D01*
X162701080Y-67688518D01*
X162781088Y-67721659D01*
X162897241Y-67744763D01*
X162916468Y-67748587D01*
X162926081Y-67750500D01*
X162926082Y-67750500D01*
X162926083Y-67750500D01*
X163073918Y-67750500D01*
X174700028Y-67750500D01*
X174740983Y-67757458D01*
X174820745Y-67785368D01*
X174820750Y-67785369D01*
X174999996Y-67805565D01*
X175000000Y-67805565D01*
X175000004Y-67805565D01*
X175179249Y-67785369D01*
X175179252Y-67785368D01*
X175179255Y-67785368D01*
X175349522Y-67725789D01*
X175502262Y-67629816D01*
X175629816Y-67502262D01*
X175725789Y-67349522D01*
X175785368Y-67179255D01*
X175805565Y-67000000D01*
X175785368Y-66820745D01*
X175725789Y-66650478D01*
X175629816Y-66497738D01*
X175502262Y-66370184D01*
X175349523Y-66274211D01*
X175179254Y-66214631D01*
X175179249Y-66214630D01*
X175000004Y-66194435D01*
X174999996Y-66194435D01*
X174820750Y-66214630D01*
X174820745Y-66214631D01*
X174740983Y-66242542D01*
X174700028Y-66249500D01*
X163362229Y-66249500D01*
X163295190Y-66229815D01*
X163274548Y-66213181D01*
X160478421Y-63417052D01*
X160478414Y-63417046D01*
X160404729Y-63367812D01*
X160404729Y-63367813D01*
X160355491Y-63334913D01*
X160218917Y-63278343D01*
X160218907Y-63278340D01*
X160073920Y-63249500D01*
X160073918Y-63249500D01*
X140524000Y-63249500D01*
X140456961Y-63229815D01*
X140411206Y-63177011D01*
X140400000Y-63125500D01*
X140400000Y-61874500D01*
X140419685Y-61807461D01*
X140472489Y-61761706D01*
X140524000Y-61750500D01*
X143700028Y-61750500D01*
X143740982Y-61757457D01*
X143820745Y-61785368D01*
X143820750Y-61785369D01*
X143999996Y-61805565D01*
X144000000Y-61805565D01*
X144000004Y-61805565D01*
X144179249Y-61785369D01*
X144179252Y-61785368D01*
X144179255Y-61785368D01*
X144259017Y-61757457D01*
X144299972Y-61750500D01*
X161637770Y-61750500D01*
X161704809Y-61770185D01*
X161725451Y-61786819D01*
X165521580Y-65582948D01*
X165521584Y-65582951D01*
X165644498Y-65665080D01*
X165644511Y-65665087D01*
X165781082Y-65721656D01*
X165781087Y-65721658D01*
X165781091Y-65721658D01*
X165781092Y-65721659D01*
X165926079Y-65750500D01*
X165926082Y-65750500D01*
X166073917Y-65750500D01*
X174700028Y-65750500D01*
X174740983Y-65757458D01*
X174820745Y-65785368D01*
X174820750Y-65785369D01*
X174999996Y-65805565D01*
X175000000Y-65805565D01*
X175000004Y-65805565D01*
X175179249Y-65785369D01*
X175179252Y-65785368D01*
X175179255Y-65785368D01*
X175349522Y-65725789D01*
X175502262Y-65629816D01*
X175629816Y-65502262D01*
X175725789Y-65349522D01*
X175785368Y-65179255D01*
X175805565Y-65000000D01*
X175785368Y-64820745D01*
X175725789Y-64650478D01*
X175629816Y-64497738D01*
X175502262Y-64370184D01*
X175399422Y-64305565D01*
X175349523Y-64274211D01*
X175179254Y-64214631D01*
X175179249Y-64214630D01*
X175000004Y-64194435D01*
X174999996Y-64194435D01*
X174820750Y-64214630D01*
X174820745Y-64214631D01*
X174740983Y-64242542D01*
X174700028Y-64249500D01*
X166362229Y-64249500D01*
X166295190Y-64229815D01*
X166274548Y-64213181D01*
X162478421Y-60417052D01*
X162478414Y-60417046D01*
X162404729Y-60367812D01*
X162404729Y-60367813D01*
X162355491Y-60334913D01*
X162218917Y-60278343D01*
X162218907Y-60278340D01*
X162073920Y-60249500D01*
X162073918Y-60249500D01*
X144299972Y-60249500D01*
X144259017Y-60242542D01*
X144179254Y-60214631D01*
X144179249Y-60214630D01*
X144000004Y-60194435D01*
X143999996Y-60194435D01*
X143820750Y-60214630D01*
X143820745Y-60214631D01*
X143740983Y-60242542D01*
X143700028Y-60249500D01*
X140524000Y-60249500D01*
X140456961Y-60229815D01*
X140411206Y-60177011D01*
X140400000Y-60125500D01*
X140400000Y-58874500D01*
X140419685Y-58807461D01*
X140472489Y-58761706D01*
X140524000Y-58750500D01*
X145700028Y-58750500D01*
X145740982Y-58757457D01*
X145820745Y-58785368D01*
X145820750Y-58785369D01*
X145999996Y-58805565D01*
X146000000Y-58805565D01*
X146000004Y-58805565D01*
X146179249Y-58785369D01*
X146179252Y-58785368D01*
X146179255Y-58785368D01*
X146259017Y-58757457D01*
X146299972Y-58750500D01*
X163637770Y-58750500D01*
X163704809Y-58770185D01*
X163725451Y-58786819D01*
X168521586Y-63582954D01*
X168549639Y-63601697D01*
X168591723Y-63629816D01*
X168644505Y-63665084D01*
X168644507Y-63665085D01*
X168644511Y-63665087D01*
X168781082Y-63721656D01*
X168781087Y-63721658D01*
X168781091Y-63721658D01*
X168781092Y-63721659D01*
X168926079Y-63750500D01*
X168926082Y-63750500D01*
X168926083Y-63750500D01*
X169073918Y-63750500D01*
X174700028Y-63750500D01*
X174740983Y-63757458D01*
X174820745Y-63785368D01*
X174820750Y-63785369D01*
X174999996Y-63805565D01*
X175000000Y-63805565D01*
X175000004Y-63805565D01*
X175179249Y-63785369D01*
X175179252Y-63785368D01*
X175179255Y-63785368D01*
X175349522Y-63725789D01*
X175502262Y-63629816D01*
X175629816Y-63502262D01*
X175725789Y-63349522D01*
X175785368Y-63179255D01*
X175785621Y-63177011D01*
X175805565Y-63000003D01*
X175805565Y-62999996D01*
X175785369Y-62820750D01*
X175785368Y-62820745D01*
X175725788Y-62650476D01*
X175686582Y-62588080D01*
X175629816Y-62497738D01*
X175502262Y-62370184D01*
X175469379Y-62349522D01*
X175349523Y-62274211D01*
X175179254Y-62214631D01*
X175179249Y-62214630D01*
X175000004Y-62194435D01*
X174999996Y-62194435D01*
X174820750Y-62214630D01*
X174820745Y-62214631D01*
X174740983Y-62242542D01*
X174700028Y-62249500D01*
X169362230Y-62249500D01*
X169295191Y-62229815D01*
X169274549Y-62213181D01*
X169061364Y-61999996D01*
X176194435Y-61999996D01*
X176194435Y-62000003D01*
X176214630Y-62179249D01*
X176214631Y-62179254D01*
X176274211Y-62349523D01*
X176367341Y-62497737D01*
X176370184Y-62502262D01*
X176497738Y-62629816D01*
X176580734Y-62681966D01*
X176632721Y-62714632D01*
X176650478Y-62725789D01*
X176788860Y-62774211D01*
X176820745Y-62785368D01*
X176820750Y-62785369D01*
X176999996Y-62805565D01*
X177000000Y-62805565D01*
X177000004Y-62805565D01*
X177179249Y-62785369D01*
X177179252Y-62785368D01*
X177179255Y-62785368D01*
X177349522Y-62725789D01*
X177502262Y-62629816D01*
X177629816Y-62502262D01*
X177725789Y-62349522D01*
X177785368Y-62179255D01*
X177805565Y-62000000D01*
X177785368Y-61820745D01*
X177725789Y-61650478D01*
X177629816Y-61497738D01*
X177502262Y-61370184D01*
X177469379Y-61349522D01*
X177349523Y-61274211D01*
X177179254Y-61214631D01*
X177179249Y-61214630D01*
X177000004Y-61194435D01*
X176999996Y-61194435D01*
X176820750Y-61214630D01*
X176820745Y-61214631D01*
X176650476Y-61274211D01*
X176497737Y-61370184D01*
X176370184Y-61497737D01*
X176274211Y-61650476D01*
X176214631Y-61820745D01*
X176214630Y-61820750D01*
X176194435Y-61999996D01*
X169061364Y-61999996D01*
X164478421Y-57417052D01*
X164478414Y-57417046D01*
X164404729Y-57367812D01*
X164404729Y-57367813D01*
X164355491Y-57334913D01*
X164218917Y-57278343D01*
X164218907Y-57278340D01*
X164073920Y-57249500D01*
X164073918Y-57249500D01*
X146299972Y-57249500D01*
X146259017Y-57242542D01*
X146179254Y-57214631D01*
X146179249Y-57214630D01*
X146000004Y-57194435D01*
X145999996Y-57194435D01*
X145820750Y-57214630D01*
X145820745Y-57214631D01*
X145740983Y-57242542D01*
X145700028Y-57249500D01*
X140524000Y-57249500D01*
X140456961Y-57229815D01*
X140411206Y-57177011D01*
X140400000Y-57125500D01*
X140400000Y-54874500D01*
X140419685Y-54807461D01*
X140472489Y-54761706D01*
X140524000Y-54750500D01*
X148700028Y-54750500D01*
X148740982Y-54757457D01*
X148808496Y-54781082D01*
X148820745Y-54785368D01*
X148820750Y-54785369D01*
X148999996Y-54805565D01*
X149000000Y-54805565D01*
X149000004Y-54805565D01*
X149179249Y-54785369D01*
X149179252Y-54785368D01*
X149179255Y-54785368D01*
X149259017Y-54757457D01*
X149299972Y-54750500D01*
X165637770Y-54750500D01*
X165704809Y-54770185D01*
X165725451Y-54786819D01*
X172521586Y-61582954D01*
X172549639Y-61601697D01*
X172591723Y-61629816D01*
X172644505Y-61665084D01*
X172644507Y-61665085D01*
X172644511Y-61665087D01*
X172781082Y-61721656D01*
X172781087Y-61721658D01*
X172781091Y-61721658D01*
X172781092Y-61721659D01*
X172926079Y-61750500D01*
X172926082Y-61750500D01*
X172926083Y-61750500D01*
X173073917Y-61750500D01*
X174700028Y-61750500D01*
X174740982Y-61757457D01*
X174820745Y-61785368D01*
X174820750Y-61785369D01*
X174999996Y-61805565D01*
X175000000Y-61805565D01*
X175000004Y-61805565D01*
X175179249Y-61785369D01*
X175179252Y-61785368D01*
X175179255Y-61785368D01*
X175349522Y-61725789D01*
X175502262Y-61629816D01*
X175629816Y-61502262D01*
X175725789Y-61349522D01*
X175785368Y-61179255D01*
X175805565Y-61000000D01*
X175785368Y-60820745D01*
X175725789Y-60650478D01*
X175629816Y-60497738D01*
X175502262Y-60370184D01*
X175498487Y-60367812D01*
X175349523Y-60274211D01*
X175179254Y-60214631D01*
X175179249Y-60214630D01*
X175000004Y-60194435D01*
X174999996Y-60194435D01*
X174820750Y-60214630D01*
X174820745Y-60214631D01*
X174740983Y-60242542D01*
X174700028Y-60249500D01*
X173362230Y-60249500D01*
X173295191Y-60229815D01*
X173274549Y-60213181D01*
X166478421Y-53417052D01*
X166478414Y-53417046D01*
X166378818Y-53350499D01*
X166378817Y-53350499D01*
X166355495Y-53334916D01*
X166355488Y-53334912D01*
X166218917Y-53278343D01*
X166218907Y-53278340D01*
X166073920Y-53249500D01*
X166073918Y-53249500D01*
X149299972Y-53249500D01*
X149259017Y-53242542D01*
X149179254Y-53214631D01*
X149179249Y-53214630D01*
X149000004Y-53194435D01*
X148999996Y-53194435D01*
X148820750Y-53214630D01*
X148820745Y-53214631D01*
X148740983Y-53242542D01*
X148700028Y-53249500D01*
X140524000Y-53249500D01*
X140456961Y-53229815D01*
X140411206Y-53177011D01*
X140400000Y-53125500D01*
X140400000Y-51874500D01*
X140419685Y-51807461D01*
X140472489Y-51761706D01*
X140524000Y-51750500D01*
X151700028Y-51750500D01*
X151740982Y-51757457D01*
X151820745Y-51785368D01*
X151820750Y-51785369D01*
X151999996Y-51805565D01*
X152000000Y-51805565D01*
X152000004Y-51805565D01*
X152179249Y-51785369D01*
X152179252Y-51785368D01*
X152179255Y-51785368D01*
X152259017Y-51757457D01*
X152299972Y-51750500D01*
X166637770Y-51750500D01*
X166704809Y-51770185D01*
X166725451Y-51786819D01*
X174246692Y-59308059D01*
X174269358Y-59344125D01*
X174271188Y-59343244D01*
X174274209Y-59349518D01*
X174274211Y-59349522D01*
X174370184Y-59502262D01*
X174497738Y-59629816D01*
X174650478Y-59725789D01*
X174820745Y-59785368D01*
X174820750Y-59785369D01*
X174999996Y-59805565D01*
X175000000Y-59805565D01*
X175000004Y-59805565D01*
X175179249Y-59785369D01*
X175179252Y-59785368D01*
X175179255Y-59785368D01*
X175349522Y-59725789D01*
X175502262Y-59629816D01*
X175629816Y-59502262D01*
X175725789Y-59349522D01*
X175785368Y-59179255D01*
X175805565Y-59000000D01*
X175785368Y-58820745D01*
X175725789Y-58650478D01*
X175629816Y-58497738D01*
X175502262Y-58370184D01*
X175349522Y-58274211D01*
X175349518Y-58274209D01*
X175343244Y-58271188D01*
X175344125Y-58269358D01*
X175308059Y-58246692D01*
X175062479Y-58001112D01*
X175028994Y-57939789D01*
X175033978Y-57870097D01*
X175075850Y-57814164D01*
X175136277Y-57790211D01*
X175179249Y-57785369D01*
X175179252Y-57785368D01*
X175179255Y-57785368D01*
X175349522Y-57725789D01*
X175502262Y-57629816D01*
X175629816Y-57502262D01*
X175725789Y-57349522D01*
X175785368Y-57179255D01*
X175785621Y-57177011D01*
X175805565Y-57000003D01*
X175805565Y-56999996D01*
X175785368Y-56820747D01*
X175785368Y-56820746D01*
X175785368Y-56820745D01*
X175757458Y-56740982D01*
X175750500Y-56700028D01*
X175750500Y-54926079D01*
X175721659Y-54781092D01*
X175721658Y-54781088D01*
X175721658Y-54781087D01*
X175711871Y-54757458D01*
X175665087Y-54644511D01*
X175665084Y-54644506D01*
X175665084Y-54644505D01*
X175623955Y-54582951D01*
X175582952Y-54521584D01*
X172103884Y-51042516D01*
X168478421Y-47417052D01*
X168478414Y-47417046D01*
X168404729Y-47367812D01*
X168404729Y-47367813D01*
X168355491Y-47334913D01*
X168218917Y-47278343D01*
X168218907Y-47278340D01*
X168073920Y-47249500D01*
X168073918Y-47249500D01*
X155299972Y-47249500D01*
X155259017Y-47242542D01*
X155179254Y-47214631D01*
X155179249Y-47214630D01*
X155000004Y-47194435D01*
X154999996Y-47194435D01*
X154820750Y-47214630D01*
X154820745Y-47214631D01*
X154740983Y-47242542D01*
X154700028Y-47249500D01*
X140524000Y-47249500D01*
X140456961Y-47229815D01*
X140411206Y-47177011D01*
X140400000Y-47125500D01*
X140400000Y-45874500D01*
X140419685Y-45807461D01*
X140472489Y-45761706D01*
X140524000Y-45750500D01*
X169637770Y-45750500D01*
X169704809Y-45770185D01*
X169725451Y-45786819D01*
X179213181Y-55274548D01*
X179246666Y-55335871D01*
X179249500Y-55362229D01*
X179249500Y-62641012D01*
X179242542Y-62681966D01*
X179214631Y-62761731D01*
X179194435Y-62940980D01*
X179194435Y-62940987D01*
X179214630Y-63120233D01*
X179214631Y-63120238D01*
X179274211Y-63290507D01*
X179322786Y-63367813D01*
X179370184Y-63443246D01*
X179497738Y-63570800D01*
X179517078Y-63582952D01*
X179647794Y-63665087D01*
X179650478Y-63666773D01*
X179686147Y-63679254D01*
X179820745Y-63726352D01*
X179820750Y-63726353D01*
X179999996Y-63746549D01*
X180000000Y-63746549D01*
X180000004Y-63746549D01*
X180179249Y-63726353D01*
X180179252Y-63726352D01*
X180179255Y-63726352D01*
X180349522Y-63666773D01*
X180502262Y-63570800D01*
X180629816Y-63443246D01*
X180725789Y-63290506D01*
X180785368Y-63120239D01*
X180785369Y-63120233D01*
X180805565Y-62940987D01*
X180805565Y-62940980D01*
X180790307Y-62805565D01*
X180785368Y-62761729D01*
X180757458Y-62681966D01*
X180750500Y-62641012D01*
X180750500Y-54926081D01*
X180744763Y-54897242D01*
X180744763Y-54897240D01*
X180726905Y-54807461D01*
X180721659Y-54781088D01*
X180667408Y-54650117D01*
X180665764Y-54645522D01*
X180582954Y-54521588D01*
X180582953Y-54521587D01*
X180582951Y-54521584D01*
X180478416Y-54417049D01*
X178085915Y-52024548D01*
X170478421Y-44417052D01*
X170478414Y-44417046D01*
X170404729Y-44367812D01*
X170404729Y-44367813D01*
X170355491Y-44334913D01*
X170218917Y-44278343D01*
X170218907Y-44278340D01*
X170073920Y-44249500D01*
X170073918Y-44249500D01*
X140524000Y-44249500D01*
X140456961Y-44229815D01*
X140411206Y-44177011D01*
X140400000Y-44125500D01*
X140400000Y-42024238D01*
X140419685Y-41957199D01*
X140472489Y-41911444D01*
X140524290Y-41900238D01*
X171862419Y-41974853D01*
X171929411Y-41994697D01*
X171949804Y-42011172D01*
X181963181Y-52024548D01*
X181996666Y-52085871D01*
X181999500Y-52112229D01*
X181999500Y-80200028D01*
X181992542Y-80240982D01*
X181964631Y-80320747D01*
X181944435Y-80499996D01*
X181944435Y-80500003D01*
X181964630Y-80679249D01*
X181964631Y-80679254D01*
X182024211Y-80849523D01*
X182054598Y-80897883D01*
X182120184Y-81002262D01*
X182247738Y-81129816D01*
X182400478Y-81225789D01*
X182570745Y-81285368D01*
X182570750Y-81285369D01*
X182749996Y-81305565D01*
X182750000Y-81305565D01*
X182750004Y-81305565D01*
X182929249Y-81285369D01*
X182929252Y-81285368D01*
X182929255Y-81285368D01*
X183099522Y-81225789D01*
X183252262Y-81129816D01*
X183379816Y-81002262D01*
X183475789Y-80849522D01*
X183535368Y-80679255D01*
X183555565Y-80500000D01*
X183535368Y-80320745D01*
X183507458Y-80240982D01*
X183500500Y-80200028D01*
X183500500Y-79102135D01*
X190649500Y-79102135D01*
X190649500Y-80897870D01*
X190649501Y-80897876D01*
X190655908Y-80957483D01*
X190706202Y-81092328D01*
X190706206Y-81092335D01*
X190792452Y-81207544D01*
X190792455Y-81207547D01*
X190907664Y-81293793D01*
X190907671Y-81293797D01*
X191042517Y-81344091D01*
X191042516Y-81344091D01*
X191049444Y-81344835D01*
X191102127Y-81350500D01*
X192897872Y-81350499D01*
X192957483Y-81344091D01*
X193092331Y-81293796D01*
X193207546Y-81207546D01*
X193293796Y-81092331D01*
X193344091Y-80957483D01*
X193350500Y-80897873D01*
X193350499Y-79102128D01*
X193344091Y-79042517D01*
X193293796Y-78907669D01*
X193293795Y-78907668D01*
X193293793Y-78907664D01*
X193207547Y-78792455D01*
X193207544Y-78792452D01*
X193092335Y-78706206D01*
X193092328Y-78706202D01*
X192957482Y-78655908D01*
X192957483Y-78655908D01*
X192897883Y-78649501D01*
X192897881Y-78649500D01*
X192897873Y-78649500D01*
X192897864Y-78649500D01*
X191102129Y-78649500D01*
X191102123Y-78649501D01*
X191042516Y-78655908D01*
X190907671Y-78706202D01*
X190907664Y-78706206D01*
X190792455Y-78792452D01*
X190792452Y-78792455D01*
X190706206Y-78907664D01*
X190706202Y-78907671D01*
X190655908Y-79042517D01*
X190649501Y-79102116D01*
X190649501Y-79102123D01*
X190649500Y-79102135D01*
X183500500Y-79102135D01*
X183500500Y-69885258D01*
X193249500Y-69885258D01*
X193249500Y-70114741D01*
X193274446Y-70304215D01*
X193279452Y-70342238D01*
X193279453Y-70342240D01*
X193338842Y-70563887D01*
X193426650Y-70775876D01*
X193426657Y-70775890D01*
X193541392Y-70974617D01*
X193681081Y-71156661D01*
X193681089Y-71156670D01*
X193843330Y-71318911D01*
X193843338Y-71318918D01*
X194025382Y-71458607D01*
X194025385Y-71458608D01*
X194025388Y-71458611D01*
X194224112Y-71573344D01*
X194224117Y-71573346D01*
X194224123Y-71573349D01*
X194315480Y-71611190D01*
X194436113Y-71661158D01*
X194657762Y-71720548D01*
X194885266Y-71750500D01*
X194885273Y-71750500D01*
X195114727Y-71750500D01*
X195114734Y-71750500D01*
X195342238Y-71720548D01*
X195563887Y-71661158D01*
X195775888Y-71573344D01*
X195974612Y-71458611D01*
X196156661Y-71318919D01*
X196156665Y-71318914D01*
X196156670Y-71318911D01*
X196318911Y-71156670D01*
X196318914Y-71156665D01*
X196318919Y-71156661D01*
X196458611Y-70974612D01*
X196573344Y-70775888D01*
X196661158Y-70563887D01*
X196720548Y-70342238D01*
X196750500Y-70114734D01*
X196750500Y-69885266D01*
X196720548Y-69657762D01*
X196661158Y-69436113D01*
X196573344Y-69224112D01*
X196458611Y-69025388D01*
X196458608Y-69025385D01*
X196458607Y-69025382D01*
X196318918Y-68843338D01*
X196318911Y-68843330D01*
X196156670Y-68681089D01*
X196156661Y-68681081D01*
X195974617Y-68541392D01*
X195775890Y-68426657D01*
X195775876Y-68426650D01*
X195563887Y-68338842D01*
X195342238Y-68279452D01*
X195304215Y-68274446D01*
X195114741Y-68249500D01*
X195114734Y-68249500D01*
X194885266Y-68249500D01*
X194885258Y-68249500D01*
X194668715Y-68278009D01*
X194657762Y-68279452D01*
X194564076Y-68304554D01*
X194436112Y-68338842D01*
X194224123Y-68426650D01*
X194224109Y-68426657D01*
X194025382Y-68541392D01*
X193843338Y-68681081D01*
X193681081Y-68843338D01*
X193541392Y-69025382D01*
X193426657Y-69224109D01*
X193426650Y-69224123D01*
X193338842Y-69436112D01*
X193279453Y-69657759D01*
X193279451Y-69657770D01*
X193249500Y-69885258D01*
X183500500Y-69885258D01*
X183500500Y-63499996D01*
X186694435Y-63499996D01*
X186694435Y-63500003D01*
X186714630Y-63679249D01*
X186714631Y-63679254D01*
X186774211Y-63849523D01*
X186822317Y-63926082D01*
X186870184Y-64002262D01*
X186997738Y-64129816D01*
X187088080Y-64186582D01*
X187132721Y-64214632D01*
X187150478Y-64225789D01*
X187288860Y-64274211D01*
X187320745Y-64285368D01*
X187320750Y-64285369D01*
X187499996Y-64305565D01*
X187500000Y-64305565D01*
X187500004Y-64305565D01*
X187679249Y-64285369D01*
X187679252Y-64285368D01*
X187679255Y-64285368D01*
X187849522Y-64225789D01*
X188002262Y-64129816D01*
X188129816Y-64002262D01*
X188225789Y-63849522D01*
X188285368Y-63679255D01*
X188285369Y-63679249D01*
X188305565Y-63500003D01*
X188305565Y-63499996D01*
X188285369Y-63320750D01*
X188285368Y-63320745D01*
X188270531Y-63278343D01*
X188225789Y-63150478D01*
X188129816Y-62997738D01*
X188002262Y-62870184D01*
X187849523Y-62774211D01*
X187679254Y-62714631D01*
X187679249Y-62714630D01*
X187500004Y-62694435D01*
X187499996Y-62694435D01*
X187320750Y-62714630D01*
X187320745Y-62714631D01*
X187150476Y-62774211D01*
X186997737Y-62870184D01*
X186870184Y-62997737D01*
X186774211Y-63150476D01*
X186714631Y-63320745D01*
X186714630Y-63320750D01*
X186694435Y-63499996D01*
X183500500Y-63499996D01*
X183500500Y-51676079D01*
X183471659Y-51531092D01*
X183471658Y-51531091D01*
X183471658Y-51531087D01*
X183449841Y-51478416D01*
X183415087Y-51394511D01*
X183415080Y-51394498D01*
X183332952Y-51271585D01*
X183332951Y-51271584D01*
X183228416Y-51167049D01*
X183163502Y-51102135D01*
X185149500Y-51102135D01*
X185149500Y-52897870D01*
X185149501Y-52897876D01*
X185155908Y-52957483D01*
X185206202Y-53092328D01*
X185206206Y-53092335D01*
X185292452Y-53207544D01*
X185292455Y-53207547D01*
X185407664Y-53293793D01*
X185407671Y-53293797D01*
X185542517Y-53344091D01*
X185542516Y-53344091D01*
X185549444Y-53344835D01*
X185602127Y-53350500D01*
X187397872Y-53350499D01*
X187457483Y-53344091D01*
X187592331Y-53293796D01*
X187707546Y-53207546D01*
X187793796Y-53092331D01*
X187844091Y-52957483D01*
X187850500Y-52897873D01*
X187850499Y-51102128D01*
X187844091Y-51042517D01*
X187793796Y-50907669D01*
X187793795Y-50907668D01*
X187793793Y-50907664D01*
X187707547Y-50792455D01*
X187707544Y-50792452D01*
X187592335Y-50706206D01*
X187592328Y-50706202D01*
X187457482Y-50655908D01*
X187457483Y-50655908D01*
X187397883Y-50649501D01*
X187397881Y-50649500D01*
X187397873Y-50649500D01*
X187397864Y-50649500D01*
X185602129Y-50649500D01*
X185602123Y-50649501D01*
X185542516Y-50655908D01*
X185407671Y-50706202D01*
X185407664Y-50706206D01*
X185292455Y-50792452D01*
X185292452Y-50792455D01*
X185206206Y-50907664D01*
X185206202Y-50907671D01*
X185155908Y-51042517D01*
X185149501Y-51102116D01*
X185149501Y-51102123D01*
X185149500Y-51102135D01*
X183163502Y-51102135D01*
X176061364Y-43999996D01*
X186194435Y-43999996D01*
X186194435Y-44000003D01*
X186214630Y-44179249D01*
X186214631Y-44179254D01*
X186274211Y-44349523D01*
X186316639Y-44417046D01*
X186370184Y-44502262D01*
X186497738Y-44629816D01*
X186588080Y-44686582D01*
X186642133Y-44720546D01*
X186650478Y-44725789D01*
X186808511Y-44781087D01*
X186820745Y-44785368D01*
X186820750Y-44785369D01*
X186999996Y-44805565D01*
X187000000Y-44805565D01*
X187000004Y-44805565D01*
X187179249Y-44785369D01*
X187179252Y-44785368D01*
X187179255Y-44785368D01*
X187259017Y-44757457D01*
X187299972Y-44750500D01*
X189137770Y-44750500D01*
X189204809Y-44770185D01*
X189225451Y-44786819D01*
X190376451Y-45937819D01*
X190409936Y-45999142D01*
X190404952Y-46068834D01*
X190363080Y-46124767D01*
X190297616Y-46149184D01*
X190288770Y-46149500D01*
X188602129Y-46149500D01*
X188602123Y-46149501D01*
X188542516Y-46155908D01*
X188407671Y-46206202D01*
X188407664Y-46206206D01*
X188292455Y-46292452D01*
X188292452Y-46292455D01*
X188206206Y-46407664D01*
X188206202Y-46407671D01*
X188155908Y-46542517D01*
X188149501Y-46602116D01*
X188149500Y-46602135D01*
X188149500Y-48397870D01*
X188149501Y-48397876D01*
X188155908Y-48457483D01*
X188206202Y-48592328D01*
X188206206Y-48592335D01*
X188292452Y-48707544D01*
X188292455Y-48707547D01*
X188407664Y-48793793D01*
X188407671Y-48793797D01*
X188542517Y-48844091D01*
X188542516Y-48844091D01*
X188549444Y-48844835D01*
X188602127Y-48850500D01*
X190397872Y-48850499D01*
X190457483Y-48844091D01*
X190592331Y-48793796D01*
X190707546Y-48707546D01*
X190793796Y-48592331D01*
X190844091Y-48457483D01*
X190850500Y-48397873D01*
X190850499Y-46711228D01*
X190870184Y-46644190D01*
X190922987Y-46598435D01*
X190992146Y-46588491D01*
X191055702Y-46617516D01*
X191062180Y-46623548D01*
X191246692Y-46808060D01*
X191269356Y-46844129D01*
X191271188Y-46843247D01*
X191274207Y-46849516D01*
X191370184Y-47002262D01*
X191497738Y-47129816D01*
X191572848Y-47177011D01*
X191632721Y-47214632D01*
X191650478Y-47225789D01*
X191800660Y-47278340D01*
X191820745Y-47285368D01*
X191820750Y-47285369D01*
X191999996Y-47305565D01*
X192000000Y-47305565D01*
X192000004Y-47305565D01*
X192179249Y-47285369D01*
X192179252Y-47285368D01*
X192179255Y-47285368D01*
X192349522Y-47225789D01*
X192502262Y-47129816D01*
X192629816Y-47002262D01*
X192725789Y-46849522D01*
X192785368Y-46679255D01*
X192791645Y-46623548D01*
X192805565Y-46500003D01*
X192805565Y-46499996D01*
X192785369Y-46320750D01*
X192785368Y-46320745D01*
X192745288Y-46206204D01*
X192725789Y-46150478D01*
X192725174Y-46149500D01*
X192629815Y-45997737D01*
X192502262Y-45870184D01*
X192349516Y-45774207D01*
X192343247Y-45771188D01*
X192344129Y-45769356D01*
X192308060Y-45746692D01*
X189978421Y-43417052D01*
X189978414Y-43417046D01*
X189904729Y-43367812D01*
X189904729Y-43367813D01*
X189855491Y-43334913D01*
X189718917Y-43278343D01*
X189718907Y-43278340D01*
X189573920Y-43249500D01*
X189573918Y-43249500D01*
X187299972Y-43249500D01*
X187259017Y-43242542D01*
X187179254Y-43214631D01*
X187179249Y-43214630D01*
X187000004Y-43194435D01*
X186999996Y-43194435D01*
X186820750Y-43214630D01*
X186820745Y-43214631D01*
X186650476Y-43274211D01*
X186497737Y-43370184D01*
X186370184Y-43497737D01*
X186274211Y-43650476D01*
X186214631Y-43820745D01*
X186214630Y-43820750D01*
X186194435Y-43999996D01*
X176061364Y-43999996D01*
X174946626Y-42885258D01*
X193249500Y-42885258D01*
X193249500Y-43114741D01*
X193271040Y-43278342D01*
X193279452Y-43342238D01*
X193286305Y-43367813D01*
X193338842Y-43563887D01*
X193426650Y-43775876D01*
X193426657Y-43775890D01*
X193541392Y-43974617D01*
X193681081Y-44156661D01*
X193681089Y-44156670D01*
X193843330Y-44318911D01*
X193843338Y-44318918D01*
X194025382Y-44458607D01*
X194025385Y-44458608D01*
X194025388Y-44458611D01*
X194224112Y-44573344D01*
X194224117Y-44573346D01*
X194224123Y-44573349D01*
X194315480Y-44611190D01*
X194436113Y-44661158D01*
X194657762Y-44720548D01*
X194885266Y-44750500D01*
X194885273Y-44750500D01*
X195114727Y-44750500D01*
X195114734Y-44750500D01*
X195342238Y-44720548D01*
X195563887Y-44661158D01*
X195775888Y-44573344D01*
X195974612Y-44458611D01*
X196156661Y-44318919D01*
X196156665Y-44318914D01*
X196156670Y-44318911D01*
X196318911Y-44156670D01*
X196318914Y-44156665D01*
X196318919Y-44156661D01*
X196458611Y-43974612D01*
X196573344Y-43775888D01*
X196661158Y-43563887D01*
X196720548Y-43342238D01*
X196750500Y-43114734D01*
X196750500Y-42885266D01*
X196720548Y-42657762D01*
X196661158Y-42436113D01*
X196573344Y-42224112D01*
X196458611Y-42025388D01*
X196458608Y-42025385D01*
X196458607Y-42025382D01*
X196344855Y-41877139D01*
X196318919Y-41843339D01*
X196318918Y-41843338D01*
X196318911Y-41843330D01*
X196156670Y-41681089D01*
X196156661Y-41681081D01*
X195974617Y-41541392D01*
X195775890Y-41426657D01*
X195775876Y-41426650D01*
X195563887Y-41338842D01*
X195342238Y-41279452D01*
X195304215Y-41274446D01*
X195114741Y-41249500D01*
X195114734Y-41249500D01*
X194885266Y-41249500D01*
X194885258Y-41249500D01*
X194668715Y-41278009D01*
X194657762Y-41279452D01*
X194564076Y-41304554D01*
X194436112Y-41338842D01*
X194224123Y-41426650D01*
X194224109Y-41426657D01*
X194025382Y-41541392D01*
X193843338Y-41681081D01*
X193681081Y-41843338D01*
X193541392Y-42025382D01*
X193426657Y-42224109D01*
X193426650Y-42224123D01*
X193338842Y-42436112D01*
X193279453Y-42657759D01*
X193279451Y-42657770D01*
X193249500Y-42885258D01*
X174946626Y-42885258D01*
X174035785Y-41974417D01*
X174002301Y-41913096D01*
X173999470Y-41887458D01*
X173995523Y-41198543D01*
X182999499Y-41198543D01*
X183037947Y-41391829D01*
X183037950Y-41391839D01*
X183113364Y-41573907D01*
X183113371Y-41573920D01*
X183222860Y-41737781D01*
X183222863Y-41737785D01*
X183362214Y-41877136D01*
X183362218Y-41877139D01*
X183526079Y-41986628D01*
X183526092Y-41986635D01*
X183708160Y-42062049D01*
X183708165Y-42062051D01*
X183708169Y-42062051D01*
X183708170Y-42062052D01*
X183901456Y-42100500D01*
X183901459Y-42100500D01*
X184098543Y-42100500D01*
X184228582Y-42074632D01*
X184291835Y-42062051D01*
X184473914Y-41986632D01*
X184637782Y-41877139D01*
X184777139Y-41737782D01*
X184886632Y-41573914D01*
X184962051Y-41391835D01*
X184974632Y-41328582D01*
X185000500Y-41198543D01*
X185000500Y-41001456D01*
X184962052Y-40808170D01*
X184962051Y-40808169D01*
X184962051Y-40808165D01*
X184962049Y-40808160D01*
X184886635Y-40626092D01*
X184886628Y-40626079D01*
X184777139Y-40462218D01*
X184777136Y-40462214D01*
X184637785Y-40322863D01*
X184637781Y-40322860D01*
X184473920Y-40213371D01*
X184473907Y-40213364D01*
X184291839Y-40137950D01*
X184291829Y-40137947D01*
X184098543Y-40099500D01*
X184098541Y-40099500D01*
X183901459Y-40099500D01*
X183901457Y-40099500D01*
X183708170Y-40137947D01*
X183708160Y-40137950D01*
X183526092Y-40213364D01*
X183526079Y-40213371D01*
X183362218Y-40322860D01*
X183362214Y-40322863D01*
X183222863Y-40462214D01*
X183222860Y-40462218D01*
X183113371Y-40626079D01*
X183113364Y-40626092D01*
X183037950Y-40808160D01*
X183037947Y-40808170D01*
X182999500Y-41001456D01*
X182999500Y-41001459D01*
X182999500Y-41198541D01*
X182999500Y-41198543D01*
X182999499Y-41198543D01*
X173995523Y-41198543D01*
X173955420Y-34198543D01*
X182999499Y-34198543D01*
X183037947Y-34391829D01*
X183037950Y-34391839D01*
X183113364Y-34573907D01*
X183113371Y-34573920D01*
X183222860Y-34737781D01*
X183222863Y-34737785D01*
X183362214Y-34877136D01*
X183362218Y-34877139D01*
X183526079Y-34986628D01*
X183526092Y-34986635D01*
X183708160Y-35062049D01*
X183708165Y-35062051D01*
X183708169Y-35062051D01*
X183708170Y-35062052D01*
X183901456Y-35100500D01*
X183901459Y-35100500D01*
X184098543Y-35100500D01*
X184228582Y-35074632D01*
X184291835Y-35062051D01*
X184473914Y-34986632D01*
X184637782Y-34877139D01*
X184671710Y-34843211D01*
X193149500Y-34843211D01*
X193149500Y-35085788D01*
X193181161Y-35326285D01*
X193243947Y-35560604D01*
X193336773Y-35784705D01*
X193336776Y-35784712D01*
X193458064Y-35994789D01*
X193458066Y-35994792D01*
X193458067Y-35994793D01*
X193605733Y-36187236D01*
X193605739Y-36187243D01*
X193777256Y-36358760D01*
X193777262Y-36358765D01*
X193969711Y-36506436D01*
X194179788Y-36627724D01*
X194403900Y-36720554D01*
X194638211Y-36783338D01*
X194818586Y-36807084D01*
X194878711Y-36815000D01*
X194878712Y-36815000D01*
X195121289Y-36815000D01*
X195169388Y-36808667D01*
X195361789Y-36783338D01*
X195596100Y-36720554D01*
X195820212Y-36627724D01*
X196030289Y-36506436D01*
X196222738Y-36358765D01*
X196394265Y-36187238D01*
X196541936Y-35994789D01*
X196663224Y-35784712D01*
X196756054Y-35560600D01*
X196818838Y-35326289D01*
X196850500Y-35085788D01*
X196850500Y-34843212D01*
X196818838Y-34602711D01*
X196756054Y-34368400D01*
X196663224Y-34144288D01*
X196541936Y-33934211D01*
X196394265Y-33741762D01*
X196394260Y-33741756D01*
X196222743Y-33570239D01*
X196222736Y-33570233D01*
X196030293Y-33422567D01*
X196030292Y-33422566D01*
X196030289Y-33422564D01*
X195820212Y-33301276D01*
X195820205Y-33301273D01*
X195596104Y-33208447D01*
X195361785Y-33145661D01*
X195121289Y-33114000D01*
X195121288Y-33114000D01*
X194878712Y-33114000D01*
X194878711Y-33114000D01*
X194638214Y-33145661D01*
X194403895Y-33208447D01*
X194179794Y-33301273D01*
X194179785Y-33301277D01*
X193969706Y-33422567D01*
X193777263Y-33570233D01*
X193777256Y-33570239D01*
X193605739Y-33741756D01*
X193605733Y-33741763D01*
X193458067Y-33934206D01*
X193336777Y-34144285D01*
X193336773Y-34144294D01*
X193243947Y-34368395D01*
X193181161Y-34602714D01*
X193149500Y-34843211D01*
X184671710Y-34843211D01*
X184777139Y-34737782D01*
X184886632Y-34573914D01*
X184962051Y-34391835D01*
X185000500Y-34198541D01*
X185000500Y-34001459D01*
X185000500Y-34001456D01*
X184962052Y-33808170D01*
X184962051Y-33808169D01*
X184962051Y-33808165D01*
X184925806Y-33720661D01*
X184886635Y-33626092D01*
X184886628Y-33626079D01*
X184777139Y-33462218D01*
X184777136Y-33462214D01*
X184637785Y-33322863D01*
X184637781Y-33322860D01*
X184473920Y-33213371D01*
X184473907Y-33213364D01*
X184291839Y-33137950D01*
X184291829Y-33137947D01*
X184098543Y-33099500D01*
X184098541Y-33099500D01*
X183901459Y-33099500D01*
X183901457Y-33099500D01*
X183708170Y-33137947D01*
X183708160Y-33137950D01*
X183526092Y-33213364D01*
X183526079Y-33213371D01*
X183362218Y-33322860D01*
X183362214Y-33322863D01*
X183222863Y-33462214D01*
X183222860Y-33462218D01*
X183113371Y-33626079D01*
X183113364Y-33626092D01*
X183037950Y-33808160D01*
X183037947Y-33808170D01*
X182999500Y-34001456D01*
X182999500Y-34001459D01*
X182999500Y-34198541D01*
X182999500Y-34198543D01*
X182999499Y-34198543D01*
X173955420Y-34198543D01*
X173931908Y-30094552D01*
X173951208Y-30027402D01*
X174003749Y-29981346D01*
X174055874Y-29969843D01*
X175117351Y-29969570D01*
X194999362Y-29964466D01*
X195000708Y-29964473D01*
G37*
%TD.AperFunction*%
%TD*%
%TA.AperFunction,NonConductor*%
G36*
X154740982Y-48757457D02*
G01*
X154820745Y-48785368D01*
X154820750Y-48785369D01*
X154999996Y-48805565D01*
X155000000Y-48805565D01*
X155000004Y-48805565D01*
X155179249Y-48785369D01*
X155179252Y-48785368D01*
X155179255Y-48785368D01*
X155259017Y-48757457D01*
X155299972Y-48750500D01*
X167637770Y-48750500D01*
X167704809Y-48770185D01*
X167725451Y-48786819D01*
X174213181Y-55274549D01*
X174246666Y-55335872D01*
X174249500Y-55362230D01*
X174249500Y-56700028D01*
X174242542Y-56740982D01*
X174214631Y-56820746D01*
X174209788Y-56863725D01*
X174182720Y-56928138D01*
X174125124Y-56967692D01*
X174055287Y-56969829D01*
X173998887Y-56937520D01*
X167478421Y-50417052D01*
X167478414Y-50417046D01*
X167404729Y-50367812D01*
X167404729Y-50367813D01*
X167355491Y-50334913D01*
X167218917Y-50278343D01*
X167218907Y-50278340D01*
X167073920Y-50249500D01*
X167073918Y-50249500D01*
X152299972Y-50249500D01*
X152259017Y-50242542D01*
X152179254Y-50214631D01*
X152179249Y-50214630D01*
X152000004Y-50194435D01*
X151999996Y-50194435D01*
X151820750Y-50214630D01*
X151820745Y-50214631D01*
X151740983Y-50242542D01*
X151700028Y-50249500D01*
X140524000Y-50249500D01*
X140456961Y-50229815D01*
X140411206Y-50177011D01*
X140400000Y-50125500D01*
X140400000Y-48874500D01*
X140419685Y-48807461D01*
X140472489Y-48761706D01*
X140524000Y-48750500D01*
X154700028Y-48750500D01*
X154740982Y-48757457D01*
G37*
%TD.AperFunction*%
%TA.AperFunction,Conductor*%
%TO.N,+3V3*%
G36*
X173369407Y-29989704D02*
G01*
X173415175Y-30042497D01*
X173426392Y-30093327D01*
X173449068Y-34051243D01*
X173449928Y-34201439D01*
X173450852Y-34362790D01*
X173431552Y-34429941D01*
X173379011Y-34475998D01*
X173326854Y-34487500D01*
X172500000Y-34487500D01*
X172500000Y-36787500D01*
X173341452Y-36787500D01*
X173408491Y-36807185D01*
X173454246Y-36859989D01*
X173465450Y-36910790D01*
X173489171Y-41051243D01*
X173489171Y-41051244D01*
X173489611Y-41128174D01*
X173470310Y-41195325D01*
X173417769Y-41241381D01*
X173348668Y-41251720D01*
X173284948Y-41223059D01*
X173277932Y-41216564D01*
X169253307Y-37191939D01*
X169230653Y-37155869D01*
X169228813Y-37156756D01*
X169225792Y-37150484D01*
X169225789Y-37150480D01*
X169225789Y-37150478D01*
X169129816Y-36997738D01*
X169002262Y-36870184D01*
X168969404Y-36849538D01*
X168849523Y-36774211D01*
X168679254Y-36714631D01*
X168679249Y-36714630D01*
X168500004Y-36694435D01*
X168499996Y-36694435D01*
X168320750Y-36714630D01*
X168320745Y-36714631D01*
X168150476Y-36774211D01*
X167997737Y-36870184D01*
X167870184Y-36997737D01*
X167774211Y-37150476D01*
X167714631Y-37320745D01*
X167714630Y-37320750D01*
X167694435Y-37499996D01*
X167694435Y-37500003D01*
X167714630Y-37679249D01*
X167714631Y-37679254D01*
X167774211Y-37849523D01*
X167815122Y-37914632D01*
X167870184Y-38002262D01*
X167997738Y-38129816D01*
X168150478Y-38225789D01*
X168150480Y-38225789D01*
X168150484Y-38225792D01*
X168156756Y-38228813D01*
X168155869Y-38230653D01*
X168191939Y-38253307D01*
X171194501Y-41255869D01*
X171227986Y-41317192D01*
X171223002Y-41386884D01*
X171181130Y-41442817D01*
X171115666Y-41467234D01*
X171106525Y-41467550D01*
X140525497Y-41394738D01*
X140455098Y-41402182D01*
X140417409Y-41406167D01*
X140417405Y-41406167D01*
X140417403Y-41406168D01*
X140417398Y-41406169D01*
X140365604Y-41417373D01*
X140262495Y-41451625D01*
X140262493Y-41451626D01*
X140141462Y-41529408D01*
X140141451Y-41529417D01*
X140088659Y-41575161D01*
X139994433Y-41683902D01*
X139994430Y-41683906D01*
X139934664Y-41814772D01*
X139914976Y-41881820D01*
X139894500Y-42024239D01*
X139894500Y-44125500D01*
X139874815Y-44192539D01*
X139822011Y-44238294D01*
X139770500Y-44249500D01*
X105315398Y-44249500D01*
X105248359Y-44229815D01*
X105202604Y-44177011D01*
X105192660Y-44107853D01*
X105221685Y-44044297D01*
X105223248Y-44042528D01*
X105232533Y-44032216D01*
X105327179Y-43868284D01*
X105385674Y-43688256D01*
X105405460Y-43500000D01*
X105385674Y-43311744D01*
X105327179Y-43131716D01*
X105232533Y-42967784D01*
X105105871Y-42827112D01*
X105105870Y-42827111D01*
X104952734Y-42715851D01*
X104952729Y-42715848D01*
X104779807Y-42638857D01*
X104779802Y-42638855D01*
X104634001Y-42607865D01*
X104594646Y-42599500D01*
X104405354Y-42599500D01*
X104372897Y-42606398D01*
X104220197Y-42638855D01*
X104220192Y-42638857D01*
X104047270Y-42715848D01*
X104047265Y-42715851D01*
X103894129Y-42827111D01*
X103767466Y-42967785D01*
X103672821Y-43131715D01*
X103672818Y-43131722D01*
X103614327Y-43311740D01*
X103614326Y-43311744D01*
X103594540Y-43500000D01*
X103614326Y-43688256D01*
X103614327Y-43688259D01*
X103672818Y-43868277D01*
X103672821Y-43868284D01*
X103767467Y-44032216D01*
X103776752Y-44042528D01*
X103806982Y-44105519D01*
X103798357Y-44174855D01*
X103753615Y-44228520D01*
X103686963Y-44249478D01*
X103684602Y-44249500D01*
X97799972Y-44249500D01*
X97759017Y-44242542D01*
X97679254Y-44214631D01*
X97679249Y-44214630D01*
X97500004Y-44194435D01*
X97499996Y-44194435D01*
X97320750Y-44214630D01*
X97320745Y-44214631D01*
X97150476Y-44274211D01*
X96997737Y-44370184D01*
X96870184Y-44497737D01*
X96774211Y-44650476D01*
X96714631Y-44820745D01*
X96714630Y-44820750D01*
X96694435Y-44999996D01*
X96694435Y-45000003D01*
X96714630Y-45179249D01*
X96714631Y-45179254D01*
X96774211Y-45349523D01*
X96802939Y-45395243D01*
X96821939Y-45462480D01*
X96801571Y-45529315D01*
X96748303Y-45574529D01*
X96679047Y-45583766D01*
X96615790Y-45554095D01*
X96610264Y-45548896D01*
X91561368Y-40500000D01*
X103594540Y-40500000D01*
X103614326Y-40688256D01*
X103614327Y-40688259D01*
X103672818Y-40868277D01*
X103672821Y-40868284D01*
X103767467Y-41032216D01*
X103853868Y-41128174D01*
X103894129Y-41172888D01*
X104047265Y-41284148D01*
X104047270Y-41284151D01*
X104220192Y-41361142D01*
X104220197Y-41361144D01*
X104405354Y-41400500D01*
X104405355Y-41400500D01*
X104594644Y-41400500D01*
X104594646Y-41400500D01*
X104779803Y-41361144D01*
X104952730Y-41284151D01*
X105105871Y-41172888D01*
X105232533Y-41032216D01*
X105327179Y-40868284D01*
X105385674Y-40688256D01*
X105405460Y-40500000D01*
X105385674Y-40311744D01*
X105327179Y-40131716D01*
X105232533Y-39967784D01*
X105105871Y-39827112D01*
X105093412Y-39818060D01*
X104952734Y-39715851D01*
X104952729Y-39715848D01*
X104779807Y-39638857D01*
X104779802Y-39638855D01*
X104607640Y-39602262D01*
X104594646Y-39599500D01*
X104405354Y-39599500D01*
X104392360Y-39602262D01*
X104220197Y-39638855D01*
X104220192Y-39638857D01*
X104047270Y-39715848D01*
X104047265Y-39715851D01*
X103894129Y-39827111D01*
X103767466Y-39967785D01*
X103672821Y-40131715D01*
X103672818Y-40131722D01*
X103618456Y-40299032D01*
X103614326Y-40311744D01*
X103594540Y-40500000D01*
X91561368Y-40500000D01*
X85478421Y-34417052D01*
X85478420Y-34417051D01*
X85408277Y-34370184D01*
X85386292Y-34355494D01*
X85355495Y-34334916D01*
X85355488Y-34334912D01*
X85218917Y-34278343D01*
X85218907Y-34278340D01*
X85073920Y-34249500D01*
X85073918Y-34249500D01*
X78799972Y-34249500D01*
X78759017Y-34242542D01*
X78679254Y-34214631D01*
X78679249Y-34214630D01*
X78500004Y-34194435D01*
X78499996Y-34194435D01*
X78320750Y-34214630D01*
X78320745Y-34214631D01*
X78150476Y-34274211D01*
X77997737Y-34370184D01*
X77870184Y-34497737D01*
X77774211Y-34650476D01*
X77714631Y-34820745D01*
X77714630Y-34820750D01*
X77694435Y-34999996D01*
X77694435Y-35000003D01*
X77714630Y-35179249D01*
X77714631Y-35179254D01*
X77774211Y-35349523D01*
X77842754Y-35458607D01*
X77870184Y-35502262D01*
X77997738Y-35629816D01*
X78088080Y-35686582D01*
X78142133Y-35720546D01*
X78150478Y-35725789D01*
X78320745Y-35785368D01*
X78320750Y-35785369D01*
X78499996Y-35805565D01*
X78500000Y-35805565D01*
X78500004Y-35805565D01*
X78679249Y-35785369D01*
X78679252Y-35785368D01*
X78679255Y-35785368D01*
X78759017Y-35757457D01*
X78799972Y-35750500D01*
X84637770Y-35750500D01*
X84704809Y-35770185D01*
X84725451Y-35786819D01*
X95746692Y-46808060D01*
X95769356Y-46844129D01*
X95771188Y-46843247D01*
X95774207Y-46849516D01*
X95870184Y-47002262D01*
X95905741Y-47037819D01*
X95939226Y-47099142D01*
X95934242Y-47168834D01*
X95892370Y-47224767D01*
X95826906Y-47249184D01*
X95818060Y-47249500D01*
X91362230Y-47249500D01*
X91295191Y-47229815D01*
X91274549Y-47213181D01*
X87288421Y-43227052D01*
X87288420Y-43227051D01*
X87268239Y-43213567D01*
X87206493Y-43172310D01*
X87206492Y-43172309D01*
X87165500Y-43144919D01*
X87165488Y-43144912D01*
X87028917Y-43088343D01*
X87028907Y-43088340D01*
X86883920Y-43059500D01*
X86883918Y-43059500D01*
X82299972Y-43059500D01*
X82259017Y-43052542D01*
X82179254Y-43024631D01*
X82179249Y-43024630D01*
X82000004Y-43004435D01*
X81999996Y-43004435D01*
X81820750Y-43024630D01*
X81820745Y-43024631D01*
X81650476Y-43084211D01*
X81497737Y-43180184D01*
X81370184Y-43307737D01*
X81274211Y-43460476D01*
X81214631Y-43630745D01*
X81214630Y-43630750D01*
X81194435Y-43809996D01*
X81194435Y-43810003D01*
X81214630Y-43989249D01*
X81214631Y-43989254D01*
X81274211Y-44159523D01*
X81326376Y-44242542D01*
X81370184Y-44312262D01*
X81497738Y-44439816D01*
X81650478Y-44535789D01*
X81791781Y-44585233D01*
X81820745Y-44595368D01*
X81820750Y-44595369D01*
X81999996Y-44615565D01*
X82000000Y-44615565D01*
X82000004Y-44615565D01*
X82179249Y-44595369D01*
X82179252Y-44595368D01*
X82179255Y-44595368D01*
X82259017Y-44567457D01*
X82299972Y-44560500D01*
X83238927Y-44560500D01*
X83305966Y-44580185D01*
X83351721Y-44632989D01*
X83361665Y-44702147D01*
X83355968Y-44725455D01*
X83294633Y-44900737D01*
X83294630Y-44900750D01*
X83274435Y-45079996D01*
X83274435Y-45080003D01*
X83294630Y-45259249D01*
X83294631Y-45259254D01*
X83354211Y-45429523D01*
X83416915Y-45529315D01*
X83450184Y-45582262D01*
X83577738Y-45709816D01*
X83638065Y-45747722D01*
X83730121Y-45805565D01*
X83730478Y-45805789D01*
X83900745Y-45865368D01*
X83900750Y-45865369D01*
X84079996Y-45885565D01*
X84080000Y-45885565D01*
X84080004Y-45885565D01*
X84259249Y-45865369D01*
X84259252Y-45865368D01*
X84259255Y-45865368D01*
X84339017Y-45837457D01*
X84379972Y-45830500D01*
X84717770Y-45830500D01*
X84784809Y-45850185D01*
X84805451Y-45866819D01*
X90521580Y-51582948D01*
X90521584Y-51582951D01*
X90644498Y-51665080D01*
X90644511Y-51665087D01*
X90781082Y-51721656D01*
X90781087Y-51721658D01*
X90781091Y-51721658D01*
X90781092Y-51721659D01*
X90926079Y-51750500D01*
X90926082Y-51750500D01*
X91073917Y-51750500D01*
X131525501Y-51750500D01*
X131592540Y-51770185D01*
X131638295Y-51822989D01*
X131649501Y-51874500D01*
X131649501Y-51897876D01*
X131655908Y-51957483D01*
X131706202Y-52092328D01*
X131706206Y-52092335D01*
X131792452Y-52207544D01*
X131792455Y-52207547D01*
X131907664Y-52293793D01*
X131907671Y-52293797D01*
X132042517Y-52344091D01*
X132042516Y-52344091D01*
X132049444Y-52344835D01*
X132102127Y-52350500D01*
X133897872Y-52350499D01*
X133957483Y-52344091D01*
X134092331Y-52293796D01*
X134207546Y-52207546D01*
X134293796Y-52092331D01*
X134344091Y-51957483D01*
X134350500Y-51897873D01*
X134350500Y-51874500D01*
X134370185Y-51807461D01*
X134422989Y-51761706D01*
X134474500Y-51750500D01*
X139770500Y-51750500D01*
X139837539Y-51770185D01*
X139883294Y-51822989D01*
X139894500Y-51874500D01*
X139894500Y-53125500D01*
X139874815Y-53192539D01*
X139822011Y-53238294D01*
X139770500Y-53249500D01*
X139474499Y-53249500D01*
X139407460Y-53229815D01*
X139361705Y-53177011D01*
X139350499Y-53125500D01*
X139350499Y-53102129D01*
X139350498Y-53102123D01*
X139350497Y-53102116D01*
X139344091Y-53042517D01*
X139293796Y-52907669D01*
X139293795Y-52907668D01*
X139293793Y-52907664D01*
X139207547Y-52792455D01*
X139207544Y-52792452D01*
X139092335Y-52706206D01*
X139092328Y-52706202D01*
X138957482Y-52655908D01*
X138957483Y-52655908D01*
X138897883Y-52649501D01*
X138897881Y-52649500D01*
X138897873Y-52649500D01*
X138897864Y-52649500D01*
X137102129Y-52649500D01*
X137102123Y-52649501D01*
X137042516Y-52655908D01*
X136907671Y-52706202D01*
X136907664Y-52706206D01*
X136792455Y-52792452D01*
X136792452Y-52792455D01*
X136706206Y-52907664D01*
X136706202Y-52907671D01*
X136655908Y-53042517D01*
X136649501Y-53102116D01*
X136649501Y-53102123D01*
X136649500Y-53102135D01*
X136649500Y-53125500D01*
X136629815Y-53192539D01*
X136577011Y-53238294D01*
X136525500Y-53249500D01*
X89822229Y-53249500D01*
X89755190Y-53229815D01*
X89734548Y-53213181D01*
X78753307Y-42231940D01*
X78730651Y-42195867D01*
X78728811Y-42196754D01*
X78725789Y-42190478D01*
X78629816Y-42037738D01*
X78502262Y-41910184D01*
X78433386Y-41866906D01*
X78349523Y-41814211D01*
X78179254Y-41754631D01*
X78179249Y-41754630D01*
X78000004Y-41734435D01*
X77999996Y-41734435D01*
X77820750Y-41754630D01*
X77820745Y-41754631D01*
X77650476Y-41814211D01*
X77497737Y-41910184D01*
X77462181Y-41945741D01*
X77400858Y-41979226D01*
X77331166Y-41974242D01*
X77275233Y-41932370D01*
X77250816Y-41866906D01*
X77250500Y-41858060D01*
X77250500Y-39399996D01*
X81394435Y-39399996D01*
X81394435Y-39400003D01*
X81414630Y-39579249D01*
X81414631Y-39579254D01*
X81474211Y-39749523D01*
X81570184Y-39902262D01*
X81680241Y-40012319D01*
X81713726Y-40073642D01*
X81708742Y-40143334D01*
X81680241Y-40187681D01*
X81570184Y-40297737D01*
X81474211Y-40450476D01*
X81414631Y-40620745D01*
X81414630Y-40620750D01*
X81394435Y-40799996D01*
X81394435Y-40800003D01*
X81414630Y-40979249D01*
X81414631Y-40979254D01*
X81474211Y-41149523D01*
X81516336Y-41216564D01*
X81570184Y-41302262D01*
X81697738Y-41429816D01*
X81757791Y-41467550D01*
X81833442Y-41515085D01*
X81850478Y-41525789D01*
X82020745Y-41585368D01*
X82020754Y-41585369D01*
X82021207Y-41585473D01*
X82021477Y-41585624D01*
X82027318Y-41587668D01*
X82026960Y-41588690D01*
X82082191Y-41619573D01*
X82111377Y-41673017D01*
X82112333Y-41672683D01*
X82114362Y-41678483D01*
X82114523Y-41678777D01*
X82114631Y-41679250D01*
X82114632Y-41679255D01*
X82141007Y-41754630D01*
X82174210Y-41849521D01*
X82260138Y-41986274D01*
X82270184Y-42002262D01*
X82397738Y-42129816D01*
X82550478Y-42225789D01*
X82568057Y-42231940D01*
X82720745Y-42285368D01*
X82720750Y-42285369D01*
X82899996Y-42305565D01*
X82900000Y-42305565D01*
X82900004Y-42305565D01*
X83079249Y-42285369D01*
X83079252Y-42285368D01*
X83079255Y-42285368D01*
X83249522Y-42225789D01*
X83402262Y-42129816D01*
X83512319Y-42019759D01*
X83573642Y-41986274D01*
X83643334Y-41991258D01*
X83687681Y-42019759D01*
X83797738Y-42129816D01*
X83950478Y-42225789D01*
X83968057Y-42231940D01*
X84120745Y-42285368D01*
X84120750Y-42285369D01*
X84299996Y-42305565D01*
X84300000Y-42305565D01*
X84300004Y-42305565D01*
X84479249Y-42285369D01*
X84479252Y-42285368D01*
X84479255Y-42285368D01*
X84649522Y-42225789D01*
X84802262Y-42129816D01*
X84929816Y-42002262D01*
X85025789Y-41849522D01*
X85085368Y-41679255D01*
X85085369Y-41679243D01*
X85085473Y-41678793D01*
X85085624Y-41678522D01*
X85087668Y-41672682D01*
X85088690Y-41673039D01*
X85119573Y-41617809D01*
X85173017Y-41588626D01*
X85172682Y-41587668D01*
X85178504Y-41585630D01*
X85178793Y-41585473D01*
X85179243Y-41585369D01*
X85179255Y-41585368D01*
X85349522Y-41525789D01*
X85502262Y-41429816D01*
X85629816Y-41302262D01*
X85725789Y-41149522D01*
X85785368Y-40979255D01*
X85785369Y-40979249D01*
X85805565Y-40800003D01*
X85805565Y-40799996D01*
X85785369Y-40620750D01*
X85785368Y-40620745D01*
X85742326Y-40497738D01*
X85725789Y-40450478D01*
X85629816Y-40297738D01*
X85519759Y-40187681D01*
X85486274Y-40126358D01*
X85491258Y-40056666D01*
X85519759Y-40012319D01*
X85564294Y-39967784D01*
X85629816Y-39902262D01*
X85725789Y-39749522D01*
X85785368Y-39579255D01*
X85785369Y-39579249D01*
X85805565Y-39400003D01*
X85805565Y-39399996D01*
X85785369Y-39220750D01*
X85785368Y-39220745D01*
X85768657Y-39172989D01*
X85725789Y-39050478D01*
X85629816Y-38897738D01*
X85502262Y-38770184D01*
X85349521Y-38674210D01*
X85270437Y-38646538D01*
X85179255Y-38614632D01*
X85179251Y-38614631D01*
X85179250Y-38614631D01*
X85178777Y-38614523D01*
X85178501Y-38614369D01*
X85172683Y-38612333D01*
X85173039Y-38611313D01*
X85117798Y-38580416D01*
X85088626Y-38526982D01*
X85087668Y-38527318D01*
X85085630Y-38521496D01*
X85085473Y-38521207D01*
X85085369Y-38520754D01*
X85085368Y-38520745D01*
X85025789Y-38350478D01*
X85025573Y-38350135D01*
X84964732Y-38253307D01*
X84929816Y-38197738D01*
X84802262Y-38070184D01*
X84781657Y-38057237D01*
X84649523Y-37974211D01*
X84479254Y-37914631D01*
X84479249Y-37914630D01*
X84300004Y-37894435D01*
X84299996Y-37894435D01*
X84120750Y-37914630D01*
X84120745Y-37914631D01*
X83950476Y-37974211D01*
X83797737Y-38070184D01*
X83687681Y-38180241D01*
X83626358Y-38213726D01*
X83556666Y-38208742D01*
X83512319Y-38180241D01*
X83402262Y-38070184D01*
X83249523Y-37974211D01*
X83079254Y-37914631D01*
X83079249Y-37914630D01*
X82900004Y-37894435D01*
X82899996Y-37894435D01*
X82720750Y-37914630D01*
X82720745Y-37914631D01*
X82550476Y-37974211D01*
X82397737Y-38070184D01*
X82270184Y-38197737D01*
X82174210Y-38350478D01*
X82114628Y-38520755D01*
X82114518Y-38521241D01*
X82114360Y-38521522D01*
X82112333Y-38527317D01*
X82111317Y-38526961D01*
X82080400Y-38582215D01*
X82026984Y-38611381D01*
X82027317Y-38612333D01*
X82021541Y-38614353D01*
X82021241Y-38614518D01*
X82020755Y-38614628D01*
X81850478Y-38674210D01*
X81697737Y-38770184D01*
X81570184Y-38897737D01*
X81474211Y-39050476D01*
X81414631Y-39220745D01*
X81414630Y-39220750D01*
X81394435Y-39399996D01*
X77250500Y-39399996D01*
X77250500Y-34362229D01*
X77270185Y-34295190D01*
X77286819Y-34274548D01*
X77774548Y-33786819D01*
X77835871Y-33753334D01*
X77862229Y-33750500D01*
X86637770Y-33750500D01*
X86704809Y-33770185D01*
X86725451Y-33786819D01*
X90746692Y-37808060D01*
X90769356Y-37844129D01*
X90771188Y-37843247D01*
X90774207Y-37849516D01*
X90805614Y-37899500D01*
X90870184Y-38002262D01*
X90997738Y-38129816D01*
X91077989Y-38180241D01*
X91105833Y-38197737D01*
X91150478Y-38225789D01*
X91229120Y-38253307D01*
X91320745Y-38285368D01*
X91320750Y-38285369D01*
X91499996Y-38305565D01*
X91500000Y-38305565D01*
X91500004Y-38305565D01*
X91679249Y-38285369D01*
X91679252Y-38285368D01*
X91679255Y-38285368D01*
X91849522Y-38225789D01*
X92002262Y-38129816D01*
X92129816Y-38002262D01*
X92225789Y-37849522D01*
X92285368Y-37679255D01*
X92299371Y-37554975D01*
X92305565Y-37500003D01*
X92305565Y-37499996D01*
X92285369Y-37320750D01*
X92285368Y-37320745D01*
X92225789Y-37150478D01*
X92129816Y-36997738D01*
X92002262Y-36870184D01*
X92001805Y-36869897D01*
X91978085Y-36854992D01*
X91931794Y-36802657D01*
X91929457Y-36787500D01*
X130200000Y-36787500D01*
X131500000Y-36787500D01*
X140500000Y-36787500D01*
X141800000Y-36787500D01*
X146200000Y-36787500D01*
X147500000Y-36787500D01*
X156500000Y-36787500D01*
X157800000Y-36787500D01*
X162200000Y-36787500D01*
X163500000Y-36787500D01*
X163500000Y-34487500D01*
X162200000Y-34487500D01*
X162200000Y-36787500D01*
X157800000Y-36787500D01*
X157800000Y-34487500D01*
X156500000Y-34487500D01*
X156500000Y-36787500D01*
X147500000Y-36787500D01*
X147500000Y-34487500D01*
X146200000Y-34487500D01*
X146200000Y-36787500D01*
X141800000Y-36787500D01*
X141800000Y-34487500D01*
X140500000Y-34487500D01*
X140500000Y-36787500D01*
X131500000Y-36787500D01*
X131500000Y-34487500D01*
X130200000Y-34487500D01*
X130200000Y-36787500D01*
X91929457Y-36787500D01*
X91921147Y-36733603D01*
X91949523Y-36669755D01*
X91978084Y-36645007D01*
X92002262Y-36629816D01*
X92129816Y-36502262D01*
X92225789Y-36349522D01*
X92285368Y-36179255D01*
X92305565Y-36000000D01*
X92302704Y-35974612D01*
X92285369Y-35820750D01*
X92285368Y-35820745D01*
X92272989Y-35785368D01*
X92225789Y-35650478D01*
X92129816Y-35497738D01*
X92002262Y-35370184D01*
X91849522Y-35274211D01*
X91849518Y-35274209D01*
X91843244Y-35271188D01*
X91844125Y-35269358D01*
X91808059Y-35246692D01*
X90446626Y-33885258D01*
X121749500Y-33885258D01*
X121749500Y-34114741D01*
X121771040Y-34278342D01*
X121779452Y-34342238D01*
X121821117Y-34497737D01*
X121838842Y-34563887D01*
X121926650Y-34775876D01*
X121926657Y-34775890D01*
X121947431Y-34811871D01*
X122006534Y-34914242D01*
X122041392Y-34974617D01*
X122181081Y-35156661D01*
X122181089Y-35156670D01*
X122343330Y-35318911D01*
X122343338Y-35318918D01*
X122525382Y-35458607D01*
X122525385Y-35458608D01*
X122525388Y-35458611D01*
X122724112Y-35573344D01*
X122724117Y-35573346D01*
X122724123Y-35573349D01*
X122815480Y-35611190D01*
X122936113Y-35661158D01*
X123157762Y-35720548D01*
X123385266Y-35750500D01*
X123385273Y-35750500D01*
X123614727Y-35750500D01*
X123614734Y-35750500D01*
X123842238Y-35720548D01*
X124063887Y-35661158D01*
X124275888Y-35573344D01*
X124474612Y-35458611D01*
X124656661Y-35318919D01*
X124656665Y-35318914D01*
X124656670Y-35318911D01*
X124818911Y-35156670D01*
X124818914Y-35156665D01*
X124818919Y-35156661D01*
X124958611Y-34974612D01*
X125073344Y-34775888D01*
X125161158Y-34563887D01*
X125220548Y-34342238D01*
X125250500Y-34114734D01*
X125250500Y-33885266D01*
X125220548Y-33657762D01*
X125161158Y-33436113D01*
X125104985Y-33300499D01*
X125073349Y-33224123D01*
X125073346Y-33224117D01*
X125073344Y-33224112D01*
X124958611Y-33025388D01*
X124958608Y-33025385D01*
X124958607Y-33025382D01*
X124852804Y-32887498D01*
X131494390Y-32887498D01*
X131494390Y-32887501D01*
X131514804Y-33172933D01*
X131575628Y-33452537D01*
X131575630Y-33452543D01*
X131575631Y-33452546D01*
X131675633Y-33720661D01*
X131675635Y-33720666D01*
X131812770Y-33971809D01*
X131812775Y-33971817D01*
X131984254Y-34200887D01*
X131984270Y-34200905D01*
X132186594Y-34403229D01*
X132186612Y-34403245D01*
X132415682Y-34574724D01*
X132415690Y-34574729D01*
X132666833Y-34711864D01*
X132666832Y-34711864D01*
X132666836Y-34711865D01*
X132666839Y-34711867D01*
X132934954Y-34811869D01*
X132934960Y-34811870D01*
X132934962Y-34811871D01*
X133214566Y-34872695D01*
X133214568Y-34872695D01*
X133214572Y-34872696D01*
X133468220Y-34890837D01*
X133499999Y-34893110D01*
X133500000Y-34893110D01*
X133500001Y-34893110D01*
X133528595Y-34891064D01*
X133785428Y-34872696D01*
X134065046Y-34811869D01*
X134333161Y-34711867D01*
X134584315Y-34574726D01*
X134813395Y-34403239D01*
X135015739Y-34200895D01*
X135187226Y-33971815D01*
X135324367Y-33720661D01*
X135424369Y-33452546D01*
X135456872Y-33303132D01*
X135485195Y-33172933D01*
X135485195Y-33172932D01*
X135485196Y-33172928D01*
X135505610Y-32887500D01*
X135505610Y-32887498D01*
X136494390Y-32887498D01*
X136494390Y-32887501D01*
X136514804Y-33172933D01*
X136575628Y-33452537D01*
X136575630Y-33452543D01*
X136575631Y-33452546D01*
X136675633Y-33720661D01*
X136675635Y-33720666D01*
X136812770Y-33971809D01*
X136812775Y-33971817D01*
X136984254Y-34200887D01*
X136984270Y-34200905D01*
X137186594Y-34403229D01*
X137186612Y-34403245D01*
X137415682Y-34574724D01*
X137415690Y-34574729D01*
X137666833Y-34711864D01*
X137666832Y-34711864D01*
X137666836Y-34711865D01*
X137666839Y-34711867D01*
X137934954Y-34811869D01*
X137934960Y-34811870D01*
X137934962Y-34811871D01*
X138214566Y-34872695D01*
X138214568Y-34872695D01*
X138214572Y-34872696D01*
X138468220Y-34890837D01*
X138499999Y-34893110D01*
X138500000Y-34893110D01*
X138500001Y-34893110D01*
X138528595Y-34891064D01*
X138785428Y-34872696D01*
X139065046Y-34811869D01*
X139333161Y-34711867D01*
X139584315Y-34574726D01*
X139813395Y-34403239D01*
X140015739Y-34200895D01*
X140187226Y-33971815D01*
X140324367Y-33720661D01*
X140424369Y-33452546D01*
X140456872Y-33303132D01*
X140485195Y-33172933D01*
X140485195Y-33172932D01*
X140485196Y-33172928D01*
X140505610Y-32887500D01*
X140505610Y-32887498D01*
X147494390Y-32887498D01*
X147494390Y-32887501D01*
X147514804Y-33172933D01*
X147575628Y-33452537D01*
X147575630Y-33452543D01*
X147575631Y-33452546D01*
X147675633Y-33720661D01*
X147675635Y-33720666D01*
X147812770Y-33971809D01*
X147812775Y-33971817D01*
X147984254Y-34200887D01*
X147984270Y-34200905D01*
X148186594Y-34403229D01*
X148186612Y-34403245D01*
X148415682Y-34574724D01*
X148415690Y-34574729D01*
X148666833Y-34711864D01*
X148666832Y-34711864D01*
X148666836Y-34711865D01*
X148666839Y-34711867D01*
X148934954Y-34811869D01*
X148934960Y-34811870D01*
X148934962Y-34811871D01*
X149214566Y-34872695D01*
X149214568Y-34872695D01*
X149214572Y-34872696D01*
X149468220Y-34890837D01*
X149499999Y-34893110D01*
X149500000Y-34893110D01*
X149500001Y-34893110D01*
X149528595Y-34891064D01*
X149785428Y-34872696D01*
X150065046Y-34811869D01*
X150333161Y-34711867D01*
X150584315Y-34574726D01*
X150813395Y-34403239D01*
X151015739Y-34200895D01*
X151187226Y-33971815D01*
X151324367Y-33720661D01*
X151424369Y-33452546D01*
X151456872Y-33303132D01*
X151485195Y-33172933D01*
X151485195Y-33172932D01*
X151485196Y-33172928D01*
X151505610Y-32887500D01*
X151505610Y-32887498D01*
X152494390Y-32887498D01*
X152494390Y-32887501D01*
X152514804Y-33172933D01*
X152575628Y-33452537D01*
X152575630Y-33452543D01*
X152575631Y-33452546D01*
X152675633Y-33720661D01*
X152675635Y-33720666D01*
X152812770Y-33971809D01*
X152812775Y-33971817D01*
X152984254Y-34200887D01*
X152984270Y-34200905D01*
X153186594Y-34403229D01*
X153186612Y-34403245D01*
X153415682Y-34574724D01*
X153415690Y-34574729D01*
X153666833Y-34711864D01*
X153666832Y-34711864D01*
X153666836Y-34711865D01*
X153666839Y-34711867D01*
X153934954Y-34811869D01*
X153934960Y-34811870D01*
X153934962Y-34811871D01*
X154214566Y-34872695D01*
X154214568Y-34872695D01*
X154214572Y-34872696D01*
X154468220Y-34890837D01*
X154499999Y-34893110D01*
X154500000Y-34893110D01*
X154500001Y-34893110D01*
X154528595Y-34891064D01*
X154785428Y-34872696D01*
X155065046Y-34811869D01*
X155333161Y-34711867D01*
X155584315Y-34574726D01*
X155813395Y-34403239D01*
X156015739Y-34200895D01*
X156187226Y-33971815D01*
X156324367Y-33720661D01*
X156424369Y-33452546D01*
X156456872Y-33303132D01*
X156485195Y-33172933D01*
X156485195Y-33172932D01*
X156485196Y-33172928D01*
X156505610Y-32887500D01*
X156505610Y-32887498D01*
X163494390Y-32887498D01*
X163494390Y-32887501D01*
X163514804Y-33172933D01*
X163575628Y-33452537D01*
X163575630Y-33452543D01*
X163575631Y-33452546D01*
X163675633Y-33720661D01*
X163675635Y-33720666D01*
X163812770Y-33971809D01*
X163812775Y-33971817D01*
X163984254Y-34200887D01*
X163984270Y-34200905D01*
X164186594Y-34403229D01*
X164186612Y-34403245D01*
X164415682Y-34574724D01*
X164415690Y-34574729D01*
X164666833Y-34711864D01*
X164666832Y-34711864D01*
X164666836Y-34711865D01*
X164666839Y-34711867D01*
X164934954Y-34811869D01*
X164934960Y-34811870D01*
X164934962Y-34811871D01*
X165214566Y-34872695D01*
X165214568Y-34872695D01*
X165214572Y-34872696D01*
X165468220Y-34890837D01*
X165499999Y-34893110D01*
X165500000Y-34893110D01*
X165500001Y-34893110D01*
X165528595Y-34891064D01*
X165785428Y-34872696D01*
X166065046Y-34811869D01*
X166333161Y-34711867D01*
X166584315Y-34574726D01*
X166813395Y-34403239D01*
X167015739Y-34200895D01*
X167187226Y-33971815D01*
X167324367Y-33720661D01*
X167424369Y-33452546D01*
X167456872Y-33303132D01*
X167485195Y-33172933D01*
X167485195Y-33172932D01*
X167485196Y-33172928D01*
X167505610Y-32887500D01*
X167505610Y-32887498D01*
X168494390Y-32887498D01*
X168494390Y-32887501D01*
X168514804Y-33172933D01*
X168575628Y-33452537D01*
X168575630Y-33452543D01*
X168575631Y-33452546D01*
X168675633Y-33720661D01*
X168675635Y-33720666D01*
X168812770Y-33971809D01*
X168812775Y-33971817D01*
X168984254Y-34200887D01*
X168984270Y-34200905D01*
X169186594Y-34403229D01*
X169186612Y-34403245D01*
X169415682Y-34574724D01*
X169415690Y-34574729D01*
X169666833Y-34711864D01*
X169666832Y-34711864D01*
X169666836Y-34711865D01*
X169666839Y-34711867D01*
X169934954Y-34811869D01*
X169934960Y-34811870D01*
X169934962Y-34811871D01*
X170214566Y-34872695D01*
X170214568Y-34872695D01*
X170214572Y-34872696D01*
X170468220Y-34890837D01*
X170499999Y-34893110D01*
X170500000Y-34893110D01*
X170500001Y-34893110D01*
X170528595Y-34891064D01*
X170785428Y-34872696D01*
X171065046Y-34811869D01*
X171333161Y-34711867D01*
X171584315Y-34574726D01*
X171813395Y-34403239D01*
X172015739Y-34200895D01*
X172187226Y-33971815D01*
X172324367Y-33720661D01*
X172424369Y-33452546D01*
X172456872Y-33303132D01*
X172485195Y-33172933D01*
X172485195Y-33172932D01*
X172485196Y-33172928D01*
X172505610Y-32887500D01*
X172485196Y-32602072D01*
X172471995Y-32541389D01*
X172424371Y-32322462D01*
X172424370Y-32322460D01*
X172424369Y-32322454D01*
X172324367Y-32054339D01*
X172190621Y-31809403D01*
X172187229Y-31803190D01*
X172187224Y-31803182D01*
X172015745Y-31574112D01*
X172015729Y-31574094D01*
X171813405Y-31371770D01*
X171813387Y-31371754D01*
X171584317Y-31200275D01*
X171584309Y-31200270D01*
X171333166Y-31063135D01*
X171333167Y-31063135D01*
X171216110Y-31019475D01*
X171065046Y-30963131D01*
X171065043Y-30963130D01*
X171065037Y-30963128D01*
X170785433Y-30902304D01*
X170500001Y-30881890D01*
X170499999Y-30881890D01*
X170214566Y-30902304D01*
X169934962Y-30963128D01*
X169666833Y-31063135D01*
X169415690Y-31200270D01*
X169415682Y-31200275D01*
X169186612Y-31371754D01*
X169186594Y-31371770D01*
X168984270Y-31574094D01*
X168984254Y-31574112D01*
X168812775Y-31803182D01*
X168812770Y-31803190D01*
X168675635Y-32054333D01*
X168575628Y-32322462D01*
X168514804Y-32602066D01*
X168494390Y-32887498D01*
X167505610Y-32887498D01*
X167485196Y-32602072D01*
X167471995Y-32541389D01*
X167424371Y-32322462D01*
X167424370Y-32322460D01*
X167424369Y-32322454D01*
X167324367Y-32054339D01*
X167190621Y-31809403D01*
X167187229Y-31803190D01*
X167187224Y-31803182D01*
X167015745Y-31574112D01*
X167015729Y-31574094D01*
X166813405Y-31371770D01*
X166813387Y-31371754D01*
X166584317Y-31200275D01*
X166584309Y-31200270D01*
X166333166Y-31063135D01*
X166333167Y-31063135D01*
X166216110Y-31019475D01*
X166065046Y-30963131D01*
X166065043Y-30963130D01*
X166065037Y-30963128D01*
X165785433Y-30902304D01*
X165500001Y-30881890D01*
X165499999Y-30881890D01*
X165214566Y-30902304D01*
X164934962Y-30963128D01*
X164666833Y-31063135D01*
X164415690Y-31200270D01*
X164415682Y-31200275D01*
X164186612Y-31371754D01*
X164186594Y-31371770D01*
X163984270Y-31574094D01*
X163984254Y-31574112D01*
X163812775Y-31803182D01*
X163812770Y-31803190D01*
X163675635Y-32054333D01*
X163575628Y-32322462D01*
X163514804Y-32602066D01*
X163494390Y-32887498D01*
X156505610Y-32887498D01*
X156485196Y-32602072D01*
X156471995Y-32541389D01*
X156424371Y-32322462D01*
X156424370Y-32322460D01*
X156424369Y-32322454D01*
X156324367Y-32054339D01*
X156190621Y-31809403D01*
X156187229Y-31803190D01*
X156187224Y-31803182D01*
X156015745Y-31574112D01*
X156015729Y-31574094D01*
X155813405Y-31371770D01*
X155813387Y-31371754D01*
X155584317Y-31200275D01*
X155584309Y-31200270D01*
X155333166Y-31063135D01*
X155333167Y-31063135D01*
X155216110Y-31019475D01*
X155065046Y-30963131D01*
X155065043Y-30963130D01*
X155065037Y-30963128D01*
X154785433Y-30902304D01*
X154500001Y-30881890D01*
X154499999Y-30881890D01*
X154214566Y-30902304D01*
X153934962Y-30963128D01*
X153666833Y-31063135D01*
X153415690Y-31200270D01*
X153415682Y-31200275D01*
X153186612Y-31371754D01*
X153186594Y-31371770D01*
X152984270Y-31574094D01*
X152984254Y-31574112D01*
X152812775Y-31803182D01*
X152812770Y-31803190D01*
X152675635Y-32054333D01*
X152575628Y-32322462D01*
X152514804Y-32602066D01*
X152494390Y-32887498D01*
X151505610Y-32887498D01*
X151485196Y-32602072D01*
X151471995Y-32541389D01*
X151424371Y-32322462D01*
X151424370Y-32322460D01*
X151424369Y-32322454D01*
X151324367Y-32054339D01*
X151190621Y-31809403D01*
X151187229Y-31803190D01*
X151187224Y-31803182D01*
X151015745Y-31574112D01*
X151015729Y-31574094D01*
X150813405Y-31371770D01*
X150813387Y-31371754D01*
X150584317Y-31200275D01*
X150584309Y-31200270D01*
X150333166Y-31063135D01*
X150333167Y-31063135D01*
X150216110Y-31019475D01*
X150065046Y-30963131D01*
X150065043Y-30963130D01*
X150065037Y-30963128D01*
X149785433Y-30902304D01*
X149500001Y-30881890D01*
X149499999Y-30881890D01*
X149214566Y-30902304D01*
X148934962Y-30963128D01*
X148666833Y-31063135D01*
X148415690Y-31200270D01*
X148415682Y-31200275D01*
X148186612Y-31371754D01*
X148186594Y-31371770D01*
X147984270Y-31574094D01*
X147984254Y-31574112D01*
X147812775Y-31803182D01*
X147812770Y-31803190D01*
X147675635Y-32054333D01*
X147575628Y-32322462D01*
X147514804Y-32602066D01*
X147494390Y-32887498D01*
X140505610Y-32887498D01*
X140485196Y-32602072D01*
X140471995Y-32541389D01*
X140424371Y-32322462D01*
X140424370Y-32322460D01*
X140424369Y-32322454D01*
X140324367Y-32054339D01*
X140190621Y-31809403D01*
X140187229Y-31803190D01*
X140187224Y-31803182D01*
X140015745Y-31574112D01*
X140015729Y-31574094D01*
X139813405Y-31371770D01*
X139813387Y-31371754D01*
X139584317Y-31200275D01*
X139584309Y-31200270D01*
X139333166Y-31063135D01*
X139333167Y-31063135D01*
X139216110Y-31019475D01*
X139065046Y-30963131D01*
X139065043Y-30963130D01*
X139065037Y-30963128D01*
X138785433Y-30902304D01*
X138500001Y-30881890D01*
X138499999Y-30881890D01*
X138214566Y-30902304D01*
X137934962Y-30963128D01*
X137666833Y-31063135D01*
X137415690Y-31200270D01*
X137415682Y-31200275D01*
X137186612Y-31371754D01*
X137186594Y-31371770D01*
X136984270Y-31574094D01*
X136984254Y-31574112D01*
X136812775Y-31803182D01*
X136812770Y-31803190D01*
X136675635Y-32054333D01*
X136575628Y-32322462D01*
X136514804Y-32602066D01*
X136494390Y-32887498D01*
X135505610Y-32887498D01*
X135485196Y-32602072D01*
X135471995Y-32541389D01*
X135424371Y-32322462D01*
X135424370Y-32322460D01*
X135424369Y-32322454D01*
X135324367Y-32054339D01*
X135190621Y-31809403D01*
X135187229Y-31803190D01*
X135187224Y-31803182D01*
X135015745Y-31574112D01*
X135015729Y-31574094D01*
X134813405Y-31371770D01*
X134813387Y-31371754D01*
X134584317Y-31200275D01*
X134584309Y-31200270D01*
X134333166Y-31063135D01*
X134333167Y-31063135D01*
X134216110Y-31019475D01*
X134065046Y-30963131D01*
X134065043Y-30963130D01*
X134065037Y-30963128D01*
X133785433Y-30902304D01*
X133500001Y-30881890D01*
X133499999Y-30881890D01*
X133214566Y-30902304D01*
X132934962Y-30963128D01*
X132666833Y-31063135D01*
X132415690Y-31200270D01*
X132415682Y-31200275D01*
X132186612Y-31371754D01*
X132186594Y-31371770D01*
X131984270Y-31574094D01*
X131984254Y-31574112D01*
X131812775Y-31803182D01*
X131812770Y-31803190D01*
X131675635Y-32054333D01*
X131575628Y-32322462D01*
X131514804Y-32602066D01*
X131494390Y-32887498D01*
X124852804Y-32887498D01*
X124833063Y-32861772D01*
X124818919Y-32843339D01*
X124818918Y-32843338D01*
X124818911Y-32843330D01*
X124656670Y-32681089D01*
X124656661Y-32681081D01*
X124474617Y-32541392D01*
X124275890Y-32426657D01*
X124275876Y-32426650D01*
X124063887Y-32338842D01*
X124002725Y-32322454D01*
X123842238Y-32279452D01*
X123804215Y-32274446D01*
X123614741Y-32249500D01*
X123614734Y-32249500D01*
X123385266Y-32249500D01*
X123385258Y-32249500D01*
X123168715Y-32278009D01*
X123157762Y-32279452D01*
X123064076Y-32304554D01*
X122936112Y-32338842D01*
X122724123Y-32426650D01*
X122724109Y-32426657D01*
X122525382Y-32541392D01*
X122343338Y-32681081D01*
X122181081Y-32843338D01*
X122041392Y-33025382D01*
X121926657Y-33224109D01*
X121926650Y-33224123D01*
X121838842Y-33436112D01*
X121779453Y-33657759D01*
X121779451Y-33657770D01*
X121749500Y-33885258D01*
X90446626Y-33885258D01*
X87978421Y-31417052D01*
X87978414Y-31417046D01*
X87904729Y-31367812D01*
X87904729Y-31367813D01*
X87855491Y-31334913D01*
X87718917Y-31278343D01*
X87718907Y-31278340D01*
X87573920Y-31249500D01*
X87573918Y-31249500D01*
X76926082Y-31249500D01*
X76926080Y-31249500D01*
X76781092Y-31278340D01*
X76781082Y-31278343D01*
X76644508Y-31334913D01*
X76521584Y-31417048D01*
X76521584Y-31417049D01*
X74417048Y-33521583D01*
X74403815Y-33541389D01*
X74376045Y-33582951D01*
X74334919Y-33644499D01*
X74334912Y-33644511D01*
X74278343Y-33781082D01*
X74278340Y-33781092D01*
X74249500Y-33926079D01*
X74249500Y-33926082D01*
X74249500Y-67533918D01*
X74249500Y-67533920D01*
X74249499Y-67533920D01*
X74278340Y-67678907D01*
X74278343Y-67678917D01*
X74334914Y-67815492D01*
X74367812Y-67864727D01*
X74367813Y-67864730D01*
X74417046Y-67938414D01*
X74417052Y-67938421D01*
X79916952Y-73438319D01*
X79950437Y-73499642D01*
X79945453Y-73569334D01*
X79903581Y-73625267D01*
X79838117Y-73649684D01*
X79829271Y-73650000D01*
X79102155Y-73650000D01*
X79042627Y-73656401D01*
X79042620Y-73656403D01*
X78907913Y-73706645D01*
X78907906Y-73706649D01*
X78792812Y-73792809D01*
X78792809Y-73792812D01*
X78706649Y-73907906D01*
X78706645Y-73907913D01*
X78656403Y-74042620D01*
X78656401Y-74042627D01*
X78650000Y-74102155D01*
X78650000Y-74750000D01*
X79566988Y-74750000D01*
X79534075Y-74807007D01*
X79500000Y-74934174D01*
X79500000Y-75065826D01*
X79534075Y-75192993D01*
X79566988Y-75250000D01*
X78650000Y-75250000D01*
X78650000Y-75897844D01*
X78656401Y-75957372D01*
X78656403Y-75957379D01*
X78706645Y-76092086D01*
X78706649Y-76092093D01*
X78792809Y-76207187D01*
X78792812Y-76207190D01*
X78907906Y-76293350D01*
X78907913Y-76293354D01*
X79042620Y-76343596D01*
X79042627Y-76343598D01*
X79102155Y-76349999D01*
X79102172Y-76350000D01*
X79750000Y-76350000D01*
X79750000Y-75433012D01*
X79807007Y-75465925D01*
X79934174Y-75500000D01*
X80065826Y-75500000D01*
X80192993Y-75465925D01*
X80250000Y-75433012D01*
X80250000Y-76350000D01*
X80897828Y-76350000D01*
X80897844Y-76349999D01*
X80957372Y-76343598D01*
X80957379Y-76343596D01*
X81092086Y-76293354D01*
X81092093Y-76293350D01*
X81207187Y-76207190D01*
X81207190Y-76207187D01*
X81293350Y-76092093D01*
X81293354Y-76092086D01*
X81342422Y-75960529D01*
X81384293Y-75904595D01*
X81449757Y-75880178D01*
X81518030Y-75895030D01*
X81546285Y-75916181D01*
X81668599Y-76038495D01*
X81723283Y-76076785D01*
X81862165Y-76174032D01*
X81862167Y-76174033D01*
X81862170Y-76174035D01*
X82076337Y-76273903D01*
X82304592Y-76335063D01*
X82475319Y-76350000D01*
X82539999Y-76355659D01*
X82540000Y-76355659D01*
X82540001Y-76355659D01*
X82604681Y-76350000D01*
X82775408Y-76335063D01*
X83003663Y-76273903D01*
X83217830Y-76174035D01*
X83411401Y-76038495D01*
X83578495Y-75871401D01*
X83702166Y-75694781D01*
X83708425Y-75685842D01*
X83763002Y-75642217D01*
X83832500Y-75635023D01*
X83894855Y-75666546D01*
X83911575Y-75685842D01*
X84041500Y-75871395D01*
X84041505Y-75871401D01*
X84208599Y-76038495D01*
X84263283Y-76076785D01*
X84402165Y-76174032D01*
X84402167Y-76174033D01*
X84402170Y-76174035D01*
X84616337Y-76273903D01*
X84844592Y-76335063D01*
X85015319Y-76350000D01*
X85079999Y-76355659D01*
X85080000Y-76355659D01*
X85080001Y-76355659D01*
X85144681Y-76350000D01*
X85315408Y-76335063D01*
X85543663Y-76273903D01*
X85757830Y-76174035D01*
X85951401Y-76038495D01*
X86118495Y-75871401D01*
X86242166Y-75694781D01*
X86248425Y-75685842D01*
X86303002Y-75642217D01*
X86372500Y-75635023D01*
X86434855Y-75666546D01*
X86451575Y-75685842D01*
X86581500Y-75871395D01*
X86581505Y-75871401D01*
X86748599Y-76038495D01*
X86803283Y-76076785D01*
X86942165Y-76174032D01*
X86942167Y-76174033D01*
X86942170Y-76174035D01*
X87156337Y-76273903D01*
X87384592Y-76335063D01*
X87555319Y-76350000D01*
X87619999Y-76355659D01*
X87620000Y-76355659D01*
X87620001Y-76355659D01*
X87684681Y-76350000D01*
X87855408Y-76335063D01*
X88083663Y-76273903D01*
X88297830Y-76174035D01*
X88491401Y-76038495D01*
X88658495Y-75871401D01*
X88782166Y-75694781D01*
X88788425Y-75685842D01*
X88843002Y-75642217D01*
X88912500Y-75635023D01*
X88974855Y-75666546D01*
X88991575Y-75685842D01*
X89121500Y-75871395D01*
X89121505Y-75871401D01*
X89288599Y-76038495D01*
X89343283Y-76076785D01*
X89482165Y-76174032D01*
X89482167Y-76174033D01*
X89482170Y-76174035D01*
X89696337Y-76273903D01*
X89924592Y-76335063D01*
X90095319Y-76350000D01*
X90159999Y-76355659D01*
X90160000Y-76355659D01*
X90160001Y-76355659D01*
X90224681Y-76350000D01*
X90395408Y-76335063D01*
X90623663Y-76273903D01*
X90837830Y-76174035D01*
X91031401Y-76038495D01*
X91198495Y-75871401D01*
X91322166Y-75694781D01*
X91328425Y-75685842D01*
X91383002Y-75642217D01*
X91452500Y-75635023D01*
X91514855Y-75666546D01*
X91531575Y-75685842D01*
X91661500Y-75871395D01*
X91661505Y-75871401D01*
X91828599Y-76038495D01*
X91883283Y-76076785D01*
X92022165Y-76174032D01*
X92022167Y-76174033D01*
X92022170Y-76174035D01*
X92236337Y-76273903D01*
X92464592Y-76335063D01*
X92635319Y-76350000D01*
X92699999Y-76355659D01*
X92700000Y-76355659D01*
X92700001Y-76355659D01*
X92764681Y-76350000D01*
X92935408Y-76335063D01*
X93163663Y-76273903D01*
X93377830Y-76174035D01*
X93571401Y-76038495D01*
X93738495Y-75871401D01*
X93874035Y-75677830D01*
X93973903Y-75463663D01*
X94035063Y-75235408D01*
X94055659Y-75000000D01*
X94035063Y-74764592D01*
X93973903Y-74536337D01*
X93874035Y-74322171D01*
X93868425Y-74314158D01*
X93738494Y-74128597D01*
X93571402Y-73961506D01*
X93571395Y-73961501D01*
X93565655Y-73957482D01*
X93494854Y-73907906D01*
X93377834Y-73825967D01*
X93377830Y-73825965D01*
X93306727Y-73792809D01*
X93163663Y-73726097D01*
X93163659Y-73726096D01*
X93163655Y-73726094D01*
X92935413Y-73664938D01*
X92935403Y-73664936D01*
X92851824Y-73657624D01*
X92786755Y-73632171D01*
X92745777Y-73575580D01*
X92741899Y-73505818D01*
X92774949Y-73446417D01*
X94119232Y-72102135D01*
X131649500Y-72102135D01*
X131649500Y-73897870D01*
X131649501Y-73897876D01*
X131655908Y-73957483D01*
X131706202Y-74092328D01*
X131706206Y-74092335D01*
X131792452Y-74207544D01*
X131792455Y-74207547D01*
X131907664Y-74293793D01*
X131907671Y-74293797D01*
X132042517Y-74344091D01*
X132042516Y-74344091D01*
X132049444Y-74344835D01*
X132102127Y-74350500D01*
X133897872Y-74350499D01*
X133957483Y-74344091D01*
X134092331Y-74293796D01*
X134207546Y-74207546D01*
X134293796Y-74092331D01*
X134344091Y-73957483D01*
X134350500Y-73897873D01*
X134350499Y-72102128D01*
X134344091Y-72042517D01*
X134293796Y-71907669D01*
X134293795Y-71907668D01*
X134293793Y-71907664D01*
X134207547Y-71792455D01*
X134207544Y-71792452D01*
X134092335Y-71706206D01*
X134092328Y-71706202D01*
X133957482Y-71655908D01*
X133957483Y-71655908D01*
X133897883Y-71649501D01*
X133897881Y-71649500D01*
X133897873Y-71649500D01*
X133897864Y-71649500D01*
X132102129Y-71649500D01*
X132102123Y-71649501D01*
X132042516Y-71655908D01*
X131907671Y-71706202D01*
X131907664Y-71706206D01*
X131792455Y-71792452D01*
X131792452Y-71792455D01*
X131706206Y-71907664D01*
X131706202Y-71907671D01*
X131655908Y-72042517D01*
X131649501Y-72102116D01*
X131649501Y-72102123D01*
X131649500Y-72102135D01*
X94119232Y-72102135D01*
X95434549Y-70786819D01*
X95495872Y-70753334D01*
X95522230Y-70750500D01*
X118700028Y-70750500D01*
X118740983Y-70757458D01*
X118820745Y-70785368D01*
X118820750Y-70785369D01*
X118999996Y-70805565D01*
X119000000Y-70805565D01*
X119000004Y-70805565D01*
X119179249Y-70785369D01*
X119179252Y-70785368D01*
X119179255Y-70785368D01*
X119349522Y-70725789D01*
X119502262Y-70629816D01*
X119629816Y-70502262D01*
X119725789Y-70349522D01*
X119785368Y-70179255D01*
X119805565Y-70000000D01*
X119796370Y-69918393D01*
X119785369Y-69820750D01*
X119785368Y-69820745D01*
X119725788Y-69650476D01*
X119629815Y-69497737D01*
X119502262Y-69370184D01*
X119349523Y-69274211D01*
X119179254Y-69214631D01*
X119179249Y-69214630D01*
X119000004Y-69194435D01*
X118999996Y-69194435D01*
X118820750Y-69214630D01*
X118820745Y-69214631D01*
X118740983Y-69242542D01*
X118700028Y-69249500D01*
X95086080Y-69249500D01*
X94941092Y-69278340D01*
X94941086Y-69278342D01*
X94804508Y-69334914D01*
X94804496Y-69334921D01*
X94755269Y-69367813D01*
X94681588Y-69417044D01*
X94681580Y-69417050D01*
X90471500Y-73627130D01*
X90410177Y-73660615D01*
X90373012Y-73662977D01*
X90160002Y-73644341D01*
X90159999Y-73644341D01*
X89924596Y-73664936D01*
X89924586Y-73664938D01*
X89696344Y-73726094D01*
X89696335Y-73726098D01*
X89482171Y-73825964D01*
X89482169Y-73825965D01*
X89288597Y-73961505D01*
X89121505Y-74128597D01*
X88991575Y-74314158D01*
X88936998Y-74357783D01*
X88867500Y-74364977D01*
X88805145Y-74333454D01*
X88788425Y-74314158D01*
X88658494Y-74128597D01*
X88491402Y-73961506D01*
X88491395Y-73961501D01*
X88485655Y-73957482D01*
X88414854Y-73907906D01*
X88297834Y-73825967D01*
X88297830Y-73825965D01*
X88226727Y-73792809D01*
X88083663Y-73726097D01*
X88083659Y-73726096D01*
X88083655Y-73726094D01*
X87855413Y-73664938D01*
X87855403Y-73664936D01*
X87620001Y-73644341D01*
X87619998Y-73644341D01*
X87406986Y-73662977D01*
X87338486Y-73649210D01*
X87308498Y-73627130D01*
X81786819Y-68105451D01*
X81753334Y-68044128D01*
X81750500Y-68017770D01*
X81750500Y-59362229D01*
X81770185Y-59295190D01*
X81786819Y-59274548D01*
X84274548Y-56786819D01*
X84335871Y-56753334D01*
X84362229Y-56750500D01*
X111700028Y-56750500D01*
X111740983Y-56757458D01*
X111820745Y-56785368D01*
X111820750Y-56785369D01*
X111999996Y-56805565D01*
X112000000Y-56805565D01*
X112000004Y-56805565D01*
X112179249Y-56785369D01*
X112179252Y-56785368D01*
X112179255Y-56785368D01*
X112349522Y-56725789D01*
X112502262Y-56629816D01*
X112629816Y-56502262D01*
X112725789Y-56349522D01*
X112785368Y-56179255D01*
X112805565Y-56000000D01*
X112785368Y-55820745D01*
X112725789Y-55650478D01*
X112629816Y-55497738D01*
X112502262Y-55370184D01*
X112470932Y-55350498D01*
X112349523Y-55274211D01*
X112179254Y-55214631D01*
X112179249Y-55214630D01*
X112000004Y-55194435D01*
X111999996Y-55194435D01*
X111820750Y-55214630D01*
X111820745Y-55214631D01*
X111740983Y-55242542D01*
X111700028Y-55249500D01*
X83926076Y-55249500D01*
X83897242Y-55255234D01*
X83897243Y-55255235D01*
X83781092Y-55278339D01*
X83781086Y-55278341D01*
X83709029Y-55308189D01*
X83644508Y-55334914D01*
X83603627Y-55362230D01*
X83521582Y-55417049D01*
X83521579Y-55417052D01*
X80417052Y-58521578D01*
X80417049Y-58521581D01*
X80387724Y-58565469D01*
X80387725Y-58565470D01*
X80334914Y-58644508D01*
X80278343Y-58781082D01*
X80278340Y-58781092D01*
X80249500Y-58926079D01*
X80249500Y-58926082D01*
X80249500Y-68453918D01*
X80249500Y-68453920D01*
X80249499Y-68453920D01*
X80278340Y-68598907D01*
X80278343Y-68598917D01*
X80334913Y-68735490D01*
X80334914Y-68735491D01*
X80334916Y-68735495D01*
X80347948Y-68754998D01*
X80347949Y-68755000D01*
X80417051Y-68858420D01*
X80417052Y-68858421D01*
X85005047Y-73446415D01*
X85038532Y-73507738D01*
X85033548Y-73577430D01*
X84991676Y-73633363D01*
X84928173Y-73657624D01*
X84866985Y-73662977D01*
X84798485Y-73649210D01*
X84768497Y-73627130D01*
X77286819Y-66145451D01*
X77253334Y-66084128D01*
X77250500Y-66057770D01*
X77250500Y-53999996D01*
X78194435Y-53999996D01*
X78194435Y-54000003D01*
X78214630Y-54179249D01*
X78214631Y-54179254D01*
X78274211Y-54349523D01*
X78370184Y-54502262D01*
X78497738Y-54629816D01*
X78588080Y-54686582D01*
X78643903Y-54721658D01*
X78650478Y-54725789D01*
X78820745Y-54785368D01*
X78820750Y-54785369D01*
X78999996Y-54805565D01*
X79000000Y-54805565D01*
X79000004Y-54805565D01*
X79179249Y-54785369D01*
X79179252Y-54785368D01*
X79179255Y-54785368D01*
X79349522Y-54725789D01*
X79502262Y-54629816D01*
X79629816Y-54502262D01*
X79725789Y-54349522D01*
X79725792Y-54349510D01*
X79728810Y-54343248D01*
X79730650Y-54344134D01*
X79753305Y-54308061D01*
X81082951Y-52978416D01*
X81165084Y-52855495D01*
X81221658Y-52718913D01*
X81235465Y-52649501D01*
X81250500Y-52573920D01*
X81250500Y-48299972D01*
X81257458Y-48259017D01*
X81285368Y-48179254D01*
X81285369Y-48179249D01*
X81305565Y-48000003D01*
X81305565Y-47999996D01*
X81285369Y-47820750D01*
X81285368Y-47820745D01*
X81225788Y-47650476D01*
X81129815Y-47497737D01*
X81002262Y-47370184D01*
X80849523Y-47274211D01*
X80679254Y-47214631D01*
X80679249Y-47214630D01*
X80500004Y-47194435D01*
X80499996Y-47194435D01*
X80320750Y-47214630D01*
X80320745Y-47214631D01*
X80150476Y-47274211D01*
X79997737Y-47370184D01*
X79870184Y-47497737D01*
X79774211Y-47650476D01*
X79714631Y-47820745D01*
X79714630Y-47820750D01*
X79694435Y-47999996D01*
X79694435Y-48000003D01*
X79714630Y-48179249D01*
X79714631Y-48179254D01*
X79742542Y-48259017D01*
X79749500Y-48299972D01*
X79749500Y-52137769D01*
X79729815Y-52204808D01*
X79713181Y-52225450D01*
X78691937Y-53246693D01*
X78655873Y-53269370D01*
X78656750Y-53271191D01*
X78650475Y-53274212D01*
X78497737Y-53370184D01*
X78370184Y-53497737D01*
X78274211Y-53650476D01*
X78214631Y-53820745D01*
X78214630Y-53820750D01*
X78194435Y-53999996D01*
X77250500Y-53999996D01*
X77250500Y-43221940D01*
X77270185Y-43154901D01*
X77322989Y-43109146D01*
X77392147Y-43099202D01*
X77455703Y-43128227D01*
X77462181Y-43134259D01*
X77497738Y-43169816D01*
X77610909Y-43240926D01*
X77650478Y-43265789D01*
X77656754Y-43268811D01*
X77655867Y-43270651D01*
X77691940Y-43293307D01*
X88877048Y-54478415D01*
X88877049Y-54478416D01*
X88981584Y-54582951D01*
X88981585Y-54582952D01*
X89104498Y-54665080D01*
X89104511Y-54665087D01*
X89241082Y-54721656D01*
X89241087Y-54721658D01*
X89241091Y-54721658D01*
X89241092Y-54721659D01*
X89386079Y-54750500D01*
X89386082Y-54750500D01*
X136525501Y-54750500D01*
X136592540Y-54770185D01*
X136638295Y-54822989D01*
X136649501Y-54874500D01*
X136649501Y-54897876D01*
X136655908Y-54957483D01*
X136706202Y-55092328D01*
X136706206Y-55092335D01*
X136792452Y-55207544D01*
X136792455Y-55207547D01*
X136907664Y-55293793D01*
X136907671Y-55293797D01*
X137042517Y-55344091D01*
X137042516Y-55344091D01*
X137049444Y-55344835D01*
X137102127Y-55350500D01*
X138897872Y-55350499D01*
X138957483Y-55344091D01*
X139092331Y-55293796D01*
X139207546Y-55207546D01*
X139293796Y-55092331D01*
X139344091Y-54957483D01*
X139350500Y-54897873D01*
X139350500Y-54874500D01*
X139370185Y-54807461D01*
X139422989Y-54761706D01*
X139474500Y-54750500D01*
X139770500Y-54750500D01*
X139837539Y-54770185D01*
X139883294Y-54822989D01*
X139894500Y-54874500D01*
X139894500Y-57125500D01*
X139874815Y-57192539D01*
X139822011Y-57238294D01*
X139770500Y-57249500D01*
X134474499Y-57249500D01*
X134407460Y-57229815D01*
X134361705Y-57177011D01*
X134350499Y-57125500D01*
X134350499Y-57102129D01*
X134350498Y-57102123D01*
X134350497Y-57102116D01*
X134344091Y-57042517D01*
X134293796Y-56907669D01*
X134293795Y-56907668D01*
X134293793Y-56907664D01*
X134207547Y-56792455D01*
X134207544Y-56792452D01*
X134092335Y-56706206D01*
X134092328Y-56706202D01*
X133957482Y-56655908D01*
X133957483Y-56655908D01*
X133897883Y-56649501D01*
X133897881Y-56649500D01*
X133897873Y-56649500D01*
X133897864Y-56649500D01*
X132102129Y-56649500D01*
X132102123Y-56649501D01*
X132042516Y-56655908D01*
X131907671Y-56706202D01*
X131907664Y-56706206D01*
X131792455Y-56792452D01*
X131792452Y-56792455D01*
X131706206Y-56907664D01*
X131706202Y-56907671D01*
X131655908Y-57042517D01*
X131649501Y-57102116D01*
X131649501Y-57102123D01*
X131649500Y-57102135D01*
X131649500Y-57125500D01*
X131629815Y-57192539D01*
X131577011Y-57238294D01*
X131525500Y-57249500D01*
X84926080Y-57249500D01*
X84781092Y-57278340D01*
X84781082Y-57278343D01*
X84644511Y-57334912D01*
X84644498Y-57334919D01*
X84566551Y-57387003D01*
X84521581Y-57417050D01*
X84521578Y-57417053D01*
X82691937Y-59246693D01*
X82655873Y-59269370D01*
X82656750Y-59271191D01*
X82650475Y-59274212D01*
X82497737Y-59370184D01*
X82370184Y-59497737D01*
X82274211Y-59650476D01*
X82214631Y-59820745D01*
X82214630Y-59820750D01*
X82194435Y-59999996D01*
X82194435Y-60000003D01*
X82214630Y-60179249D01*
X82214631Y-60179254D01*
X82274211Y-60349523D01*
X82288800Y-60372741D01*
X82370184Y-60502262D01*
X82497738Y-60629816D01*
X82650478Y-60725789D01*
X82820745Y-60785368D01*
X82820750Y-60785369D01*
X82999996Y-60805565D01*
X83000000Y-60805565D01*
X83000004Y-60805565D01*
X83179249Y-60785369D01*
X83179252Y-60785368D01*
X83179255Y-60785368D01*
X83349522Y-60725789D01*
X83502262Y-60629816D01*
X83629816Y-60502262D01*
X83725789Y-60349522D01*
X83725792Y-60349510D01*
X83728810Y-60343248D01*
X83730650Y-60344134D01*
X83753305Y-60308061D01*
X85274548Y-58786819D01*
X85335871Y-58753334D01*
X85362229Y-58750500D01*
X131525501Y-58750500D01*
X131592540Y-58770185D01*
X131638295Y-58822989D01*
X131649501Y-58874500D01*
X131649501Y-58897876D01*
X131655908Y-58957483D01*
X131706202Y-59092328D01*
X131706206Y-59092335D01*
X131792452Y-59207544D01*
X131792455Y-59207547D01*
X131907664Y-59293793D01*
X131907671Y-59293797D01*
X132042517Y-59344091D01*
X132042516Y-59344091D01*
X132049444Y-59344835D01*
X132102127Y-59350500D01*
X133897872Y-59350499D01*
X133957483Y-59344091D01*
X134092331Y-59293796D01*
X134207546Y-59207546D01*
X134293796Y-59092331D01*
X134344091Y-58957483D01*
X134350500Y-58897873D01*
X134350500Y-58874500D01*
X134370185Y-58807461D01*
X134422989Y-58761706D01*
X134474500Y-58750500D01*
X139770500Y-58750500D01*
X139837539Y-58770185D01*
X139883294Y-58822989D01*
X139894500Y-58874500D01*
X139894500Y-60125500D01*
X139874815Y-60192539D01*
X139822011Y-60238294D01*
X139770500Y-60249500D01*
X139474499Y-60249500D01*
X139407460Y-60229815D01*
X139361705Y-60177011D01*
X139350499Y-60125500D01*
X139350499Y-60102129D01*
X139350498Y-60102123D01*
X139350497Y-60102116D01*
X139344091Y-60042517D01*
X139328234Y-60000003D01*
X139293797Y-59907671D01*
X139293793Y-59907664D01*
X139207547Y-59792455D01*
X139207544Y-59792452D01*
X139092335Y-59706206D01*
X139092328Y-59706202D01*
X138957482Y-59655908D01*
X138957483Y-59655908D01*
X138897883Y-59649501D01*
X138897881Y-59649500D01*
X138897873Y-59649500D01*
X138897864Y-59649500D01*
X137102129Y-59649500D01*
X137102123Y-59649501D01*
X137042516Y-59655908D01*
X136907671Y-59706202D01*
X136907664Y-59706206D01*
X136792455Y-59792452D01*
X136792452Y-59792455D01*
X136706206Y-59907664D01*
X136706202Y-59907671D01*
X136655908Y-60042517D01*
X136654818Y-60052661D01*
X136649501Y-60102123D01*
X136649500Y-60102135D01*
X136649500Y-60125500D01*
X136629815Y-60192539D01*
X136577011Y-60238294D01*
X136525500Y-60249500D01*
X101299972Y-60249500D01*
X101259017Y-60242542D01*
X101179254Y-60214631D01*
X101179249Y-60214630D01*
X101000004Y-60194435D01*
X100999996Y-60194435D01*
X100820750Y-60214630D01*
X100820745Y-60214631D01*
X100650476Y-60274211D01*
X100497737Y-60370184D01*
X100370184Y-60497737D01*
X100274211Y-60650476D01*
X100214631Y-60820745D01*
X100214630Y-60820750D01*
X100194435Y-60999996D01*
X100194435Y-61000003D01*
X100214630Y-61179249D01*
X100214631Y-61179254D01*
X100274211Y-61349523D01*
X100370184Y-61502262D01*
X100497738Y-61629816D01*
X100650478Y-61725789D01*
X100820745Y-61785368D01*
X100820750Y-61785369D01*
X100999996Y-61805565D01*
X101000000Y-61805565D01*
X101000004Y-61805565D01*
X101179249Y-61785369D01*
X101179252Y-61785368D01*
X101179255Y-61785368D01*
X101259017Y-61757457D01*
X101299972Y-61750500D01*
X136525501Y-61750500D01*
X136592540Y-61770185D01*
X136638295Y-61822989D01*
X136649501Y-61874500D01*
X136649501Y-61897876D01*
X136655908Y-61957483D01*
X136706202Y-62092328D01*
X136706206Y-62092335D01*
X136792452Y-62207544D01*
X136792455Y-62207547D01*
X136907664Y-62293793D01*
X136907671Y-62293797D01*
X137042517Y-62344091D01*
X137042516Y-62344091D01*
X137049444Y-62344835D01*
X137102127Y-62350500D01*
X138897872Y-62350499D01*
X138957483Y-62344091D01*
X139092331Y-62293796D01*
X139207546Y-62207546D01*
X139293796Y-62092331D01*
X139344091Y-61957483D01*
X139350500Y-61897873D01*
X139350500Y-61874500D01*
X139370185Y-61807461D01*
X139422989Y-61761706D01*
X139474500Y-61750500D01*
X139770500Y-61750500D01*
X139837539Y-61770185D01*
X139883294Y-61822989D01*
X139894500Y-61874500D01*
X139894500Y-63125500D01*
X139874815Y-63192539D01*
X139822011Y-63238294D01*
X139770500Y-63249500D01*
X134474499Y-63249500D01*
X134407460Y-63229815D01*
X134361705Y-63177011D01*
X134350499Y-63125500D01*
X134350499Y-63102129D01*
X134350498Y-63102123D01*
X134350497Y-63102116D01*
X134344091Y-63042517D01*
X134293796Y-62907669D01*
X134293795Y-62907668D01*
X134293793Y-62907664D01*
X134207547Y-62792455D01*
X134207544Y-62792452D01*
X134092335Y-62706206D01*
X134092328Y-62706202D01*
X133957482Y-62655908D01*
X133957483Y-62655908D01*
X133897883Y-62649501D01*
X133897881Y-62649500D01*
X133897873Y-62649500D01*
X133897864Y-62649500D01*
X132102129Y-62649500D01*
X132102123Y-62649501D01*
X132042516Y-62655908D01*
X131907671Y-62706202D01*
X131907664Y-62706206D01*
X131792455Y-62792452D01*
X131792452Y-62792455D01*
X131706206Y-62907664D01*
X131706202Y-62907671D01*
X131655908Y-63042517D01*
X131649501Y-63102116D01*
X131649501Y-63102123D01*
X131649500Y-63102135D01*
X131649500Y-63125500D01*
X131629815Y-63192539D01*
X131577011Y-63238294D01*
X131525500Y-63249500D01*
X89299972Y-63249500D01*
X89259017Y-63242542D01*
X89179254Y-63214631D01*
X89179249Y-63214630D01*
X89000004Y-63194435D01*
X88999996Y-63194435D01*
X88820750Y-63214630D01*
X88820745Y-63214631D01*
X88650476Y-63274211D01*
X88497737Y-63370184D01*
X88370184Y-63497737D01*
X88274211Y-63650476D01*
X88214631Y-63820745D01*
X88214630Y-63820750D01*
X88194435Y-63999996D01*
X88194435Y-64000003D01*
X88214630Y-64179249D01*
X88214631Y-64179254D01*
X88274211Y-64349523D01*
X88322963Y-64427111D01*
X88370184Y-64502262D01*
X88497738Y-64629816D01*
X88650478Y-64725789D01*
X88820745Y-64785368D01*
X88820750Y-64785369D01*
X88999996Y-64805565D01*
X89000000Y-64805565D01*
X89000004Y-64805565D01*
X89179249Y-64785369D01*
X89179252Y-64785368D01*
X89179255Y-64785368D01*
X89259017Y-64757457D01*
X89299972Y-64750500D01*
X131525501Y-64750500D01*
X131592540Y-64770185D01*
X131638295Y-64822989D01*
X131649501Y-64874500D01*
X131649501Y-64897876D01*
X131655908Y-64957483D01*
X131706202Y-65092328D01*
X131706206Y-65092335D01*
X131792452Y-65207544D01*
X131792455Y-65207547D01*
X131907664Y-65293793D01*
X131907671Y-65293797D01*
X132042517Y-65344091D01*
X132042516Y-65344091D01*
X132049444Y-65344835D01*
X132102127Y-65350500D01*
X133897872Y-65350499D01*
X133957483Y-65344091D01*
X134092331Y-65293796D01*
X134207546Y-65207546D01*
X134293796Y-65092331D01*
X134344091Y-64957483D01*
X134350500Y-64897873D01*
X134350500Y-64874500D01*
X134370185Y-64807461D01*
X134422989Y-64761706D01*
X134474500Y-64750500D01*
X139770500Y-64750500D01*
X139837539Y-64770185D01*
X139883294Y-64822989D01*
X139894500Y-64874500D01*
X139894500Y-66125500D01*
X139874815Y-66192539D01*
X139822011Y-66238294D01*
X139770500Y-66249500D01*
X139474499Y-66249500D01*
X139407460Y-66229815D01*
X139361705Y-66177011D01*
X139350499Y-66125500D01*
X139350499Y-66102129D01*
X139350498Y-66102123D01*
X139350497Y-66102116D01*
X139344091Y-66042517D01*
X139293796Y-65907669D01*
X139293795Y-65907668D01*
X139293793Y-65907664D01*
X139207547Y-65792455D01*
X139207544Y-65792452D01*
X139092335Y-65706206D01*
X139092328Y-65706202D01*
X138957482Y-65655908D01*
X138957483Y-65655908D01*
X138897883Y-65649501D01*
X138897881Y-65649500D01*
X138897873Y-65649500D01*
X138897864Y-65649500D01*
X137102129Y-65649500D01*
X137102123Y-65649501D01*
X137042516Y-65655908D01*
X136907671Y-65706202D01*
X136907664Y-65706206D01*
X136792455Y-65792452D01*
X136792452Y-65792455D01*
X136706206Y-65907664D01*
X136706202Y-65907671D01*
X136655908Y-66042517D01*
X136651435Y-66084128D01*
X136649501Y-66102123D01*
X136649500Y-66102135D01*
X136649500Y-66125500D01*
X136629815Y-66192539D01*
X136577011Y-66238294D01*
X136525500Y-66249500D01*
X88299972Y-66249500D01*
X88259017Y-66242542D01*
X88179254Y-66214631D01*
X88179249Y-66214630D01*
X88000004Y-66194435D01*
X87999996Y-66194435D01*
X87820750Y-66214630D01*
X87820745Y-66214631D01*
X87650476Y-66274211D01*
X87497737Y-66370184D01*
X87370184Y-66497737D01*
X87274211Y-66650476D01*
X87214631Y-66820745D01*
X87214630Y-66820750D01*
X87194435Y-66999996D01*
X87194435Y-67000003D01*
X87214630Y-67179249D01*
X87214631Y-67179254D01*
X87274211Y-67349523D01*
X87370184Y-67502262D01*
X87497738Y-67629816D01*
X87650478Y-67725789D01*
X87820745Y-67785368D01*
X87820750Y-67785369D01*
X87999996Y-67805565D01*
X88000000Y-67805565D01*
X88000004Y-67805565D01*
X88179249Y-67785369D01*
X88179252Y-67785368D01*
X88179255Y-67785368D01*
X88259017Y-67757457D01*
X88299972Y-67750500D01*
X136525501Y-67750500D01*
X136592540Y-67770185D01*
X136638295Y-67822989D01*
X136649501Y-67874500D01*
X136649501Y-67897876D01*
X136655908Y-67957483D01*
X136706202Y-68092328D01*
X136706206Y-68092335D01*
X136792452Y-68207544D01*
X136792455Y-68207547D01*
X136907664Y-68293793D01*
X136907671Y-68293797D01*
X137042517Y-68344091D01*
X137042516Y-68344091D01*
X137049444Y-68344835D01*
X137102127Y-68350500D01*
X138897872Y-68350499D01*
X138957483Y-68344091D01*
X139092331Y-68293796D01*
X139207546Y-68207546D01*
X139293796Y-68092331D01*
X139344091Y-67957483D01*
X139350500Y-67897873D01*
X139350500Y-67874500D01*
X139370185Y-67807461D01*
X139422989Y-67761706D01*
X139474500Y-67750500D01*
X139770500Y-67750500D01*
X139837539Y-67770185D01*
X139883294Y-67822989D01*
X139894500Y-67874500D01*
X139894500Y-93375500D01*
X139874815Y-93442539D01*
X139822011Y-93488294D01*
X139770500Y-93499500D01*
X57875664Y-93499500D01*
X57759571Y-93518871D01*
X57758562Y-93519035D01*
X57648633Y-93536446D01*
X57643893Y-93537584D01*
X57643846Y-93537388D01*
X57633599Y-93539892D01*
X57630388Y-93540428D01*
X57525443Y-93576454D01*
X57523503Y-93577102D01*
X57424005Y-93609432D01*
X57423997Y-93609436D01*
X57420652Y-93611140D01*
X57404662Y-93617918D01*
X57395197Y-93621168D01*
X57395194Y-93621170D01*
X57303525Y-93670777D01*
X57300806Y-93672205D01*
X57213563Y-93716659D01*
X57213557Y-93716662D01*
X57205072Y-93722827D01*
X57191222Y-93731553D01*
X57176492Y-93739525D01*
X57176485Y-93739530D01*
X57099547Y-93799411D01*
X57096275Y-93801872D01*
X57022491Y-93855482D01*
X57010297Y-93867674D01*
X56998792Y-93877833D01*
X56980259Y-93892258D01*
X56980256Y-93892261D01*
X56918776Y-93959045D01*
X56915231Y-93962739D01*
X56855483Y-94022489D01*
X56855478Y-94022495D01*
X56841393Y-94041881D01*
X56832310Y-94052973D01*
X56811834Y-94075216D01*
X56765857Y-94145589D01*
X56762367Y-94150651D01*
X56716657Y-94213565D01*
X56702716Y-94240926D01*
X56696042Y-94252449D01*
X56675829Y-94283387D01*
X56675828Y-94283389D01*
X56644762Y-94354209D01*
X56641694Y-94360688D01*
X56609433Y-94424004D01*
X56609432Y-94424009D01*
X56597859Y-94459623D01*
X56593486Y-94471109D01*
X56575939Y-94511112D01*
X56575936Y-94511123D01*
X56558605Y-94579557D01*
X56556331Y-94587432D01*
X56536448Y-94648625D01*
X56529536Y-94692260D01*
X56527269Y-94703295D01*
X56514893Y-94752171D01*
X56514892Y-94752177D01*
X56514892Y-94752179D01*
X56509615Y-94815854D01*
X56508514Y-94824995D01*
X56499500Y-94881903D01*
X56499500Y-94932809D01*
X56499076Y-94943050D01*
X56494357Y-94999995D01*
X56494357Y-95000004D01*
X56499076Y-95056948D01*
X56499500Y-95067189D01*
X56499500Y-95118096D01*
X56508514Y-95175005D01*
X56509615Y-95184147D01*
X56513462Y-95230572D01*
X56514892Y-95247824D01*
X56527270Y-95296703D01*
X56529537Y-95307743D01*
X56536447Y-95351369D01*
X56556332Y-95412569D01*
X56558606Y-95420446D01*
X56575935Y-95488874D01*
X56575939Y-95488887D01*
X56593487Y-95528892D01*
X56597862Y-95540384D01*
X56609430Y-95575989D01*
X56609432Y-95575992D01*
X56641696Y-95639314D01*
X56644767Y-95645798D01*
X56675826Y-95716606D01*
X56675829Y-95716610D01*
X56696038Y-95747542D01*
X56702715Y-95759069D01*
X56716658Y-95786434D01*
X56716664Y-95786443D01*
X56762379Y-95849365D01*
X56765870Y-95854429D01*
X56811834Y-95924782D01*
X56811836Y-95924785D01*
X56832309Y-95947025D01*
X56841395Y-95958119D01*
X56855481Y-95977508D01*
X56915216Y-96037243D01*
X56918764Y-96040941D01*
X56980252Y-96107734D01*
X56980256Y-96107738D01*
X56998791Y-96122164D01*
X57010310Y-96132337D01*
X57022490Y-96144517D01*
X57022493Y-96144519D01*
X57096263Y-96198116D01*
X57099527Y-96200570D01*
X57176491Y-96260474D01*
X57191214Y-96268442D01*
X57205079Y-96277176D01*
X57213567Y-96283343D01*
X57300825Y-96327803D01*
X57303503Y-96329209D01*
X57395190Y-96378828D01*
X57404643Y-96382073D01*
X57420673Y-96388869D01*
X57424008Y-96390568D01*
X57424013Y-96390569D01*
X57424014Y-96390570D01*
X57523517Y-96422900D01*
X57525381Y-96423522D01*
X57630386Y-96459571D01*
X57631166Y-96459701D01*
X57633583Y-96460105D01*
X57643842Y-96462612D01*
X57643890Y-96462415D01*
X57648623Y-96463550D01*
X57648632Y-96463553D01*
X57715387Y-96474125D01*
X57758639Y-96480976D01*
X57759562Y-96481125D01*
X57875665Y-96500500D01*
X57881908Y-96500500D01*
X139770500Y-96500500D01*
X139837539Y-96520185D01*
X139883294Y-96572989D01*
X139894500Y-96624500D01*
X139894500Y-134888264D01*
X139874815Y-134955303D01*
X139822011Y-135001058D01*
X139770528Y-135012264D01*
X35000727Y-135035533D01*
X34999344Y-135035526D01*
X34786526Y-135033201D01*
X34777074Y-135032736D01*
X34352451Y-134995586D01*
X34341726Y-134994174D01*
X33922624Y-134920276D01*
X33912062Y-134917935D01*
X33801328Y-134888264D01*
X33500981Y-134807786D01*
X33490665Y-134804533D01*
X33090760Y-134658980D01*
X33080765Y-134654840D01*
X32695063Y-134474984D01*
X32685468Y-134469989D01*
X32316912Y-134257203D01*
X32307789Y-134251391D01*
X31959186Y-134007297D01*
X31950603Y-134000712D01*
X31624580Y-133727147D01*
X31616605Y-133719838D01*
X31315688Y-133418921D01*
X31308380Y-133410946D01*
X31034825Y-133084936D01*
X31028239Y-133076353D01*
X30784141Y-132727744D01*
X30778329Y-132718621D01*
X30565542Y-132350064D01*
X30560547Y-132340469D01*
X30380684Y-131954753D01*
X30376556Y-131944787D01*
X30230993Y-131544855D01*
X30227744Y-131534551D01*
X30219632Y-131504277D01*
X30117596Y-131123471D01*
X30115255Y-131112911D01*
X30041351Y-130693786D01*
X30039944Y-130683099D01*
X30013314Y-130378711D01*
X55649500Y-130378711D01*
X55649500Y-130621288D01*
X55681161Y-130861785D01*
X55743947Y-131096104D01*
X55794765Y-131218789D01*
X55836776Y-131320212D01*
X55958064Y-131530289D01*
X55958066Y-131530292D01*
X55958067Y-131530293D01*
X56105733Y-131722736D01*
X56105739Y-131722743D01*
X56277256Y-131894260D01*
X56277262Y-131894265D01*
X56469711Y-132041936D01*
X56679788Y-132163224D01*
X56903900Y-132256054D01*
X57138211Y-132318838D01*
X57302518Y-132340469D01*
X57378711Y-132350500D01*
X57378712Y-132350500D01*
X57621289Y-132350500D01*
X57697482Y-132340469D01*
X57861789Y-132318838D01*
X58096100Y-132256054D01*
X58320212Y-132163224D01*
X58530289Y-132041936D01*
X58722738Y-131894265D01*
X58894265Y-131722738D01*
X59041936Y-131530289D01*
X59163224Y-131320212D01*
X59256054Y-131096100D01*
X59318838Y-130861789D01*
X59350500Y-130621288D01*
X59350500Y-130378712D01*
X59318838Y-130138211D01*
X59256054Y-129903900D01*
X59163224Y-129679788D01*
X59041936Y-129469711D01*
X58894265Y-129277262D01*
X58894260Y-129277256D01*
X58722743Y-129105739D01*
X58722736Y-129105733D01*
X58530293Y-128958067D01*
X58530292Y-128958066D01*
X58530289Y-128958064D01*
X58320212Y-128836776D01*
X58320205Y-128836773D01*
X58096104Y-128743947D01*
X57861785Y-128681161D01*
X57621289Y-128649500D01*
X57621288Y-128649500D01*
X57378712Y-128649500D01*
X57378711Y-128649500D01*
X57138214Y-128681161D01*
X56903895Y-128743947D01*
X56679794Y-128836773D01*
X56679785Y-128836777D01*
X56469706Y-128958067D01*
X56277263Y-129105733D01*
X56277256Y-129105739D01*
X56105739Y-129277256D01*
X56105733Y-129277263D01*
X55958067Y-129469706D01*
X55836777Y-129679785D01*
X55836773Y-129679794D01*
X55743947Y-129903895D01*
X55681161Y-130138214D01*
X55649500Y-130378711D01*
X30013314Y-130378711D01*
X30002792Y-130258449D01*
X30002328Y-130249005D01*
X30000007Y-130036175D01*
X30000000Y-130034823D01*
X30000000Y-124999996D01*
X97194435Y-124999996D01*
X97194435Y-125000003D01*
X97214630Y-125179249D01*
X97214631Y-125179254D01*
X97274211Y-125349523D01*
X97370184Y-125502262D01*
X97497738Y-125629816D01*
X97588080Y-125686582D01*
X97643010Y-125721097D01*
X97650478Y-125725789D01*
X97820745Y-125785368D01*
X97820750Y-125785369D01*
X97999996Y-125805565D01*
X98000000Y-125805565D01*
X98000004Y-125805565D01*
X98179249Y-125785369D01*
X98179252Y-125785368D01*
X98179255Y-125785368D01*
X98349522Y-125725789D01*
X98502262Y-125629816D01*
X98629816Y-125502262D01*
X98725789Y-125349522D01*
X98785368Y-125179255D01*
X98805565Y-125000000D01*
X98785368Y-124820745D01*
X98725789Y-124650478D01*
X98629816Y-124497738D01*
X98502262Y-124370184D01*
X98349523Y-124274211D01*
X98179254Y-124214631D01*
X98179249Y-124214630D01*
X98000004Y-124194435D01*
X97999996Y-124194435D01*
X97820750Y-124214630D01*
X97820745Y-124214631D01*
X97650476Y-124274211D01*
X97497737Y-124370184D01*
X97370184Y-124497737D01*
X97274211Y-124650476D01*
X97214631Y-124820745D01*
X97214630Y-124820750D01*
X97194435Y-124999996D01*
X30000000Y-124999996D01*
X30000000Y-120725837D01*
X32549500Y-120725837D01*
X32549500Y-120954162D01*
X32585215Y-121179660D01*
X32655770Y-121396803D01*
X32747116Y-121576079D01*
X32759421Y-121600228D01*
X32893621Y-121784937D01*
X33055063Y-121946379D01*
X33239772Y-122080579D01*
X33335884Y-122129550D01*
X33443196Y-122184229D01*
X33443198Y-122184229D01*
X33443201Y-122184231D01*
X33559592Y-122222049D01*
X33660339Y-122254784D01*
X33885838Y-122290500D01*
X33885843Y-122290500D01*
X34114162Y-122290500D01*
X34339660Y-122254784D01*
X34556799Y-122184231D01*
X34760228Y-122080579D01*
X34944937Y-121946379D01*
X35106379Y-121784937D01*
X35240579Y-121600228D01*
X35344231Y-121396799D01*
X35414784Y-121179660D01*
X35416063Y-121171584D01*
X35450500Y-120954162D01*
X35450500Y-120725837D01*
X35414784Y-120500339D01*
X35344229Y-120283196D01*
X35240578Y-120079771D01*
X35236326Y-120073918D01*
X35106379Y-119895063D01*
X34944937Y-119733621D01*
X34760228Y-119599421D01*
X34556803Y-119495770D01*
X34339660Y-119425215D01*
X34114162Y-119389500D01*
X34114157Y-119389500D01*
X33885843Y-119389500D01*
X33885838Y-119389500D01*
X33660339Y-119425215D01*
X33443196Y-119495770D01*
X33239771Y-119599421D01*
X33055061Y-119733622D01*
X32893622Y-119895061D01*
X32759421Y-120079771D01*
X32655770Y-120283196D01*
X32585215Y-120500339D01*
X32549500Y-120725837D01*
X30000000Y-120725837D01*
X30000000Y-116999995D01*
X40494357Y-116999995D01*
X40494357Y-117000004D01*
X40499076Y-117056948D01*
X40499500Y-117067189D01*
X40499500Y-117118096D01*
X40508514Y-117175005D01*
X40509615Y-117184147D01*
X40513462Y-117230572D01*
X40514892Y-117247824D01*
X40527270Y-117296703D01*
X40529537Y-117307743D01*
X40536447Y-117351369D01*
X40556332Y-117412569D01*
X40558606Y-117420446D01*
X40575935Y-117488874D01*
X40575939Y-117488887D01*
X40593487Y-117528892D01*
X40597862Y-117540384D01*
X40609430Y-117575989D01*
X40609432Y-117575992D01*
X40641696Y-117639314D01*
X40644767Y-117645798D01*
X40675826Y-117716606D01*
X40675829Y-117716610D01*
X40696038Y-117747542D01*
X40702715Y-117759069D01*
X40716658Y-117786434D01*
X40716664Y-117786443D01*
X40762379Y-117849365D01*
X40765870Y-117854429D01*
X40811832Y-117924779D01*
X40811836Y-117924785D01*
X40832309Y-117947025D01*
X40841395Y-117958119D01*
X40855481Y-117977508D01*
X40915216Y-118037243D01*
X40918764Y-118040941D01*
X40980252Y-118107734D01*
X40980256Y-118107738D01*
X40998791Y-118122164D01*
X41010310Y-118132337D01*
X41022490Y-118144517D01*
X41022493Y-118144519D01*
X41096263Y-118198116D01*
X41099527Y-118200570D01*
X41176491Y-118260474D01*
X41191214Y-118268442D01*
X41205079Y-118277176D01*
X41213567Y-118283343D01*
X41300815Y-118327798D01*
X41303503Y-118329209D01*
X41395190Y-118378828D01*
X41404643Y-118382073D01*
X41420673Y-118388869D01*
X41424008Y-118390568D01*
X41424013Y-118390569D01*
X41424014Y-118390570D01*
X41523517Y-118422900D01*
X41525381Y-118423522D01*
X41630386Y-118459571D01*
X41631166Y-118459701D01*
X41633583Y-118460105D01*
X41643842Y-118462612D01*
X41643890Y-118462415D01*
X41648623Y-118463550D01*
X41648632Y-118463553D01*
X41715387Y-118474125D01*
X41758639Y-118480976D01*
X41759562Y-118481125D01*
X41875665Y-118500500D01*
X41875666Y-118500500D01*
X42124333Y-118500500D01*
X42124335Y-118500500D01*
X42240532Y-118481109D01*
X42241217Y-118480997D01*
X42351368Y-118463553D01*
X42351379Y-118463549D01*
X42356110Y-118462414D01*
X42356157Y-118462612D01*
X42366414Y-118460104D01*
X42369614Y-118459571D01*
X42474688Y-118423497D01*
X42476360Y-118422939D01*
X42575992Y-118390568D01*
X42579321Y-118388871D01*
X42595355Y-118382074D01*
X42597269Y-118381416D01*
X42604810Y-118378828D01*
X42696524Y-118329194D01*
X42699117Y-118327831D01*
X42786433Y-118283343D01*
X42794916Y-118277178D01*
X42808780Y-118268444D01*
X42823509Y-118260474D01*
X42900465Y-118200575D01*
X42903680Y-118198156D01*
X42977510Y-118144517D01*
X42989699Y-118132327D01*
X43001210Y-118122162D01*
X43019744Y-118107738D01*
X43081234Y-118040940D01*
X43084734Y-118037291D01*
X43144517Y-117977510D01*
X43158604Y-117958119D01*
X43167695Y-117947019D01*
X43167697Y-117947017D01*
X43188164Y-117924785D01*
X43234139Y-117854412D01*
X43237611Y-117849374D01*
X43283343Y-117786433D01*
X43297285Y-117759066D01*
X43303962Y-117747541D01*
X43324171Y-117716610D01*
X43324173Y-117716607D01*
X43355240Y-117645777D01*
X43358286Y-117639345D01*
X43390568Y-117575992D01*
X43402136Y-117540383D01*
X43406513Y-117528890D01*
X43424060Y-117488887D01*
X43424063Y-117488881D01*
X43441397Y-117420428D01*
X43443667Y-117412569D01*
X43463553Y-117351368D01*
X43470465Y-117307718D01*
X43472724Y-117296720D01*
X43485108Y-117247821D01*
X43490382Y-117184152D01*
X43491486Y-117174998D01*
X43500500Y-117118090D01*
X43500500Y-117067189D01*
X43500924Y-117056948D01*
X43505643Y-117000004D01*
X43505643Y-116999995D01*
X43500924Y-116943050D01*
X43500500Y-116932809D01*
X43500500Y-115999996D01*
X95194435Y-115999996D01*
X95194435Y-116000003D01*
X95214630Y-116179249D01*
X95214631Y-116179254D01*
X95242542Y-116259017D01*
X95249500Y-116299972D01*
X95249500Y-119073918D01*
X95249500Y-119073920D01*
X95249499Y-119073920D01*
X95278340Y-119218907D01*
X95278343Y-119218917D01*
X95334914Y-119355492D01*
X95334915Y-119355494D01*
X95334916Y-119355495D01*
X95357637Y-119389500D01*
X95367812Y-119404727D01*
X95367813Y-119404730D01*
X95417046Y-119478414D01*
X95417052Y-119478421D01*
X101246692Y-125308059D01*
X101269358Y-125344125D01*
X101271188Y-125343244D01*
X101274209Y-125349518D01*
X101274211Y-125349522D01*
X101370184Y-125502262D01*
X101497738Y-125629816D01*
X101588080Y-125686582D01*
X101643010Y-125721097D01*
X101650478Y-125725789D01*
X101820745Y-125785368D01*
X101820750Y-125785369D01*
X101999996Y-125805565D01*
X102000000Y-125805565D01*
X102000004Y-125805565D01*
X102179249Y-125785369D01*
X102179252Y-125785368D01*
X102179255Y-125785368D01*
X102349522Y-125725789D01*
X102502262Y-125629816D01*
X102629816Y-125502262D01*
X102725789Y-125349522D01*
X102785368Y-125179255D01*
X102805565Y-125000000D01*
X102785368Y-124820745D01*
X102725789Y-124650478D01*
X102629816Y-124497738D01*
X102502262Y-124370184D01*
X102349522Y-124274211D01*
X102349518Y-124274209D01*
X102343244Y-124271188D01*
X102344125Y-124269358D01*
X102308059Y-124246692D01*
X96786819Y-118725451D01*
X96753334Y-118664128D01*
X96750500Y-118637770D01*
X96750500Y-116299972D01*
X96757458Y-116259017D01*
X96785368Y-116179254D01*
X96785369Y-116179249D01*
X96805565Y-116000003D01*
X96805565Y-115999996D01*
X99194435Y-115999996D01*
X99194435Y-116000003D01*
X99214630Y-116179249D01*
X99214631Y-116179254D01*
X99242542Y-116259017D01*
X99249500Y-116299972D01*
X99249500Y-120073918D01*
X99249500Y-120073920D01*
X99249499Y-120073920D01*
X99278340Y-120218907D01*
X99278343Y-120218917D01*
X99334914Y-120355492D01*
X99367812Y-120404727D01*
X99367813Y-120404730D01*
X99417046Y-120478414D01*
X99417052Y-120478421D01*
X101246692Y-122308059D01*
X101269358Y-122344125D01*
X101271188Y-122343244D01*
X101274209Y-122349518D01*
X101274211Y-122349522D01*
X101370184Y-122502262D01*
X101497738Y-122629816D01*
X101650478Y-122725789D01*
X101820745Y-122785368D01*
X101820750Y-122785369D01*
X101999996Y-122805565D01*
X102000000Y-122805565D01*
X102000004Y-122805565D01*
X102179249Y-122785369D01*
X102179252Y-122785368D01*
X102179255Y-122785368D01*
X102349522Y-122725789D01*
X102502262Y-122629816D01*
X102629816Y-122502262D01*
X102725789Y-122349522D01*
X102785368Y-122179255D01*
X102805565Y-122000000D01*
X102803973Y-121985872D01*
X102785369Y-121820750D01*
X102785368Y-121820745D01*
X102725788Y-121650476D01*
X102629815Y-121497737D01*
X102502262Y-121370184D01*
X102381824Y-121294508D01*
X102349522Y-121274211D01*
X102349518Y-121274209D01*
X102343244Y-121271188D01*
X102344125Y-121269358D01*
X102308059Y-121246692D01*
X100786819Y-119725451D01*
X100753334Y-119664128D01*
X100750500Y-119637770D01*
X100750500Y-116299972D01*
X100757458Y-116259017D01*
X100785368Y-116179254D01*
X100785369Y-116179249D01*
X100805565Y-116000003D01*
X100805565Y-115999996D01*
X100785369Y-115820750D01*
X100785368Y-115820745D01*
X100725788Y-115650476D01*
X100629815Y-115497737D01*
X100502262Y-115370184D01*
X100349523Y-115274211D01*
X100179254Y-115214631D01*
X100179249Y-115214630D01*
X100000004Y-115194435D01*
X99999996Y-115194435D01*
X99820750Y-115214630D01*
X99820745Y-115214631D01*
X99650476Y-115274211D01*
X99497737Y-115370184D01*
X99370184Y-115497737D01*
X99274211Y-115650476D01*
X99214631Y-115820745D01*
X99214630Y-115820750D01*
X99194435Y-115999996D01*
X96805565Y-115999996D01*
X96785369Y-115820750D01*
X96785368Y-115820745D01*
X96725788Y-115650476D01*
X96629815Y-115497737D01*
X96502262Y-115370184D01*
X96349523Y-115274211D01*
X96179254Y-115214631D01*
X96179249Y-115214630D01*
X96000004Y-115194435D01*
X95999996Y-115194435D01*
X95820750Y-115214630D01*
X95820745Y-115214631D01*
X95650476Y-115274211D01*
X95497737Y-115370184D01*
X95370184Y-115497737D01*
X95274211Y-115650476D01*
X95214631Y-115820745D01*
X95214630Y-115820750D01*
X95194435Y-115999996D01*
X43500500Y-115999996D01*
X43500500Y-108999996D01*
X102194435Y-108999996D01*
X102194435Y-109000003D01*
X102214630Y-109179249D01*
X102214631Y-109179254D01*
X102274211Y-109349523D01*
X102370184Y-109502262D01*
X102497738Y-109629816D01*
X102588080Y-109686582D01*
X102632721Y-109714632D01*
X102650478Y-109725789D01*
X102788860Y-109774211D01*
X102820745Y-109785368D01*
X102820750Y-109785369D01*
X102999996Y-109805565D01*
X103000000Y-109805565D01*
X103000004Y-109805565D01*
X103179249Y-109785369D01*
X103179252Y-109785368D01*
X103179255Y-109785368D01*
X103349522Y-109725789D01*
X103502262Y-109629816D01*
X103629816Y-109502262D01*
X103725789Y-109349522D01*
X103785368Y-109179255D01*
X103805565Y-109000000D01*
X103785368Y-108820745D01*
X103725789Y-108650478D01*
X103629816Y-108497738D01*
X103502262Y-108370184D01*
X103349523Y-108274211D01*
X103179254Y-108214631D01*
X103179249Y-108214630D01*
X103000004Y-108194435D01*
X102999996Y-108194435D01*
X102820750Y-108214630D01*
X102820745Y-108214631D01*
X102650476Y-108274211D01*
X102497737Y-108370184D01*
X102370184Y-108497737D01*
X102274211Y-108650476D01*
X102214631Y-108820745D01*
X102214630Y-108820750D01*
X102194435Y-108999996D01*
X43500500Y-108999996D01*
X43500500Y-105172889D01*
X43520185Y-105105850D01*
X43536819Y-105085208D01*
X43622031Y-104999996D01*
X102194435Y-104999996D01*
X102194435Y-105000003D01*
X102214630Y-105179249D01*
X102214631Y-105179254D01*
X102274211Y-105349523D01*
X102370184Y-105502262D01*
X102497738Y-105629816D01*
X102650478Y-105725789D01*
X102820745Y-105785368D01*
X102820750Y-105785369D01*
X102999996Y-105805565D01*
X103000000Y-105805565D01*
X103000004Y-105805565D01*
X103179249Y-105785369D01*
X103179252Y-105785368D01*
X103179255Y-105785368D01*
X103259017Y-105757457D01*
X103299972Y-105750500D01*
X104637770Y-105750500D01*
X104704809Y-105770185D01*
X104725451Y-105786819D01*
X120863181Y-121924549D01*
X120896666Y-121985872D01*
X120899500Y-122012230D01*
X120899500Y-122586560D01*
X120879815Y-122653599D01*
X120827011Y-122699354D01*
X120757853Y-122709298D01*
X120694297Y-122680273D01*
X120672398Y-122655451D01*
X120582952Y-122521585D01*
X120563629Y-122502262D01*
X120478416Y-122417049D01*
X114479760Y-116418393D01*
X108253307Y-110191939D01*
X108230653Y-110155869D01*
X108228813Y-110156756D01*
X108225792Y-110150484D01*
X108225789Y-110150480D01*
X108225789Y-110150478D01*
X108129816Y-109997738D01*
X108002262Y-109870184D01*
X107899422Y-109805565D01*
X107849523Y-109774211D01*
X107679254Y-109714631D01*
X107679249Y-109714630D01*
X107500004Y-109694435D01*
X107499996Y-109694435D01*
X107320750Y-109714630D01*
X107320745Y-109714631D01*
X107150476Y-109774211D01*
X106997737Y-109870184D01*
X106870184Y-109997737D01*
X106774211Y-110150476D01*
X106714631Y-110320745D01*
X106714630Y-110320750D01*
X106694435Y-110499996D01*
X106694435Y-110500003D01*
X106714630Y-110679249D01*
X106714631Y-110679254D01*
X106774211Y-110849523D01*
X106870184Y-111002262D01*
X106997738Y-111129816D01*
X107150478Y-111225789D01*
X107150480Y-111225789D01*
X107150484Y-111225792D01*
X107156756Y-111228813D01*
X107155869Y-111230653D01*
X107191939Y-111253307D01*
X119213181Y-123274548D01*
X119246666Y-123335871D01*
X119249500Y-123362229D01*
X119249500Y-125700028D01*
X119242542Y-125740982D01*
X119214631Y-125820747D01*
X119194435Y-125999996D01*
X119194435Y-126000003D01*
X119214630Y-126179249D01*
X119214631Y-126179254D01*
X119274211Y-126349523D01*
X119370184Y-126502262D01*
X119497738Y-126629816D01*
X119650478Y-126725789D01*
X119820745Y-126785368D01*
X119820750Y-126785369D01*
X119999996Y-126805565D01*
X120000000Y-126805565D01*
X120000004Y-126805565D01*
X120179249Y-126785369D01*
X120179252Y-126785368D01*
X120179255Y-126785368D01*
X120349522Y-126725789D01*
X120502262Y-126629816D01*
X120629816Y-126502262D01*
X120720006Y-126358724D01*
X120772341Y-126312434D01*
X120841394Y-126301786D01*
X120905243Y-126330161D01*
X120929992Y-126358723D01*
X121020184Y-126502262D01*
X121147738Y-126629816D01*
X121300478Y-126725789D01*
X121470745Y-126785368D01*
X121470750Y-126785369D01*
X121649996Y-126805565D01*
X121650000Y-126805565D01*
X121650004Y-126805565D01*
X121829249Y-126785369D01*
X121829252Y-126785368D01*
X121829255Y-126785368D01*
X121999522Y-126725789D01*
X122152262Y-126629816D01*
X122279816Y-126502262D01*
X122375789Y-126349522D01*
X122435368Y-126179255D01*
X122455565Y-126000000D01*
X122435368Y-125820745D01*
X122407458Y-125740982D01*
X122400500Y-125700028D01*
X122400500Y-121576079D01*
X122371659Y-121431092D01*
X122371658Y-121431091D01*
X122371658Y-121431087D01*
X122357457Y-121396803D01*
X122315086Y-121294508D01*
X122248220Y-121194435D01*
X122248220Y-121194434D01*
X122248217Y-121194431D01*
X122232955Y-121171587D01*
X122232952Y-121171584D01*
X105478421Y-104417052D01*
X105478414Y-104417046D01*
X105404729Y-104367812D01*
X105404729Y-104367813D01*
X105355491Y-104334913D01*
X105218917Y-104278343D01*
X105218907Y-104278340D01*
X105073920Y-104249500D01*
X105073918Y-104249500D01*
X103299972Y-104249500D01*
X103259017Y-104242542D01*
X103179254Y-104214631D01*
X103179249Y-104214630D01*
X103000004Y-104194435D01*
X102999996Y-104194435D01*
X102820750Y-104214630D01*
X102820745Y-104214631D01*
X102650476Y-104274211D01*
X102497737Y-104370184D01*
X102370184Y-104497737D01*
X102274211Y-104650476D01*
X102214631Y-104820745D01*
X102214630Y-104820750D01*
X102194435Y-104999996D01*
X43622031Y-104999996D01*
X60085208Y-88536819D01*
X60146531Y-88503334D01*
X60172889Y-88500500D01*
X62124333Y-88500500D01*
X62124335Y-88500500D01*
X62240532Y-88481109D01*
X62241217Y-88480997D01*
X62351368Y-88463553D01*
X62351379Y-88463549D01*
X62356110Y-88462414D01*
X62356157Y-88462612D01*
X62366414Y-88460104D01*
X62369614Y-88459571D01*
X62474688Y-88423497D01*
X62476360Y-88422939D01*
X62575992Y-88390568D01*
X62579321Y-88388871D01*
X62595355Y-88382074D01*
X62597269Y-88381416D01*
X62604810Y-88378828D01*
X62696524Y-88329194D01*
X62699117Y-88327831D01*
X62786433Y-88283343D01*
X62794916Y-88277178D01*
X62808780Y-88268444D01*
X62823509Y-88260474D01*
X62900465Y-88200575D01*
X62903680Y-88198156D01*
X62977510Y-88144517D01*
X62989699Y-88132327D01*
X63001210Y-88122162D01*
X63019744Y-88107738D01*
X63081234Y-88040940D01*
X63084734Y-88037291D01*
X63144517Y-87977510D01*
X63158604Y-87958119D01*
X63167695Y-87947019D01*
X63188164Y-87924785D01*
X63213987Y-87885258D01*
X93249500Y-87885258D01*
X93249500Y-88114741D01*
X93260479Y-88198129D01*
X93279452Y-88342238D01*
X93316670Y-88481140D01*
X93338842Y-88563887D01*
X93426650Y-88775876D01*
X93426657Y-88775890D01*
X93541392Y-88974617D01*
X93681081Y-89156661D01*
X93681089Y-89156670D01*
X93843330Y-89318911D01*
X93843338Y-89318918D01*
X94025382Y-89458607D01*
X94025385Y-89458608D01*
X94025388Y-89458611D01*
X94224112Y-89573344D01*
X94224117Y-89573346D01*
X94224123Y-89573349D01*
X94315480Y-89611190D01*
X94436113Y-89661158D01*
X94657762Y-89720548D01*
X94885266Y-89750500D01*
X94885273Y-89750500D01*
X95114727Y-89750500D01*
X95114734Y-89750500D01*
X95342238Y-89720548D01*
X95563887Y-89661158D01*
X95775888Y-89573344D01*
X95974612Y-89458611D01*
X96156661Y-89318919D01*
X96156665Y-89318914D01*
X96156670Y-89318911D01*
X96318911Y-89156670D01*
X96318914Y-89156665D01*
X96318919Y-89156661D01*
X96458611Y-88974612D01*
X96573344Y-88775888D01*
X96661158Y-88563887D01*
X96720548Y-88342238D01*
X96750500Y-88114734D01*
X96750500Y-87885266D01*
X96750499Y-87885258D01*
X133249500Y-87885258D01*
X133249500Y-88114741D01*
X133260479Y-88198129D01*
X133279452Y-88342238D01*
X133316670Y-88481140D01*
X133338842Y-88563887D01*
X133426650Y-88775876D01*
X133426657Y-88775890D01*
X133541392Y-88974617D01*
X133681081Y-89156661D01*
X133681089Y-89156670D01*
X133843330Y-89318911D01*
X133843338Y-89318918D01*
X134025382Y-89458607D01*
X134025385Y-89458608D01*
X134025388Y-89458611D01*
X134224112Y-89573344D01*
X134224117Y-89573346D01*
X134224123Y-89573349D01*
X134315480Y-89611190D01*
X134436113Y-89661158D01*
X134657762Y-89720548D01*
X134885266Y-89750500D01*
X134885273Y-89750500D01*
X135114727Y-89750500D01*
X135114734Y-89750500D01*
X135342238Y-89720548D01*
X135563887Y-89661158D01*
X135775888Y-89573344D01*
X135974612Y-89458611D01*
X136156661Y-89318919D01*
X136156665Y-89318914D01*
X136156670Y-89318911D01*
X136318911Y-89156670D01*
X136318914Y-89156665D01*
X136318919Y-89156661D01*
X136458611Y-88974612D01*
X136573344Y-88775888D01*
X136661158Y-88563887D01*
X136720548Y-88342238D01*
X136750500Y-88114734D01*
X136750500Y-87885266D01*
X136720548Y-87657762D01*
X136661158Y-87436113D01*
X136573344Y-87224112D01*
X136458611Y-87025388D01*
X136458608Y-87025385D01*
X136458607Y-87025382D01*
X136318918Y-86843338D01*
X136318911Y-86843330D01*
X136156670Y-86681089D01*
X136156661Y-86681081D01*
X135974617Y-86541392D01*
X135775890Y-86426657D01*
X135775876Y-86426650D01*
X135563887Y-86338842D01*
X135342238Y-86279452D01*
X135304215Y-86274446D01*
X135114741Y-86249500D01*
X135114734Y-86249500D01*
X134885266Y-86249500D01*
X134885258Y-86249500D01*
X134668715Y-86278009D01*
X134657762Y-86279452D01*
X134564076Y-86304554D01*
X134436112Y-86338842D01*
X134224123Y-86426650D01*
X134224109Y-86426657D01*
X134025382Y-86541392D01*
X133843338Y-86681081D01*
X133681081Y-86843338D01*
X133541392Y-87025382D01*
X133426657Y-87224109D01*
X133426650Y-87224123D01*
X133345331Y-87420447D01*
X133338842Y-87436113D01*
X133283538Y-87642515D01*
X133279453Y-87657759D01*
X133279451Y-87657770D01*
X133249500Y-87885258D01*
X96750499Y-87885258D01*
X96720548Y-87657762D01*
X96661158Y-87436113D01*
X96573344Y-87224112D01*
X96458611Y-87025388D01*
X96458608Y-87025385D01*
X96458607Y-87025382D01*
X96318918Y-86843338D01*
X96318911Y-86843330D01*
X96156670Y-86681089D01*
X96156661Y-86681081D01*
X95974617Y-86541392D01*
X95775890Y-86426657D01*
X95775876Y-86426650D01*
X95563887Y-86338842D01*
X95342238Y-86279452D01*
X95304215Y-86274446D01*
X95114741Y-86249500D01*
X95114734Y-86249500D01*
X94885266Y-86249500D01*
X94885258Y-86249500D01*
X94668715Y-86278009D01*
X94657762Y-86279452D01*
X94564076Y-86304554D01*
X94436112Y-86338842D01*
X94224123Y-86426650D01*
X94224109Y-86426657D01*
X94025382Y-86541392D01*
X93843338Y-86681081D01*
X93681081Y-86843338D01*
X93541392Y-87025382D01*
X93426657Y-87224109D01*
X93426650Y-87224123D01*
X93345331Y-87420447D01*
X93338842Y-87436113D01*
X93283538Y-87642515D01*
X93279453Y-87657759D01*
X93279451Y-87657770D01*
X93249500Y-87885258D01*
X63213987Y-87885258D01*
X63234139Y-87854412D01*
X63237611Y-87849374D01*
X63283343Y-87786433D01*
X63297285Y-87759066D01*
X63303962Y-87747541D01*
X63324171Y-87716610D01*
X63324173Y-87716607D01*
X63355240Y-87645777D01*
X63358286Y-87639345D01*
X63390568Y-87575992D01*
X63402136Y-87540383D01*
X63406513Y-87528890D01*
X63415178Y-87509134D01*
X63424063Y-87488881D01*
X63441397Y-87420428D01*
X63443661Y-87412587D01*
X63463553Y-87351368D01*
X63470465Y-87307718D01*
X63472724Y-87296720D01*
X63485108Y-87247821D01*
X63490382Y-87184152D01*
X63491486Y-87174998D01*
X63500500Y-87118090D01*
X63500500Y-87067189D01*
X63500924Y-87056948D01*
X63505643Y-87000004D01*
X63505643Y-86999995D01*
X63500924Y-86943050D01*
X63500500Y-86932809D01*
X63500500Y-86881909D01*
X63494391Y-86843339D01*
X63491485Y-86824995D01*
X63490382Y-86815841D01*
X63485108Y-86752179D01*
X63472727Y-86703291D01*
X63470464Y-86692267D01*
X63468428Y-86679418D01*
X63463553Y-86648632D01*
X63443665Y-86587424D01*
X63441400Y-86579582D01*
X63424063Y-86511119D01*
X63406512Y-86471109D01*
X63402137Y-86459617D01*
X63391428Y-86426657D01*
X63390568Y-86424008D01*
X63390567Y-86424006D01*
X63390565Y-86424001D01*
X63358300Y-86360679D01*
X63355228Y-86354192D01*
X63324177Y-86283401D01*
X63324174Y-86283395D01*
X63324173Y-86283393D01*
X63303956Y-86252449D01*
X63297282Y-86240926D01*
X63283343Y-86213567D01*
X63237619Y-86150634D01*
X63234128Y-86145569D01*
X63188165Y-86075217D01*
X63188164Y-86075215D01*
X63167686Y-86052970D01*
X63158607Y-86041884D01*
X63144517Y-86022490D01*
X63084782Y-85962755D01*
X63081234Y-85959057D01*
X63019747Y-85892265D01*
X63019739Y-85892258D01*
X63001212Y-85877838D01*
X62989692Y-85867665D01*
X62977511Y-85855484D01*
X62903706Y-85801861D01*
X62900430Y-85799396D01*
X62823514Y-85739530D01*
X62823515Y-85739530D01*
X62823509Y-85739526D01*
X62823505Y-85739524D01*
X62823501Y-85739521D01*
X62808783Y-85731556D01*
X62794922Y-85722824D01*
X62786436Y-85716659D01*
X62786426Y-85716653D01*
X62699178Y-85672197D01*
X62696457Y-85670768D01*
X62604813Y-85621173D01*
X62604802Y-85621169D01*
X62595346Y-85617922D01*
X62579328Y-85611131D01*
X62575996Y-85609433D01*
X62476479Y-85577098D01*
X62474535Y-85576448D01*
X62369616Y-85540429D01*
X62366403Y-85539893D01*
X62356143Y-85537385D01*
X62356096Y-85537582D01*
X62351362Y-85536445D01*
X62241437Y-85519035D01*
X62240426Y-85518871D01*
X62124335Y-85499500D01*
X62118092Y-85499500D01*
X59381908Y-85499500D01*
X59381903Y-85499500D01*
X59148631Y-85536446D01*
X58978518Y-85591720D01*
X58936799Y-85605276D01*
X58932318Y-85606731D01*
X58924006Y-85609432D01*
X58713565Y-85716657D01*
X58522488Y-85855484D01*
X40855484Y-103522488D01*
X40716657Y-103713565D01*
X40609433Y-103924003D01*
X40536446Y-104148631D01*
X40499500Y-104381902D01*
X40499500Y-116932809D01*
X40499076Y-116943050D01*
X40494357Y-116999995D01*
X30000000Y-116999995D01*
X30000000Y-43999995D01*
X48094357Y-43999995D01*
X48094357Y-44000004D01*
X48099076Y-44056948D01*
X48099500Y-44067189D01*
X48099500Y-65218097D01*
X48136446Y-65451368D01*
X48209433Y-65675996D01*
X48316657Y-65886434D01*
X48455483Y-66077510D01*
X61022490Y-78644517D01*
X61213566Y-78783343D01*
X61424008Y-78890568D01*
X61648631Y-78963553D01*
X61736109Y-78977408D01*
X61881903Y-79000500D01*
X62330951Y-79000500D01*
X62397990Y-79020185D01*
X62443745Y-79072989D01*
X62454479Y-79113693D01*
X62464364Y-79226686D01*
X62464366Y-79226697D01*
X62523258Y-79446488D01*
X62523261Y-79446497D01*
X62619431Y-79652732D01*
X62619432Y-79652734D01*
X62749954Y-79839141D01*
X62823132Y-79912319D01*
X62856617Y-79973642D01*
X62851633Y-80043334D01*
X62823132Y-80087681D01*
X62749954Y-80160858D01*
X62619432Y-80347265D01*
X62619431Y-80347267D01*
X62523261Y-80553502D01*
X62523258Y-80553511D01*
X62464366Y-80773302D01*
X62464364Y-80773313D01*
X62444532Y-80999998D01*
X62444532Y-81000001D01*
X62464364Y-81226686D01*
X62464366Y-81226697D01*
X62523258Y-81446488D01*
X62523261Y-81446497D01*
X62619431Y-81652732D01*
X62619432Y-81652734D01*
X62698700Y-81765942D01*
X62721028Y-81832149D01*
X62704016Y-81899916D01*
X62684807Y-81924745D01*
X62617137Y-81992416D01*
X62522877Y-82142428D01*
X62464361Y-82309659D01*
X62464360Y-82309662D01*
X62449500Y-82441555D01*
X62449500Y-83558444D01*
X62464360Y-83690337D01*
X62464361Y-83690340D01*
X62522877Y-83857571D01*
X62617137Y-84007583D01*
X62742416Y-84132862D01*
X62891818Y-84226739D01*
X62892430Y-84227123D01*
X63059658Y-84285638D01*
X63059659Y-84285638D01*
X63059662Y-84285639D01*
X63133145Y-84293918D01*
X63191555Y-84300499D01*
X63191556Y-84300500D01*
X63191560Y-84300500D01*
X63245431Y-84300500D01*
X63312470Y-84320185D01*
X63358225Y-84372989D01*
X63368169Y-84442147D01*
X63355916Y-84480795D01*
X63294781Y-84600776D01*
X63231522Y-84795465D01*
X63199500Y-84997648D01*
X63199500Y-85202351D01*
X63231522Y-85404534D01*
X63294781Y-85599223D01*
X63387715Y-85781613D01*
X63508028Y-85947213D01*
X63652786Y-86091971D01*
X63807749Y-86204556D01*
X63818390Y-86212287D01*
X63934607Y-86271503D01*
X64000776Y-86305218D01*
X64000778Y-86305218D01*
X64000781Y-86305220D01*
X64104259Y-86338842D01*
X64195465Y-86368477D01*
X64296557Y-86384488D01*
X64397648Y-86400500D01*
X64397649Y-86400500D01*
X65602351Y-86400500D01*
X65602352Y-86400500D01*
X65804534Y-86368477D01*
X65999219Y-86305220D01*
X66181610Y-86212287D01*
X66274590Y-86144732D01*
X66347213Y-86091971D01*
X66347215Y-86091968D01*
X66347219Y-86091966D01*
X66491966Y-85947219D01*
X66491968Y-85947215D01*
X66491971Y-85947213D01*
X66558615Y-85855484D01*
X66612287Y-85781610D01*
X66705220Y-85599219D01*
X66768477Y-85404534D01*
X66800500Y-85202352D01*
X66800500Y-84997648D01*
X66768477Y-84795466D01*
X66705220Y-84600781D01*
X66705218Y-84600778D01*
X66705218Y-84600776D01*
X66644084Y-84480795D01*
X66612287Y-84418390D01*
X66612282Y-84418383D01*
X66610053Y-84414745D01*
X66591803Y-84347301D01*
X66612914Y-84280697D01*
X66666682Y-84236079D01*
X66683687Y-84230171D01*
X66696496Y-84226739D01*
X66902734Y-84130568D01*
X66943312Y-84102155D01*
X73650000Y-84102155D01*
X73650000Y-84750000D01*
X74566988Y-84750000D01*
X74534075Y-84807007D01*
X74500000Y-84934174D01*
X74500000Y-85065826D01*
X74534075Y-85192993D01*
X74566988Y-85250000D01*
X73650000Y-85250000D01*
X73650000Y-85897844D01*
X73656401Y-85957372D01*
X73656403Y-85957379D01*
X73706645Y-86092086D01*
X73706649Y-86092093D01*
X73792809Y-86207187D01*
X73792812Y-86207190D01*
X73907906Y-86293350D01*
X73907913Y-86293354D01*
X74042620Y-86343596D01*
X74042627Y-86343598D01*
X74102155Y-86349999D01*
X74102172Y-86350000D01*
X74750000Y-86350000D01*
X74750000Y-85433012D01*
X74807007Y-85465925D01*
X74934174Y-85500000D01*
X75065826Y-85500000D01*
X75192993Y-85465925D01*
X75250000Y-85433012D01*
X75250000Y-86350000D01*
X75897828Y-86350000D01*
X75897844Y-86349999D01*
X75957372Y-86343598D01*
X75957379Y-86343596D01*
X76092086Y-86293354D01*
X76092093Y-86293350D01*
X76207187Y-86207190D01*
X76207190Y-86207187D01*
X76293350Y-86092093D01*
X76293354Y-86092086D01*
X76343596Y-85957379D01*
X76343598Y-85957372D01*
X76349999Y-85897844D01*
X76350000Y-85897827D01*
X76350000Y-85250000D01*
X75433012Y-85250000D01*
X75465925Y-85192993D01*
X75500000Y-85065826D01*
X75500000Y-84934174D01*
X75465925Y-84807007D01*
X75433012Y-84750000D01*
X76350000Y-84750000D01*
X76350000Y-84102172D01*
X76349999Y-84102155D01*
X76343598Y-84042627D01*
X76343596Y-84042620D01*
X76293354Y-83907913D01*
X76293350Y-83907906D01*
X76207190Y-83792812D01*
X76207187Y-83792809D01*
X76092093Y-83706649D01*
X76092086Y-83706645D01*
X75957379Y-83656403D01*
X75957372Y-83656401D01*
X75897844Y-83650000D01*
X75250000Y-83650000D01*
X75250000Y-84566988D01*
X75192993Y-84534075D01*
X75065826Y-84500000D01*
X74934174Y-84500000D01*
X74807007Y-84534075D01*
X74750000Y-84566988D01*
X74750000Y-83650000D01*
X74102155Y-83650000D01*
X74042627Y-83656401D01*
X74042620Y-83656403D01*
X73907913Y-83706645D01*
X73907906Y-83706649D01*
X73792812Y-83792809D01*
X73792809Y-83792812D01*
X73706649Y-83907906D01*
X73706645Y-83907913D01*
X73656403Y-84042620D01*
X73656401Y-84042627D01*
X73650000Y-84102155D01*
X66943312Y-84102155D01*
X67089139Y-84000047D01*
X67250047Y-83839139D01*
X67380568Y-83652734D01*
X67476739Y-83446496D01*
X67535635Y-83226692D01*
X67555468Y-83000000D01*
X67535635Y-82773308D01*
X67476739Y-82553504D01*
X67380568Y-82347266D01*
X67250047Y-82160861D01*
X67176865Y-82087679D01*
X67143382Y-82026359D01*
X67148366Y-81956667D01*
X67176865Y-81912320D01*
X67250047Y-81839139D01*
X67380568Y-81652734D01*
X67476739Y-81446496D01*
X67535635Y-81226692D01*
X67555468Y-81000000D01*
X67535635Y-80773308D01*
X67476739Y-80553504D01*
X67380568Y-80347266D01*
X67250047Y-80160861D01*
X67176865Y-80087679D01*
X67143382Y-80026359D01*
X67148366Y-79956667D01*
X67176865Y-79912320D01*
X67250047Y-79839139D01*
X67380568Y-79652734D01*
X67476739Y-79446496D01*
X67535635Y-79226692D01*
X67555468Y-79000000D01*
X67554472Y-78988620D01*
X67536513Y-78783343D01*
X67535635Y-78773308D01*
X67476739Y-78553504D01*
X67380568Y-78347266D01*
X67250047Y-78160861D01*
X67250045Y-78160858D01*
X67089141Y-77999954D01*
X66902734Y-77869432D01*
X66902732Y-77869431D01*
X66696497Y-77773261D01*
X66696485Y-77773257D01*
X66683680Y-77769826D01*
X66624020Y-77733460D01*
X66593492Y-77670612D01*
X66601789Y-77601237D01*
X66610051Y-77585257D01*
X66612274Y-77581626D01*
X66612287Y-77581610D01*
X66705220Y-77399219D01*
X66768477Y-77204534D01*
X66800500Y-77002352D01*
X66800500Y-76797648D01*
X66768477Y-76595466D01*
X66705220Y-76400781D01*
X66705218Y-76400778D01*
X66705218Y-76400776D01*
X66663068Y-76318053D01*
X66612287Y-76218390D01*
X66604148Y-76207187D01*
X66491971Y-76052786D01*
X66347213Y-75908028D01*
X66181613Y-75787715D01*
X66181612Y-75787714D01*
X66181610Y-75787713D01*
X66124653Y-75758691D01*
X65999223Y-75694781D01*
X65804534Y-75631522D01*
X65629995Y-75603878D01*
X65602352Y-75599500D01*
X64397648Y-75599500D01*
X64373329Y-75603351D01*
X64195465Y-75631522D01*
X64000776Y-75694781D01*
X63818386Y-75787715D01*
X63652786Y-75908028D01*
X63508028Y-76052786D01*
X63387715Y-76218386D01*
X63359363Y-76274030D01*
X63311388Y-76324826D01*
X63243567Y-76341621D01*
X63177432Y-76319083D01*
X63175992Y-76318053D01*
X63153706Y-76301861D01*
X63150430Y-76299396D01*
X63073514Y-76239530D01*
X63073515Y-76239530D01*
X63073509Y-76239526D01*
X63073505Y-76239524D01*
X63073501Y-76239521D01*
X63058783Y-76231556D01*
X63044922Y-76222824D01*
X63036436Y-76216659D01*
X63036426Y-76216653D01*
X62949178Y-76172197D01*
X62946457Y-76170768D01*
X62854813Y-76121173D01*
X62854802Y-76121169D01*
X62845346Y-76117922D01*
X62829328Y-76111131D01*
X62825996Y-76109433D01*
X62726479Y-76077098D01*
X62724583Y-76076464D01*
X62711981Y-76072138D01*
X62664566Y-76042539D01*
X51136819Y-64514792D01*
X51103334Y-64453469D01*
X51100500Y-64427111D01*
X51100500Y-59152155D01*
X63047349Y-59152155D01*
X63047349Y-59750000D01*
X64031663Y-59750000D01*
X64027269Y-59754394D01*
X63974608Y-59845606D01*
X63947349Y-59947339D01*
X63947349Y-60052661D01*
X63974608Y-60154394D01*
X64027269Y-60245606D01*
X64031663Y-60250000D01*
X63047349Y-60250000D01*
X63047349Y-60847844D01*
X63053750Y-60907372D01*
X63053752Y-60907379D01*
X63103994Y-61042086D01*
X63103998Y-61042093D01*
X63190158Y-61157187D01*
X63190161Y-61157190D01*
X63305255Y-61243350D01*
X63305262Y-61243354D01*
X63439969Y-61293596D01*
X63439976Y-61293598D01*
X63499504Y-61299999D01*
X63499521Y-61300000D01*
X64097349Y-61300000D01*
X64097349Y-60315686D01*
X64101743Y-60320080D01*
X64192955Y-60372741D01*
X64294688Y-60400000D01*
X64400010Y-60400000D01*
X64501743Y-60372741D01*
X64592955Y-60320080D01*
X64597349Y-60315686D01*
X64597349Y-61300000D01*
X65195177Y-61300000D01*
X65195193Y-61299999D01*
X65254721Y-61293598D01*
X65254728Y-61293596D01*
X65389435Y-61243354D01*
X65389442Y-61243350D01*
X65504536Y-61157190D01*
X65504539Y-61157187D01*
X65590699Y-61042093D01*
X65590703Y-61042086D01*
X65640945Y-60907379D01*
X65640947Y-60907372D01*
X65647348Y-60847844D01*
X65647349Y-60847827D01*
X65647349Y-60250000D01*
X64663035Y-60250000D01*
X64667429Y-60245606D01*
X64720090Y-60154394D01*
X64747349Y-60052661D01*
X64747349Y-59999998D01*
X66541881Y-59999998D01*
X66541881Y-60000001D01*
X66561713Y-60226686D01*
X66561715Y-60226697D01*
X66620607Y-60446488D01*
X66620610Y-60446497D01*
X66716780Y-60652732D01*
X66716781Y-60652734D01*
X66847303Y-60839141D01*
X67008207Y-61000045D01*
X67008210Y-61000047D01*
X67194615Y-61130568D01*
X67400853Y-61226739D01*
X67620657Y-61285635D01*
X67782579Y-61299801D01*
X67847347Y-61305468D01*
X67847349Y-61305468D01*
X67847351Y-61305468D01*
X67909860Y-61299999D01*
X68074041Y-61285635D01*
X68293845Y-61226739D01*
X68500083Y-61130568D01*
X68686488Y-61000047D01*
X68847396Y-60839139D01*
X68977917Y-60652734D01*
X69074088Y-60446496D01*
X69132984Y-60226692D01*
X69152817Y-60000000D01*
X69132984Y-59773308D01*
X69074088Y-59553504D01*
X68977917Y-59347266D01*
X68847396Y-59160861D01*
X68847394Y-59160858D01*
X68686490Y-58999954D01*
X68500083Y-58869432D01*
X68500081Y-58869431D01*
X68293846Y-58773261D01*
X68293837Y-58773258D01*
X68074046Y-58714366D01*
X68074042Y-58714365D01*
X68074041Y-58714365D01*
X68074040Y-58714364D01*
X68074035Y-58714364D01*
X67847351Y-58694532D01*
X67847347Y-58694532D01*
X67620662Y-58714364D01*
X67620651Y-58714366D01*
X67400860Y-58773258D01*
X67400851Y-58773261D01*
X67194616Y-58869431D01*
X67194614Y-58869432D01*
X67008207Y-58999954D01*
X66847303Y-59160858D01*
X66716781Y-59347265D01*
X66716780Y-59347267D01*
X66620610Y-59553502D01*
X66620607Y-59553511D01*
X66561715Y-59773302D01*
X66561713Y-59773313D01*
X66541881Y-59999998D01*
X64747349Y-59999998D01*
X64747349Y-59947339D01*
X64720090Y-59845606D01*
X64667429Y-59754394D01*
X64663035Y-59750000D01*
X65647349Y-59750000D01*
X65647349Y-59152172D01*
X65647348Y-59152155D01*
X65640947Y-59092627D01*
X65640945Y-59092620D01*
X65590703Y-58957913D01*
X65590699Y-58957906D01*
X65504539Y-58842812D01*
X65504536Y-58842809D01*
X65389442Y-58756649D01*
X65389435Y-58756645D01*
X65254728Y-58706403D01*
X65254721Y-58706401D01*
X65195193Y-58700000D01*
X64597349Y-58700000D01*
X64597349Y-59684314D01*
X64592955Y-59679920D01*
X64501743Y-59627259D01*
X64400010Y-59600000D01*
X64294688Y-59600000D01*
X64192955Y-59627259D01*
X64101743Y-59679920D01*
X64097349Y-59684314D01*
X64097349Y-58700000D01*
X63499504Y-58700000D01*
X63439976Y-58706401D01*
X63439969Y-58706403D01*
X63305262Y-58756645D01*
X63305255Y-58756649D01*
X63190161Y-58842809D01*
X63190158Y-58842812D01*
X63103998Y-58957906D01*
X63103994Y-58957913D01*
X63053752Y-59092620D01*
X63053750Y-59092627D01*
X63047349Y-59152155D01*
X51100500Y-59152155D01*
X51100500Y-44067189D01*
X51100924Y-44056948D01*
X51105643Y-44000004D01*
X51105643Y-43999995D01*
X51100924Y-43943050D01*
X51100500Y-43932809D01*
X51100500Y-43881909D01*
X51091486Y-43825002D01*
X51090382Y-43815841D01*
X51090382Y-43815835D01*
X51085108Y-43752179D01*
X51072727Y-43703291D01*
X51070464Y-43692268D01*
X51066488Y-43667166D01*
X51075442Y-43597872D01*
X51101277Y-43560089D01*
X53024549Y-41636819D01*
X53085872Y-41603334D01*
X53112230Y-41600500D01*
X53823920Y-41600500D01*
X53951267Y-41575168D01*
X53968913Y-41571658D01*
X54105495Y-41515084D01*
X54173935Y-41469354D01*
X54228416Y-41432952D01*
X54661371Y-40999996D01*
X56194435Y-40999996D01*
X56194435Y-41000003D01*
X56214630Y-41179249D01*
X56214631Y-41179254D01*
X56274211Y-41349523D01*
X56349526Y-41469385D01*
X56370184Y-41502262D01*
X56497738Y-41629816D01*
X56650478Y-41725789D01*
X56732901Y-41754630D01*
X56820745Y-41785368D01*
X56820750Y-41785369D01*
X56999996Y-41805565D01*
X57000000Y-41805565D01*
X57000004Y-41805565D01*
X57179249Y-41785369D01*
X57179252Y-41785368D01*
X57179255Y-41785368D01*
X57349522Y-41725789D01*
X57502262Y-41629816D01*
X57629816Y-41502262D01*
X57725789Y-41349522D01*
X57785368Y-41179255D01*
X57785369Y-41179249D01*
X57805565Y-41000003D01*
X57805565Y-40999996D01*
X57785369Y-40820750D01*
X57785368Y-40820745D01*
X57725788Y-40650476D01*
X57629815Y-40497737D01*
X57502262Y-40370184D01*
X57349523Y-40274211D01*
X57179254Y-40214631D01*
X57179249Y-40214630D01*
X57000004Y-40194435D01*
X56999996Y-40194435D01*
X56820750Y-40214630D01*
X56820745Y-40214631D01*
X56650476Y-40274211D01*
X56497737Y-40370184D01*
X56370184Y-40497737D01*
X56274211Y-40650476D01*
X56214631Y-40820745D01*
X56214630Y-40820750D01*
X56194435Y-40999996D01*
X54661371Y-40999996D01*
X55808061Y-39853305D01*
X55844134Y-39830655D01*
X55843246Y-39828811D01*
X55849518Y-39825790D01*
X55849522Y-39825789D01*
X56002262Y-39729816D01*
X56129816Y-39602262D01*
X56225789Y-39449522D01*
X56285368Y-39279255D01*
X56291393Y-39225789D01*
X56293102Y-39210617D01*
X56320168Y-39146203D01*
X56377763Y-39106648D01*
X56416322Y-39100500D01*
X56523281Y-39100500D01*
X56523297Y-39100501D01*
X56530893Y-39100501D01*
X56689004Y-39100501D01*
X56689007Y-39100501D01*
X56841735Y-39059577D01*
X56891854Y-39030639D01*
X56978666Y-38980520D01*
X57090470Y-38868716D01*
X57090470Y-38868714D01*
X57100678Y-38858507D01*
X57100680Y-38858504D01*
X57573510Y-38385673D01*
X57634831Y-38352190D01*
X57647286Y-38350138D01*
X57734230Y-38340343D01*
X57904497Y-38280764D01*
X58057237Y-38184791D01*
X58184791Y-38057237D01*
X58280764Y-37904497D01*
X58340343Y-37734230D01*
X58342551Y-37714632D01*
X58360540Y-37554978D01*
X58360540Y-37554971D01*
X58354346Y-37499996D01*
X59194435Y-37499996D01*
X59194435Y-37500003D01*
X59214630Y-37679249D01*
X59214631Y-37679254D01*
X59274211Y-37849523D01*
X59315122Y-37914632D01*
X59370184Y-38002262D01*
X59497738Y-38129816D01*
X59577989Y-38180241D01*
X59605833Y-38197737D01*
X59650478Y-38225789D01*
X59729120Y-38253307D01*
X59820745Y-38285368D01*
X59820750Y-38285369D01*
X59999996Y-38305565D01*
X60000000Y-38305565D01*
X60000004Y-38305565D01*
X60179249Y-38285369D01*
X60179252Y-38285368D01*
X60179255Y-38285368D01*
X60349522Y-38225789D01*
X60502262Y-38129816D01*
X60629816Y-38002262D01*
X60725789Y-37849522D01*
X60785368Y-37679255D01*
X60799371Y-37554975D01*
X60805565Y-37500003D01*
X60805565Y-37499996D01*
X60785369Y-37320750D01*
X60785368Y-37320745D01*
X60725789Y-37150478D01*
X60629816Y-36997738D01*
X60502262Y-36870184D01*
X60469404Y-36849538D01*
X60349523Y-36774211D01*
X60179254Y-36714631D01*
X60179249Y-36714630D01*
X60000004Y-36694435D01*
X59999996Y-36694435D01*
X59820750Y-36714630D01*
X59820745Y-36714631D01*
X59650476Y-36774211D01*
X59497737Y-36870184D01*
X59370184Y-36997737D01*
X59274211Y-37150476D01*
X59214631Y-37320745D01*
X59214630Y-37320750D01*
X59194435Y-37499996D01*
X58354346Y-37499996D01*
X58340344Y-37375725D01*
X58340343Y-37375720D01*
X58280763Y-37205451D01*
X58241557Y-37143055D01*
X58184791Y-37052713D01*
X58184789Y-37052711D01*
X58131297Y-36999218D01*
X58097813Y-36937895D01*
X58102798Y-36868203D01*
X58111592Y-36849538D01*
X58123384Y-36829114D01*
X58179577Y-36731784D01*
X58220500Y-36579057D01*
X58220500Y-35620943D01*
X58179577Y-35468216D01*
X58122979Y-35370184D01*
X58100524Y-35331290D01*
X58100518Y-35331282D01*
X57988717Y-35219481D01*
X57988709Y-35219475D01*
X57851790Y-35140426D01*
X57851786Y-35140424D01*
X57851784Y-35140423D01*
X57699057Y-35099500D01*
X57540943Y-35099500D01*
X57388216Y-35140423D01*
X57388209Y-35140426D01*
X57251290Y-35219475D01*
X57251282Y-35219481D01*
X57139481Y-35331282D01*
X57139475Y-35331290D01*
X57060426Y-35468209D01*
X57060423Y-35468216D01*
X57019500Y-35620943D01*
X57019500Y-36579057D01*
X57057413Y-36720548D01*
X57060423Y-36731783D01*
X57060425Y-36731788D01*
X57081084Y-36767572D01*
X57097555Y-36835472D01*
X57074702Y-36901499D01*
X57057290Y-36919888D01*
X57057637Y-36920235D01*
X56925159Y-37052712D01*
X56829185Y-37205453D01*
X56769605Y-37375725D01*
X56759812Y-37462643D01*
X56732745Y-37527057D01*
X56724273Y-37536440D01*
X56397532Y-37863182D01*
X56336211Y-37896666D01*
X56309853Y-37899500D01*
X51082412Y-37899500D01*
X51015373Y-37879815D01*
X51005097Y-37872445D01*
X51002263Y-37870185D01*
X51002262Y-37870184D01*
X50935244Y-37828074D01*
X50849523Y-37774211D01*
X50679254Y-37714631D01*
X50679249Y-37714630D01*
X50500004Y-37694435D01*
X50499996Y-37694435D01*
X50320750Y-37714630D01*
X50320745Y-37714631D01*
X50150476Y-37774211D01*
X49997737Y-37870184D01*
X49870184Y-37997737D01*
X49774211Y-38150476D01*
X49714631Y-38320745D01*
X49714630Y-38320750D01*
X49694435Y-38499996D01*
X49694435Y-38500003D01*
X49714630Y-38679249D01*
X49714631Y-38679254D01*
X49774211Y-38849523D01*
X49870184Y-39002262D01*
X49997738Y-39129816D01*
X50074115Y-39177807D01*
X50142450Y-39220745D01*
X50150478Y-39225789D01*
X50250668Y-39260847D01*
X50320745Y-39285368D01*
X50320750Y-39285369D01*
X50499996Y-39305565D01*
X50500000Y-39305565D01*
X50500004Y-39305565D01*
X50679249Y-39285369D01*
X50679252Y-39285368D01*
X50679255Y-39285368D01*
X50849522Y-39225789D01*
X50895646Y-39196806D01*
X50962880Y-39177807D01*
X51029715Y-39198174D01*
X51074930Y-39251441D01*
X51078659Y-39260847D01*
X51119544Y-39377691D01*
X51119547Y-39377697D01*
X51209518Y-39520884D01*
X51209523Y-39520890D01*
X51329109Y-39640476D01*
X51329115Y-39640481D01*
X51472302Y-39730452D01*
X51472308Y-39730455D01*
X51472310Y-39730456D01*
X51526798Y-39749522D01*
X51638514Y-39788613D01*
X51637496Y-39791520D01*
X51685621Y-39818060D01*
X52092800Y-40225239D01*
X52126285Y-40286562D01*
X52128338Y-40299031D01*
X52129771Y-40311744D01*
X52130484Y-40318064D01*
X52131975Y-40324598D01*
X52127699Y-40394337D01*
X52098764Y-40439866D01*
X50039912Y-42498718D01*
X49978589Y-42532203D01*
X49932834Y-42533511D01*
X49855818Y-42521313D01*
X49841417Y-42519032D01*
X49840426Y-42518871D01*
X49724335Y-42499500D01*
X49475665Y-42499500D01*
X49475664Y-42499500D01*
X49359571Y-42518871D01*
X49358562Y-42519035D01*
X49248633Y-42536446D01*
X49243893Y-42537584D01*
X49243846Y-42537388D01*
X49233599Y-42539892D01*
X49230388Y-42540428D01*
X49125443Y-42576454D01*
X49123503Y-42577102D01*
X49024005Y-42609432D01*
X49023997Y-42609436D01*
X49020652Y-42611140D01*
X49004662Y-42617918D01*
X48995197Y-42621168D01*
X48995194Y-42621170D01*
X48903525Y-42670777D01*
X48900806Y-42672205D01*
X48813563Y-42716659D01*
X48813557Y-42716662D01*
X48805072Y-42722827D01*
X48791222Y-42731553D01*
X48776492Y-42739525D01*
X48776485Y-42739530D01*
X48699547Y-42799411D01*
X48696275Y-42801872D01*
X48622491Y-42855482D01*
X48610297Y-42867674D01*
X48598792Y-42877833D01*
X48580259Y-42892258D01*
X48580256Y-42892261D01*
X48518776Y-42959045D01*
X48515231Y-42962739D01*
X48455483Y-43022489D01*
X48455478Y-43022495D01*
X48441393Y-43041881D01*
X48432310Y-43052973D01*
X48411834Y-43075216D01*
X48365857Y-43145589D01*
X48362367Y-43150651D01*
X48316657Y-43213565D01*
X48302716Y-43240926D01*
X48296042Y-43252449D01*
X48275829Y-43283387D01*
X48275828Y-43283389D01*
X48244762Y-43354209D01*
X48241694Y-43360688D01*
X48209433Y-43424004D01*
X48209432Y-43424009D01*
X48197859Y-43459623D01*
X48193486Y-43471109D01*
X48175939Y-43511112D01*
X48175936Y-43511123D01*
X48158605Y-43579557D01*
X48156331Y-43587432D01*
X48136448Y-43648625D01*
X48129536Y-43692260D01*
X48127269Y-43703295D01*
X48114893Y-43752171D01*
X48114893Y-43752176D01*
X48114892Y-43752179D01*
X48109617Y-43815841D01*
X48108514Y-43824995D01*
X48099500Y-43881903D01*
X48099500Y-43932809D01*
X48099076Y-43943050D01*
X48094357Y-43999995D01*
X30000000Y-43999995D01*
X30000000Y-35001118D01*
X30000021Y-34998851D01*
X30001568Y-34914241D01*
X33185030Y-34914241D01*
X33185030Y-35156818D01*
X33216691Y-35397315D01*
X33279477Y-35631634D01*
X33343757Y-35786819D01*
X33372306Y-35855742D01*
X33493594Y-36065819D01*
X33493596Y-36065822D01*
X33493597Y-36065823D01*
X33641263Y-36258266D01*
X33641269Y-36258273D01*
X33812786Y-36429790D01*
X33812793Y-36429796D01*
X33850346Y-36458611D01*
X34005241Y-36577466D01*
X34215318Y-36698754D01*
X34439430Y-36791584D01*
X34673741Y-36854368D01*
X34854116Y-36878114D01*
X34914241Y-36886030D01*
X34914242Y-36886030D01*
X35156819Y-36886030D01*
X35204918Y-36879697D01*
X35397319Y-36854368D01*
X35631630Y-36791584D01*
X35855742Y-36698754D01*
X36065819Y-36577466D01*
X36258268Y-36429795D01*
X36429795Y-36258268D01*
X36577466Y-36065819D01*
X36698754Y-35855742D01*
X36791584Y-35631630D01*
X36854368Y-35397319D01*
X36886030Y-35156818D01*
X36886030Y-34914242D01*
X36882214Y-34885258D01*
X40249500Y-34885258D01*
X40249500Y-35114741D01*
X40263290Y-35219480D01*
X40279452Y-35342238D01*
X40321117Y-35497737D01*
X40338842Y-35563887D01*
X40426650Y-35775876D01*
X40426657Y-35775890D01*
X40541392Y-35974617D01*
X40681081Y-36156661D01*
X40681089Y-36156670D01*
X40843330Y-36318911D01*
X40843338Y-36318918D01*
X41025382Y-36458607D01*
X41025385Y-36458608D01*
X41025388Y-36458611D01*
X41224112Y-36573344D01*
X41224117Y-36573346D01*
X41224123Y-36573349D01*
X41315480Y-36611190D01*
X41436113Y-36661158D01*
X41657762Y-36720548D01*
X41885266Y-36750500D01*
X41885273Y-36750500D01*
X42114727Y-36750500D01*
X42114734Y-36750500D01*
X42342238Y-36720548D01*
X42563887Y-36661158D01*
X42775888Y-36573344D01*
X42974612Y-36458611D01*
X43156661Y-36318919D01*
X43156665Y-36318914D01*
X43156670Y-36318911D01*
X43318911Y-36156670D01*
X43318914Y-36156665D01*
X43318919Y-36156661D01*
X43458611Y-35974612D01*
X43573344Y-35775888D01*
X43637525Y-35620943D01*
X45779500Y-35620943D01*
X45779500Y-36579057D01*
X45817413Y-36720548D01*
X45820423Y-36731783D01*
X45820426Y-36731790D01*
X45899475Y-36868709D01*
X45899479Y-36868714D01*
X45899480Y-36868716D01*
X46011284Y-36980520D01*
X46011286Y-36980521D01*
X46011290Y-36980524D01*
X46136325Y-37052712D01*
X46148216Y-37059577D01*
X46300943Y-37100500D01*
X46300945Y-37100500D01*
X46459055Y-37100500D01*
X46459057Y-37100500D01*
X46611784Y-37059577D01*
X46748716Y-36980520D01*
X46860520Y-36868716D01*
X46939577Y-36731784D01*
X46980500Y-36579057D01*
X46980500Y-35620943D01*
X46939577Y-35468216D01*
X46882979Y-35370184D01*
X46860524Y-35331290D01*
X46860518Y-35331282D01*
X46748717Y-35219481D01*
X46748709Y-35219475D01*
X46611790Y-35140426D01*
X46611786Y-35140424D01*
X46611784Y-35140423D01*
X46459057Y-35099500D01*
X46300943Y-35099500D01*
X46148216Y-35140423D01*
X46148209Y-35140426D01*
X46011290Y-35219475D01*
X46011282Y-35219481D01*
X45899481Y-35331282D01*
X45899475Y-35331290D01*
X45820426Y-35468209D01*
X45820423Y-35468216D01*
X45779500Y-35620943D01*
X43637525Y-35620943D01*
X43661158Y-35563887D01*
X43720548Y-35342238D01*
X43750500Y-35114734D01*
X43750500Y-34885266D01*
X43720548Y-34657762D01*
X43661158Y-34436113D01*
X43595806Y-34278340D01*
X43573349Y-34224123D01*
X43573346Y-34224117D01*
X43573344Y-34224112D01*
X43458611Y-34025388D01*
X43458608Y-34025385D01*
X43458607Y-34025382D01*
X43357764Y-33893962D01*
X43318919Y-33843339D01*
X43318918Y-33843338D01*
X43318911Y-33843330D01*
X43156670Y-33681089D01*
X43156661Y-33681081D01*
X42974617Y-33541392D01*
X42775890Y-33426657D01*
X42775876Y-33426650D01*
X42563887Y-33338842D01*
X42548141Y-33334623D01*
X42342238Y-33279452D01*
X42304215Y-33274446D01*
X42114741Y-33249500D01*
X42114734Y-33249500D01*
X41885266Y-33249500D01*
X41885258Y-33249500D01*
X41668715Y-33278009D01*
X41657762Y-33279452D01*
X41657669Y-33279477D01*
X41436112Y-33338842D01*
X41224123Y-33426650D01*
X41224109Y-33426657D01*
X41025382Y-33541392D01*
X40843338Y-33681081D01*
X40681081Y-33843338D01*
X40541392Y-34025382D01*
X40426657Y-34224109D01*
X40426650Y-34224123D01*
X40338842Y-34436112D01*
X40279453Y-34657759D01*
X40279451Y-34657770D01*
X40249500Y-34885258D01*
X36882214Y-34885258D01*
X36880560Y-34872696D01*
X36872553Y-34811871D01*
X36854368Y-34673741D01*
X36791584Y-34439430D01*
X36698754Y-34215318D01*
X36577466Y-34005241D01*
X36459992Y-33852145D01*
X36429796Y-33812793D01*
X36429790Y-33812786D01*
X36258273Y-33641269D01*
X36258266Y-33641263D01*
X36065823Y-33493597D01*
X36065822Y-33493596D01*
X36065819Y-33493594D01*
X35855742Y-33372306D01*
X35774953Y-33338842D01*
X35631634Y-33279477D01*
X35514474Y-33248084D01*
X35397319Y-33216692D01*
X35397318Y-33216691D01*
X35397315Y-33216691D01*
X35156819Y-33185030D01*
X35156818Y-33185030D01*
X34914242Y-33185030D01*
X34914241Y-33185030D01*
X34673744Y-33216691D01*
X34439425Y-33279477D01*
X34215324Y-33372303D01*
X34215315Y-33372307D01*
X34005236Y-33493597D01*
X33812793Y-33641263D01*
X33812786Y-33641269D01*
X33641269Y-33812786D01*
X33641263Y-33812793D01*
X33493597Y-34005236D01*
X33372307Y-34215315D01*
X33372303Y-34215324D01*
X33279477Y-34439425D01*
X33216691Y-34673744D01*
X33185030Y-34914241D01*
X30001568Y-34914241D01*
X30004126Y-34774383D01*
X30004705Y-34764487D01*
X30049070Y-34316118D01*
X30050703Y-34304892D01*
X30052571Y-34295190D01*
X30135748Y-33863146D01*
X30138393Y-33852145D01*
X30263478Y-33420023D01*
X30267128Y-33409285D01*
X30342568Y-33216691D01*
X30431197Y-32990425D01*
X30435804Y-32980083D01*
X30637497Y-32577960D01*
X30643034Y-32568078D01*
X30880651Y-32186087D01*
X30887052Y-32176775D01*
X31158615Y-31818096D01*
X31165846Y-31809403D01*
X31469081Y-31477047D01*
X31477047Y-31469081D01*
X31529808Y-31420943D01*
X45779500Y-31420943D01*
X45779500Y-32779057D01*
X45808558Y-32887501D01*
X45820423Y-32931783D01*
X45820426Y-32931790D01*
X45899475Y-33068709D01*
X45899479Y-33068714D01*
X45899480Y-33068716D01*
X46011284Y-33180520D01*
X46011286Y-33180521D01*
X46011290Y-33180524D01*
X46073936Y-33216692D01*
X46148216Y-33259577D01*
X46300943Y-33300500D01*
X46300945Y-33300500D01*
X46459055Y-33300500D01*
X46459057Y-33300500D01*
X46611784Y-33259577D01*
X46748716Y-33180520D01*
X46860520Y-33068716D01*
X46939577Y-32931784D01*
X46980500Y-32779057D01*
X46980500Y-31420943D01*
X46939577Y-31268216D01*
X46937228Y-31264147D01*
X46860524Y-31131290D01*
X46860518Y-31131282D01*
X46748717Y-31019481D01*
X46748709Y-31019475D01*
X46611790Y-30940426D01*
X46611786Y-30940424D01*
X46611784Y-30940423D01*
X46459057Y-30899500D01*
X46300943Y-30899500D01*
X46148216Y-30940423D01*
X46148209Y-30940426D01*
X46011290Y-31019475D01*
X46011282Y-31019481D01*
X45899481Y-31131282D01*
X45899475Y-31131290D01*
X45820426Y-31268209D01*
X45820423Y-31268216D01*
X45779500Y-31420943D01*
X31529808Y-31420943D01*
X31809403Y-31165846D01*
X31818096Y-31158615D01*
X32176775Y-30887052D01*
X32186087Y-30880651D01*
X32568078Y-30643034D01*
X32577960Y-30637497D01*
X32980083Y-30435804D01*
X32990425Y-30431197D01*
X33259692Y-30325723D01*
X33409285Y-30267128D01*
X33420023Y-30263478D01*
X33852145Y-30138393D01*
X33863146Y-30135748D01*
X34304898Y-30050702D01*
X34316118Y-30049070D01*
X34764487Y-30004705D01*
X34774383Y-30004126D01*
X34998852Y-30000021D01*
X35001119Y-30000000D01*
X47256000Y-30000000D01*
X47323039Y-30019685D01*
X47368794Y-30072489D01*
X47380000Y-30124000D01*
X47380000Y-36500000D01*
X47380700Y-36519685D01*
X47382544Y-36571523D01*
X47382544Y-36571525D01*
X47422844Y-36708774D01*
X47422845Y-36708776D01*
X47500182Y-36829114D01*
X47608290Y-36922790D01*
X47641366Y-36937895D01*
X47738408Y-36982213D01*
X47756206Y-36984772D01*
X47880000Y-37002571D01*
X48021591Y-36982213D01*
X48151710Y-36922790D01*
X48259818Y-36829114D01*
X48337155Y-36708776D01*
X48352241Y-36657394D01*
X48372306Y-36589065D01*
X48410080Y-36530287D01*
X48473636Y-36501262D01*
X48491283Y-36500000D01*
X55508717Y-36500000D01*
X55575756Y-36519685D01*
X55621511Y-36572489D01*
X55627694Y-36589065D01*
X55662844Y-36708774D01*
X55662845Y-36708776D01*
X55740182Y-36829114D01*
X55848290Y-36922790D01*
X55881366Y-36937895D01*
X55978408Y-36982213D01*
X55996206Y-36984772D01*
X56120000Y-37002571D01*
X56261591Y-36982213D01*
X56391710Y-36922790D01*
X56499818Y-36829114D01*
X56577155Y-36708776D01*
X56617456Y-36571523D01*
X56620000Y-36500000D01*
X56620000Y-31420943D01*
X57019500Y-31420943D01*
X57019500Y-32779057D01*
X57048558Y-32887501D01*
X57060423Y-32931783D01*
X57060426Y-32931790D01*
X57139475Y-33068709D01*
X57139479Y-33068714D01*
X57139480Y-33068716D01*
X57251284Y-33180520D01*
X57251286Y-33180521D01*
X57251290Y-33180524D01*
X57313936Y-33216692D01*
X57388216Y-33259577D01*
X57540943Y-33300500D01*
X57540945Y-33300500D01*
X57699055Y-33300500D01*
X57699057Y-33300500D01*
X57851784Y-33259577D01*
X57988716Y-33180520D01*
X58100520Y-33068716D01*
X58179577Y-32931784D01*
X58220500Y-32779057D01*
X58220500Y-31420943D01*
X58179577Y-31268216D01*
X58177228Y-31264147D01*
X58100524Y-31131290D01*
X58100518Y-31131282D01*
X57988717Y-31019481D01*
X57988709Y-31019475D01*
X57851790Y-30940426D01*
X57851786Y-30940424D01*
X57851784Y-30940423D01*
X57699057Y-30899500D01*
X57540943Y-30899500D01*
X57388216Y-30940423D01*
X57388209Y-30940426D01*
X57251290Y-31019475D01*
X57251282Y-31019481D01*
X57139481Y-31131282D01*
X57139475Y-31131290D01*
X57060426Y-31268209D01*
X57060423Y-31268216D01*
X57019500Y-31420943D01*
X56620000Y-31420943D01*
X56620000Y-30123968D01*
X56639685Y-30056929D01*
X56692489Y-30011174D01*
X56743967Y-29999968D01*
X60975972Y-29998881D01*
X61043013Y-30018547D01*
X61088781Y-30071340D01*
X61100000Y-30122880D01*
X61100000Y-30890000D01*
X109100000Y-30890000D01*
X109100000Y-30110491D01*
X109119685Y-30043452D01*
X109172489Y-29997697D01*
X109223963Y-29986492D01*
X173302364Y-29970037D01*
X173369407Y-29989704D01*
G37*
%TD.AperFunction*%
%TA.AperFunction,Conductor*%
G36*
X86514809Y-44580185D02*
G01*
X86535451Y-44596819D01*
X90521586Y-48582954D01*
X90549639Y-48601697D01*
X90591723Y-48629816D01*
X90644505Y-48665084D01*
X90644507Y-48665085D01*
X90644511Y-48665087D01*
X90781082Y-48721656D01*
X90781087Y-48721658D01*
X90781091Y-48721658D01*
X90781092Y-48721659D01*
X90926079Y-48750500D01*
X90926082Y-48750500D01*
X90926083Y-48750500D01*
X91073918Y-48750500D01*
X115818060Y-48750500D01*
X115885099Y-48770185D01*
X115930854Y-48822989D01*
X115940798Y-48892147D01*
X115911773Y-48955703D01*
X115905741Y-48962181D01*
X115870184Y-48997737D01*
X115774211Y-49150476D01*
X115714631Y-49320745D01*
X115714630Y-49320750D01*
X115694435Y-49499996D01*
X115694435Y-49500003D01*
X115714630Y-49679249D01*
X115714631Y-49679254D01*
X115774211Y-49849523D01*
X115870184Y-50002262D01*
X115905741Y-50037819D01*
X115939226Y-50099142D01*
X115934242Y-50168834D01*
X115892370Y-50224767D01*
X115826906Y-50249184D01*
X115818060Y-50249500D01*
X109016952Y-50249500D01*
X108949913Y-50229815D01*
X108904158Y-50177011D01*
X108893631Y-50112542D01*
X108905460Y-50000000D01*
X108885674Y-49811744D01*
X108827179Y-49631716D01*
X108732533Y-49467784D01*
X108605871Y-49327112D01*
X108605870Y-49327111D01*
X108452734Y-49215851D01*
X108452729Y-49215848D01*
X108279807Y-49138857D01*
X108279802Y-49138855D01*
X108134001Y-49107865D01*
X108094646Y-49099500D01*
X107905354Y-49099500D01*
X107872897Y-49106398D01*
X107720197Y-49138855D01*
X107720192Y-49138857D01*
X107547270Y-49215848D01*
X107547265Y-49215851D01*
X107394129Y-49327111D01*
X107267466Y-49467785D01*
X107172821Y-49631715D01*
X107172818Y-49631722D01*
X107120593Y-49792455D01*
X107114326Y-49811744D01*
X107094540Y-50000000D01*
X107106368Y-50112541D01*
X107093800Y-50181268D01*
X107046068Y-50232292D01*
X106983048Y-50249500D01*
X91362229Y-50249500D01*
X91295190Y-50229815D01*
X91274548Y-50213181D01*
X85833549Y-44772181D01*
X85800064Y-44710858D01*
X85805048Y-44641166D01*
X85846920Y-44585233D01*
X85912384Y-44560816D01*
X85921230Y-44560500D01*
X86447770Y-44560500D01*
X86514809Y-44580185D01*
G37*
%TD.AperFunction*%
%TA.AperFunction,Conductor*%
G36*
X136592540Y-48770185D02*
G01*
X136638295Y-48822989D01*
X136649501Y-48874500D01*
X136649501Y-48897876D01*
X136655908Y-48957483D01*
X136706202Y-49092328D01*
X136706206Y-49092335D01*
X136792452Y-49207544D01*
X136792455Y-49207547D01*
X136907664Y-49293793D01*
X136907671Y-49293797D01*
X137042517Y-49344091D01*
X137042516Y-49344091D01*
X137049444Y-49344835D01*
X137102127Y-49350500D01*
X138897872Y-49350499D01*
X138957483Y-49344091D01*
X139092331Y-49293796D01*
X139207546Y-49207546D01*
X139293796Y-49092331D01*
X139344091Y-48957483D01*
X139350500Y-48897873D01*
X139350500Y-48874500D01*
X139370185Y-48807461D01*
X139422989Y-48761706D01*
X139474500Y-48750500D01*
X139770500Y-48750500D01*
X139837539Y-48770185D01*
X139883294Y-48822989D01*
X139894500Y-48874500D01*
X139894500Y-50125500D01*
X139874815Y-50192539D01*
X139822011Y-50238294D01*
X139770500Y-50249500D01*
X134474499Y-50249500D01*
X134407460Y-50229815D01*
X134361705Y-50177011D01*
X134350499Y-50125500D01*
X134350499Y-50102129D01*
X134350498Y-50102123D01*
X134350497Y-50102116D01*
X134344091Y-50042517D01*
X134328233Y-50000000D01*
X134293797Y-49907671D01*
X134293793Y-49907664D01*
X134207547Y-49792455D01*
X134207544Y-49792452D01*
X134092335Y-49706206D01*
X134092328Y-49706202D01*
X133957482Y-49655908D01*
X133957483Y-49655908D01*
X133897883Y-49649501D01*
X133897881Y-49649500D01*
X133897873Y-49649500D01*
X133897864Y-49649500D01*
X132102129Y-49649500D01*
X132102123Y-49649501D01*
X132042516Y-49655908D01*
X131907671Y-49706202D01*
X131907664Y-49706206D01*
X131792455Y-49792452D01*
X131792452Y-49792455D01*
X131706206Y-49907664D01*
X131706202Y-49907671D01*
X131655908Y-50042517D01*
X131649821Y-50099142D01*
X131649501Y-50102123D01*
X131649500Y-50102135D01*
X131649500Y-50125500D01*
X131629815Y-50192539D01*
X131577011Y-50238294D01*
X131525500Y-50249500D01*
X120681940Y-50249500D01*
X120614901Y-50229815D01*
X120569146Y-50177011D01*
X120559202Y-50107853D01*
X120588227Y-50044297D01*
X120594259Y-50037819D01*
X120629816Y-50002262D01*
X120725789Y-49849522D01*
X120785368Y-49679255D01*
X120785369Y-49679249D01*
X120805565Y-49500003D01*
X120805565Y-49499996D01*
X120785369Y-49320750D01*
X120785368Y-49320745D01*
X120725788Y-49150476D01*
X120629815Y-48997737D01*
X120594259Y-48962181D01*
X120560774Y-48900858D01*
X120565758Y-48831166D01*
X120607630Y-48775233D01*
X120673094Y-48750816D01*
X120681940Y-48750500D01*
X136525501Y-48750500D01*
X136592540Y-48770185D01*
G37*
%TD.AperFunction*%
%TA.AperFunction,Conductor*%
G36*
X97213158Y-45747721D02*
G01*
X97288860Y-45774211D01*
X97320745Y-45785368D01*
X97320750Y-45785369D01*
X97499996Y-45805565D01*
X97500000Y-45805565D01*
X97500004Y-45805565D01*
X97679249Y-45785369D01*
X97679252Y-45785368D01*
X97679255Y-45785368D01*
X97759017Y-45757457D01*
X97799972Y-45750500D01*
X103483048Y-45750500D01*
X103550087Y-45770185D01*
X103595842Y-45822989D01*
X103606368Y-45887457D01*
X103594540Y-46000000D01*
X103614326Y-46188256D01*
X103614327Y-46188259D01*
X103672818Y-46368277D01*
X103672821Y-46368284D01*
X103767467Y-46532216D01*
X103873070Y-46649500D01*
X103894129Y-46672888D01*
X104047265Y-46784148D01*
X104047270Y-46784151D01*
X104220192Y-46861142D01*
X104220197Y-46861144D01*
X104405354Y-46900500D01*
X104405355Y-46900500D01*
X104594644Y-46900500D01*
X104594646Y-46900500D01*
X104779803Y-46861144D01*
X104952730Y-46784151D01*
X105105871Y-46672888D01*
X105232533Y-46532216D01*
X105327179Y-46368284D01*
X105385674Y-46188256D01*
X105405460Y-46000000D01*
X105393631Y-45887458D01*
X105406200Y-45818732D01*
X105453932Y-45767708D01*
X105516952Y-45750500D01*
X139770500Y-45750500D01*
X139837539Y-45770185D01*
X139883294Y-45822989D01*
X139894500Y-45874500D01*
X139894500Y-47125500D01*
X139874815Y-47192539D01*
X139822011Y-47238294D01*
X139770500Y-47249500D01*
X139474499Y-47249500D01*
X139407460Y-47229815D01*
X139361705Y-47177011D01*
X139350499Y-47125500D01*
X139350499Y-47102129D01*
X139350498Y-47102123D01*
X139350497Y-47102116D01*
X139344091Y-47042517D01*
X139293796Y-46907669D01*
X139293795Y-46907668D01*
X139293793Y-46907664D01*
X139207547Y-46792455D01*
X139207544Y-46792452D01*
X139092335Y-46706206D01*
X139092328Y-46706202D01*
X138957482Y-46655908D01*
X138957483Y-46655908D01*
X138897883Y-46649501D01*
X138897881Y-46649500D01*
X138897873Y-46649500D01*
X138897864Y-46649500D01*
X137102129Y-46649500D01*
X137102123Y-46649501D01*
X137042516Y-46655908D01*
X136907671Y-46706202D01*
X136907664Y-46706206D01*
X136792455Y-46792452D01*
X136792452Y-46792455D01*
X136706206Y-46907664D01*
X136706202Y-46907671D01*
X136655908Y-47042517D01*
X136649821Y-47099142D01*
X136649501Y-47102123D01*
X136649500Y-47102135D01*
X136649500Y-47125500D01*
X136629815Y-47192539D01*
X136577011Y-47238294D01*
X136525500Y-47249500D01*
X97181940Y-47249500D01*
X97114901Y-47229815D01*
X97069146Y-47177011D01*
X97059202Y-47107853D01*
X97088227Y-47044297D01*
X97094259Y-47037819D01*
X97129816Y-47002262D01*
X97225789Y-46849522D01*
X97285368Y-46679255D01*
X97285369Y-46679249D01*
X97305565Y-46500003D01*
X97305565Y-46499996D01*
X97285369Y-46320750D01*
X97285368Y-46320745D01*
X97225788Y-46150476D01*
X97129815Y-45997737D01*
X97084523Y-45952445D01*
X97051038Y-45891122D01*
X97056022Y-45821430D01*
X97097894Y-45765497D01*
X97163358Y-45741080D01*
X97213158Y-45747721D01*
G37*
%TD.AperFunction*%
%TD*%
M02*
