M48
; DRILL file {KiCad 8.0.6} date 2024-10-30T23:15:19-0400
; FORMAT={-:-/ absolute / inch / decimal}
; #@! TF.CreationDate,2024-10-30T23:15:19-04:00
; #@! TF.GenerationSoftware,Kicad,Pcbnew,8.0.6
; #@! TF.FileFunction,NonPlated,1,4,NPTH
FMAT,2
INCH
; #@! TA.AperFunction,NonPlated,NPTH,ComponentDrill
T1C0.0315
; #@! TA.AperFunction,NonPlated,NPTH,ComponentDrill
T2C0.0591
; #@! TA.AperFunction,NonPlated,NPTH,ComponentDrill
T3C0.0945
; #@! TA.AperFunction,NonPlated,NPTH,ComponentDrill
T4C0.1181
; #@! TA.AperFunction,NonPlated,NPTH,ComponentDrill
T5C0.1260
%
G90
G05
T2
X7.2441Y-1.3425
X7.2441Y-1.6181
T3
X1.3386Y-4.7575
T4
X1.378Y-4.3307
X1.6535Y-1.378
X3.3858Y-4.5866
X3.7402Y-3.4646
X4.8622Y-1.3386
X5.315Y-3.4646
X5.6693Y-4.5866
X6.4567Y-2.7559
X6.4567Y-4.5866
X7.6772Y-1.6929
X7.6772Y-2.7559
X7.6772Y-4.5866
T5
X1.3794Y-1.3794
X2.2638Y-4.9388
X3.3844Y-4.0347
X3.3844Y-4.9388
X5.6679Y-4.0347
X5.6679Y-4.9388
X7.6772Y-1.3766
X7.6772Y-4.9199
T1
G00X2.5394Y-3.0276
M15
G01X2.5787Y-3.0276
M16
G05
G00X2.5394Y-3.3504
M15
G01X2.5787Y-3.3504
M16
G05
M30
